<svg xmlns="http://www.w3.org/2000/svg" xmlns:xlink="http://www.w3.org/1999/xlink" xmlns:lucid="lucid" width="2940" height="1882.06"><g transform="translate(0 0)" lucid:page-tab-id="0_0"><path d="M0 0h2940v1882.06H0z" fill="#fff"/><path d="M960.5 68c0-4.42 3.58-8 8-8h836.75c4.42 0 8 3.58 8 8v80.03c0 4.42-3.58 8-8 8H968.5c-4.42 0-8-3.58-8-8z" stroke="#000" stroke-opacity="0" stroke-width="2" fill="#fff" fill-opacity="0"/><use xlink:href="#a" transform="matrix(1,0,0,1,964.5000000000002,63.99999999999999) translate(321.10320987654325 48.68902777777778)"/><use xlink:href="#b" transform="matrix(1,0,0,1,964.5000000000002,63.99999999999999) translate(414.19209876543215 48.68902777777778)"/><path d="M1239.4 152.9h305M1239.42 152.9h-1.03M1544.36 152.9h1.03" stroke="#a9afb8" stroke-width="2" fill="none"/><path d="M960.5 164.03c0-4.42 3.58-8 8-8h837.7c4.43 0 8 3.58 8 8V192c0 4.42-3.57 8-8 8H968.5c-4.42 0-8-3.58-8-8z" stroke="#000" stroke-opacity="0" stroke-width="2" fill="#fff" fill-opacity="0"/><use xlink:href="#c" transform="matrix(1,0,0,1,964.5000000000005,160.02885589905787) translate(312.0126748971194 21.667037037037037)"/><use xlink:href="#d" transform="matrix(1,0,0,1,964.5000000000005,160.02885589905787) translate(352.76030864197537 21.667037037037037)"/><use xlink:href="#e" transform="matrix(1,0,0,1,964.5000000000005,160.02885589905787) translate(395.16504115226337 21.667037037037037)"/><use xlink:href="#f" transform="matrix(1,0,0,1,964.5000000000005,160.02885589905787) translate(407.61452674897123 21.667037037037037)"/><use xlink:href="#g" transform="matrix(1,0,0,1,964.5000000000005,160.02885589905787) translate(482.26895061728396 21.667037037037037)"/><use xlink:href="#h" transform="matrix(1,0,0,1,964.5000000000005,160.02885589905787) translate(506.6155555555556 21.667037037037037)"/><path d="M860 320h340v33H860z" fill="#fff"/><path d="M860 352h340v33H860z" fill="#e6e6e6"/><path d="M860 384h340v33H860z" fill="#fff"/><path d="M860 416h340v32H860z" fill="#e6e6e6"/><path d="M860 280h340v40H860z" fill="#ccc"/><path d="M860 288c0-4.42 3.58-8 8-8h324c4.42 0 8 3.58 8 8v152c0 4.42-3.58 8-8 8H868c-4.42 0-8-3.58-8-8zM860 320h340M1002.22 320v128" stroke="#333" fill="none"/><use xlink:href="#i" transform="matrix(1,0,0,1,870,279.99999999999994) translate(141.05 23.6)"/><use xlink:href="#j" transform="matrix(1,0,0,1,865,322.49999999999994) translate(26.549999999999997 17.1)"/><use xlink:href="#k" transform="matrix(1,0,0,1,1007.2213008697822,322.49999999999994) translate(76.525 17.1)"/><use xlink:href="#l" transform="matrix(1,0,0,1,865,354.49999999999994) translate(32.075 17.1)"/><use xlink:href="#k" transform="matrix(1,0,0,1,1007.2213008697822,354.49999999999994) translate(76.525 17.1)"/><use xlink:href="#m" transform="matrix(1,0,0,1,865,386.49999999999994) translate(30.049999999999997 17.1)"/><use xlink:href="#k" transform="matrix(1,0,0,1,1007.2213008697822,386.49999999999994) translate(76.525 17.1)"/><use xlink:href="#n" transform="matrix(1,0,0,1,865,418.49999999999994) translate(28.049999999999997 17.1)"/><use xlink:href="#k" transform="matrix(1,0,0,1,1007.2213008697822,418.49999999999994) translate(76.525 17.1)"/><path d="M1120.5 844.73h340v33h-340z" fill="#fff"/><path d="M1120.5 876.73h340v33h-340z" fill="#e6e6e6"/><path d="M1120.5 908.73h340v33h-340z" fill="#fff"/><path d="M1120.5 940.73h340v32h-340z" fill="#e6e6e6"/><path d="M1120.5 804.73h340v40h-340z" fill="#ccc"/><path d="M1120.5 812.73c0-4.42 3.58-8 8-8h324c4.42 0 8 3.58 8 8v152c0 4.42-3.58 8-8 8h-324c-4.42 0-8-3.58-8-8zM1120.5 844.73h340M1262.72 844.73v128" stroke="#333" fill="none"/><use xlink:href="#o" transform="matrix(1,0,0,1,1130.5,804.7310561234702) translate(129 23.6)"/><use xlink:href="#p" transform="matrix(1,0,0,1,1125.5,847.2310561234702) translate(49.025 17.1)"/><use xlink:href="#q" transform="matrix(1,0,0,1,1267.7213008697822,847.2310561234702) translate(87 17.1)"/><use xlink:href="#r" transform="matrix(1,0,0,1,1125.5,879.2310561234702) translate(38.525 17.1)"/><use xlink:href="#k" transform="matrix(1,0,0,1,1267.7213008697822,879.2310561234702) translate(76.525 17.1)"/><use xlink:href="#s" transform="matrix(1,0,0,1,1125.5,911.2310561234702) translate(14.049999999999997 17.1)"/><use xlink:href="#k" transform="matrix(1,0,0,1,1267.7213008697822,911.2310561234702) translate(76.525 17.1)"/><use xlink:href="#t" transform="matrix(1,0,0,1,1125.5,943.2310561234702) translate(44 17.1)"/><use xlink:href="#u" transform="matrix(1,0,0,1,1267.7213008697822,943.2310561234702) translate(77.025 17.1)"/><path d="M1030 468.5v383.7c0 6.64 5.37 12 12 12h58" stroke="#333" fill="none"/><path d="M1020 468.5h20M1030 448.5v20M1100 854.2v20M1120 864.2h-20" stroke="#333" fill="#fff"/><path d="M180.5 954.27h340v32h-340z" fill="#fff"/><path d="M180.5 914.27h340v40h-340z" fill="#ccc"/><path d="M180.5 922.27c0-4.42 3.58-8 8-8h324c4.42 0 8 3.58 8 8v56c0 4.4-3.58 8-8 8h-324c-4.42 0-8-3.6-8-8zM180.5 954.27h340M322.72 954.27v32" stroke="#333" fill="none"/><use xlink:href="#v" transform="matrix(1,0,0,1,190.5,914.2654350115339) translate(122.55 23.6)"/><use xlink:href="#p" transform="matrix(1,0,0,1,185.5,956.7654350115339) translate(49.025 17.1)"/><use xlink:href="#q" transform="matrix(1,0,0,1,327.7213008697822,956.7654350115339) translate(87 17.1)"/><path d="M1030 468.5v8c0 6.63-5.37 12-12 12H152c-6.63 0-12 5.37-12 12v457.82c0 6.63 5.37 12 12 12h8" stroke="#333" fill="none"/><path d="M1020 468.5h20M1030 448.5v20M160 960.32v20M180 970.32h-20" stroke="#333" fill="#fff"/><path d="M180.5 1301.6h340v33h-340z" fill="#fff"/><path d="M180.5 1333.6h340v32h-340z" fill="#e6e6e6"/><path d="M180.5 1261.6h340v40h-340z" fill="#ccc"/><path d="M180.5 1269.6c0-4.42 3.58-8 8-8h324c4.42 0 8 3.58 8 8v88c0 4.42-3.58 8-8 8h-324c-4.42 0-8-3.58-8-8zM180.5 1301.6h340M322.72 1301.6v64" stroke="#333" fill="none"/><use xlink:href="#w" transform="matrix(1,0,0,1,190.5,1261.5981432819533) translate(130.025 23.6)"/><use xlink:href="#x" transform="matrix(1,0,0,1,185.5,1304.0981432819533) translate(52.55 17.1)"/><use xlink:href="#k" transform="matrix(1,0,0,1,327.7213008697822,1304.0981432819533) translate(76.525 17.1)"/><use xlink:href="#y" transform="matrix(1,0,0,1,185.5,1336.0981432819533) translate(50.025 17.1)"/><use xlink:href="#k" transform="matrix(1,0,0,1,327.7213008697822,1336.0981432819533) translate(76.525 17.1)"/><path d="M1400 1160h340v33h-340z" fill="#fff"/><path d="M1400 1192h340v33h-340z" fill="#e6e6e6"/><path d="M1400 1224h340v33h-340z" fill="#fff"/><path d="M1400 1256h340v32h-340z" fill="#e6e6e6"/><path d="M1400 1120h340v40h-340z" fill="#ccc"/><path d="M1400 1128c0-4.42 3.58-8 8-8h324c4.42 0 8 3.58 8 8v152c0 4.42-3.58 8-8 8h-324c-4.42 0-8-3.58-8-8zM1400 1160h340M1542.22 1160v128" stroke="#333" fill="none"/><use xlink:href="#z" transform="matrix(1,0,0,1,1410,1120) translate(117.1 23.6)"/><use xlink:href="#A" transform="matrix(1,0,0,1,1405,1162.5) translate(37 17.1)"/><use xlink:href="#q" transform="matrix(1,0,0,1,1547.2213008697822,1162.5) translate(87 17.1)"/><use xlink:href="#B" transform="matrix(1,0,0,1,1405,1194.5) translate(36.525 17.1)"/><use xlink:href="#C" transform="matrix(1,0,0,1,1547.2213008697822,1194.5) translate(59.55 17.1)"/><use xlink:href="#D" transform="matrix(1,0,0,1,1405,1226.5) translate(39 17.1)"/><use xlink:href="#C" transform="matrix(1,0,0,1,1547.2213008697822,1226.5) translate(59.55 17.1)"/><use xlink:href="#E" transform="matrix(1,0,0,1,1405,1258.5) translate(39.525 17.1)"/><use xlink:href="#q" transform="matrix(1,0,0,1,1547.2213008697822,1258.5) translate(87 17.1)"/><path d="M620.5 1063.77h340v33h-340z" fill="#fff"/><path d="M620.5 1095.77h340v33h-340z" fill="#e6e6e6"/><path d="M620.5 1127.77h340v33h-340z" fill="#fff"/><path d="M620.5 1159.77h340v33h-340z" fill="#e6e6e6"/><path d="M620.5 1191.77h340v33h-340z" fill="#fff"/><path d="M620.5 1223.77h340v33h-340z" fill="#e6e6e6"/><path d="M620.5 1255.77h340v32h-340z" fill="#fff"/><path d="M620.5 1023.77h340v40h-340z" fill="#ccc"/><path d="M620.5 1031.77c0-4.42 3.58-8 8-8h324c4.42 0 8 3.58 8 8v248c0 4.4-3.58 8-8 8h-324c-4.42 0-8-3.6-8-8zM620.5 1063.77h340M762.72 1063.77v224" stroke="#333" fill="none"/><use xlink:href="#F" transform="matrix(1,0,0,1,630.5,1023.765435011534) translate(131.05 23.6)"/><use xlink:href="#G" transform="matrix(1,0,0,1,625.5,1066.265435011534) translate(29.574999999999996 17.1)"/><use xlink:href="#q" transform="matrix(1,0,0,1,767.7213008697822,1066.265435011534) translate(87 17.1)"/><use xlink:href="#H" transform="matrix(1,0,0,1,625.5,1098.265435011534) translate(38.025 17.1)"/><use xlink:href="#q" transform="matrix(1,0,0,1,767.7213008697822,1098.265435011534) translate(87 17.1)"/><use xlink:href="#x" transform="matrix(1,0,0,1,625.5,1130.265435011534) translate(52.55 17.1)"/><use xlink:href="#k" transform="matrix(1,0,0,1,767.7213008697822,1130.265435011534) translate(76.525 17.1)"/><use xlink:href="#I" transform="matrix(1,0,0,1,625.5,1162.265435011534) translate(31.074999999999996 17.1)"/><use xlink:href="#J" transform="matrix(1,0,0,1,767.7213008697822,1162.265435011534) translate(79.5 17.1)"/><use xlink:href="#y" transform="matrix(1,0,0,1,625.5,1194.265435011534) translate(50.025 17.1)"/><use xlink:href="#k" transform="matrix(1,0,0,1,767.7213008697822,1194.265435011534) translate(76.525 17.1)"/><use xlink:href="#B" transform="matrix(1,0,0,1,625.5,1226.265435011534) translate(36.525 17.1)"/><use xlink:href="#C" transform="matrix(1,0,0,1,767.7213008697822,1226.265435011534) translate(59.55 17.1)"/><use xlink:href="#K" transform="matrix(1,0,0,1,625.5,1258.265435011534) translate(24.599999999999994 17.1)"/><use xlink:href="#q" transform="matrix(1,0,0,1,767.7213008697822,1258.265435011534) translate(87 17.1)"/><path d="M1120.5 1563.94h340v33h-340z" fill="#fff"/><path d="M1120.5 1595.94h340v33h-340z" fill="#e6e6e6"/><path d="M1120.5 1627.94h340v33h-340z" fill="#fff"/><path d="M1120.5 1659.94h340v32h-340z" fill="#e6e6e6"/><path d="M1120.5 1523.94h340v40h-340z" fill="#ccc"/><path d="M1120.5 1531.94c0-4.42 3.58-8 8-8h324c4.42 0 8 3.58 8 8v152c0 4.42-3.58 8-8 8h-324c-4.42 0-8-3.58-8-8zM1120.5 1563.94h340M1262.72 1563.94v128" stroke="#333" fill="none"/><use xlink:href="#L" transform="matrix(1,0,0,1,1130.5000000000002,1523.9379472155315) translate(130.55 23.6)"/><use xlink:href="#E" transform="matrix(1,0,0,1,1125.5000000000002,1566.4379472155315) translate(39.525 17.1)"/><use xlink:href="#q" transform="matrix(1,0,0,1,1267.7213008697825,1566.4379472155315) translate(87 17.1)"/><use xlink:href="#x" transform="matrix(1,0,0,1,1125.5000000000002,1598.4379472155315) translate(52.55 17.1)"/><use xlink:href="#k" transform="matrix(1,0,0,1,1267.7213008697825,1598.4379472155315) translate(76.525 17.1)"/><use xlink:href="#M" transform="matrix(1,0,0,1,1125.5000000000002,1630.4379472155315) translate(23.074999999999996 17.1)"/><use xlink:href="#J" transform="matrix(1,0,0,1,1267.7213008697825,1630.4379472155315) translate(79.5 17.1)"/><use xlink:href="#N" transform="matrix(1,0,0,1,1125.5000000000002,1662.4379472155315) translate(45.55 17.1)"/><use xlink:href="#O" transform="matrix(1,0,0,1,1267.7213008697825,1662.4379472155315) translate(66.55 17.1)"/><path d="M1580.5 1460h340v33h-340z" fill="#fff"/><path d="M1580.5 1492h340v33h-340z" fill="#e6e6e6"/><path d="M1580.5 1524h340v33h-340z" fill="#fff"/><path d="M1580.5 1556h340v33h-340z" fill="#e6e6e6"/><path d="M1580.5 1588h340v33h-340z" fill="#fff"/><path d="M1580.5 1620h340v33h-340z" fill="#e6e6e6"/><path d="M1580.5 1652h340v32h-340z" fill="#fff"/><path d="M1580.5 1420h340v40h-340z" fill="#ccc"/><path d="M1580.5 1428c0-4.42 3.58-8 8-8h324c4.42 0 8 3.58 8 8v248c0 4.42-3.58 8-8 8h-324c-4.42 0-8-3.58-8-8zM1580.5 1460h340M1722.72 1460v224" stroke="#333" fill="none"/><use xlink:href="#P" transform="matrix(1,0,0,1,1590.5000000000002,1420) translate(58.625 23.6)"/><use xlink:href="#Q" transform="matrix(1,0,0,1,1590.5000000000002,1420) translate(126.575 23.6)"/><use xlink:href="#R" transform="matrix(1,0,0,1,1590.5000000000002,1420) translate(196.425 23.6)"/><use xlink:href="#S" transform="matrix(1,0,0,1,1585.5000000000002,1462.5) translate(37.05 17.1)"/><use xlink:href="#q" transform="matrix(1,0,0,1,1727.7213008697825,1462.5) translate(87 17.1)"/><use xlink:href="#T" transform="matrix(1,0,0,1,1585.5000000000002,1494.5) translate(49.55 17.1)"/><use xlink:href="#U" transform="matrix(1,0,0,1,1727.7213008697825,1494.5) translate(68.725 17.1)"/><use xlink:href="#N" transform="matrix(1,0,0,1,1585.5000000000002,1526.5) translate(45.55 17.1)"/><use xlink:href="#O" transform="matrix(1,0,0,1,1727.7213008697825,1526.5) translate(66.55 17.1)"/><use xlink:href="#G" transform="matrix(1,0,0,1,1585.5000000000002,1558.5) translate(29.574999999999996 17.1)"/><use xlink:href="#q" transform="matrix(1,0,0,1,1727.7213008697825,1558.5) translate(87 17.1)"/><use xlink:href="#x" transform="matrix(1,0,0,1,1585.5000000000002,1590.5) translate(52.55 17.1)"/><use xlink:href="#k" transform="matrix(1,0,0,1,1727.7213008697825,1590.5) translate(76.525 17.1)"/><use xlink:href="#B" transform="matrix(1,0,0,1,1585.5000000000002,1622.5) translate(36.525 17.1)"/><use xlink:href="#C" transform="matrix(1,0,0,1,1727.7213008697825,1622.5) translate(59.55 17.1)"/><use xlink:href="#V" transform="matrix(1,0,0,1,1585.5000000000002,1654.5) translate(34 17.1)"/><use xlink:href="#C" transform="matrix(1,0,0,1,1727.7213008697825,1654.5) translate(59.55 17.1)"/><path d="M2040 1091.8h340v33h-340z" fill="#fff"/><path d="M2040 1123.8h340v33h-340z" fill="#e6e6e6"/><path d="M2040 1155.8h340v33h-340z" fill="#fff"/><path d="M2040 1187.8h340v33h-340z" fill="#e6e6e6"/><path d="M2040 1219.8h340v33h-340z" fill="#fff"/><path d="M2040 1251.8h340v33h-340z" fill="#e6e6e6"/><path d="M2040 1283.8h340v33h-340z" fill="#fff"/><path d="M2040 1315.8h340v33h-340z" fill="#e6e6e6"/><path d="M2040 1347.8h340v33h-340z" fill="#fff"/><path d="M2040 1379.8h340v32h-340z" fill="#e6e6e6"/><path d="M2040 1051.8h340v40h-340z" fill="#ccc"/><path d="M2040 1059.8c0-4.4 3.58-8 8-8h324c4.42 0 8 3.6 8 8v344c0 4.43-3.58 8-8 8h-324c-4.42 0-8-3.57-8-8zM2040 1091.8h340M2182.22 1091.8v320" stroke="#333" fill="none"/><use xlink:href="#W" transform="matrix(1,0,0,1,2050,1051.8117647058823) translate(113.05 23.6)"/><use xlink:href="#X" transform="matrix(1,0,0,1,2045,1094.3117647058823) translate(36.525 17.1)"/><use xlink:href="#Y" transform="matrix(1,0,0,1,2187.221300869782,1094.3117647058823) translate(87 17.1)"/><use xlink:href="#E" transform="matrix(1,0,0,1,2045,1126.3117647058823) translate(39.525 17.1)"/><use xlink:href="#q" transform="matrix(1,0,0,1,2187.221300869782,1126.3117647058823) translate(87 17.1)"/><use xlink:href="#x" transform="matrix(1,0,0,1,2045,1158.3117647058823) translate(52.55 17.1)"/><use xlink:href="#k" transform="matrix(1,0,0,1,2187.221300869782,1158.3117647058823) translate(76.525 17.1)"/><use xlink:href="#I" transform="matrix(1,0,0,1,2045,1190.3117647058823) translate(31.074999999999996 17.1)"/><use xlink:href="#J" transform="matrix(1,0,0,1,2187.221300869782,1190.3117647058823) translate(79.5 17.1)"/><use xlink:href="#y" transform="matrix(1,0,0,1,2045,1222.3117647058823) translate(50.025 17.1)"/><use xlink:href="#k" transform="matrix(1,0,0,1,2187.221300869782,1222.3117647058823) translate(76.525 17.1)"/><use xlink:href="#Z" transform="matrix(1,0,0,1,2045,1254.3117647058823) translate(40.55 17.1)"/><use xlink:href="#aa" transform="matrix(1,0,0,1,2187.221300869782,1254.3117647058823) translate(63.074999999999996 17.1)"/><use xlink:href="#ab" transform="matrix(1,0,0,1,2045,1286.3117647058823) translate(42 17.1)"/><use xlink:href="#C" transform="matrix(1,0,0,1,2187.221300869782,1286.3117647058823) translate(59.55 17.1)"/><use xlink:href="#ac" transform="matrix(1,0,0,1,2045,1318.3117647058823) translate(41.025 17.1)"/><use xlink:href="#C" transform="matrix(1,0,0,1,2187.221300869782,1318.3117647058823) translate(59.55 17.1)"/><use xlink:href="#ad" transform="matrix(1,0,0,1,2045,1350.3117647058823) translate(28.65 17.1)"/><use xlink:href="#ae" transform="matrix(1,0,0,1,2187.221300869782,1350.3117647058823) translate(61.55 17.1)"/><use xlink:href="#B" transform="matrix(1,0,0,1,2045,1382.3117647058823) translate(36.525 17.1)"/><use xlink:href="#C" transform="matrix(1,0,0,1,2187.221300869782,1382.3117647058823) translate(59.55 17.1)"/><path d="M1540 320h340v33h-340z" fill="#fff"/><path d="M1540 352h340v33h-340z" fill="#e6e6e6"/><path d="M1540 384h340v33h-340z" fill="#fff"/><path d="M1540 416h340v32h-340z" fill="#e6e6e6"/><path d="M1540 280h340v40h-340z" fill="#ccc"/><path d="M1540 288c0-4.42 3.58-8 8-8h324c4.42 0 8 3.58 8 8v152c0 4.42-3.58 8-8 8h-324c-4.42 0-8-3.58-8-8zM1540 320h340M1682.22 320v128" stroke="#333" fill="none"/><use xlink:href="#af" transform="matrix(1,0,0,1,1550,279.99999999999994) translate(33.14999999999999 23.6)"/><use xlink:href="#ag" transform="matrix(1,0,0,1,1550,279.99999999999994) translate(100.1 23.6)"/><use xlink:href="#ah" transform="matrix(1,0,0,1,1550,279.99999999999994) translate(211.95 23.6)"/><use xlink:href="#ai" transform="matrix(1,0,0,1,1545,322.49999999999994) translate(40.525 17.1)"/><use xlink:href="#Y" transform="matrix(1,0,0,1,1687.2213008697822,322.49999999999994) translate(87 17.1)"/><use xlink:href="#aj" transform="matrix(1,0,0,1,1545,354.49999999999994) translate(20.549999999999997 17.1)"/><use xlink:href="#q" transform="matrix(1,0,0,1,1687.2213008697822,354.49999999999994) translate(87 17.1)"/><use xlink:href="#K" transform="matrix(1,0,0,1,1545,386.49999999999994) translate(24.599999999999994 17.1)"/><use xlink:href="#q" transform="matrix(1,0,0,1,1687.2213008697822,386.49999999999994) translate(87 17.1)"/><use xlink:href="#B" transform="matrix(1,0,0,1,1545,418.49999999999994) translate(36.525 17.1)"/><use xlink:href="#C" transform="matrix(1,0,0,1,1687.2213008697822,418.49999999999994) translate(59.55 17.1)"/><path d="M2360 640h340v33h-340z" fill="#fff"/><path d="M2360 672h340v33h-340z" fill="#e6e6e6"/><path d="M2360 704h340v33h-340z" fill="#fff"/><path d="M2360 736h340v32h-340z" fill="#e6e6e6"/><path d="M2360 600h340v40h-340z" fill="#ccc"/><path d="M2360 608c0-4.42 3.58-8 8-8h324c4.42 0 8 3.58 8 8v152c0 4.42-3.58 8-8 8h-324c-4.42 0-8-3.58-8-8zM2360 640h340M2502.22 640v128" stroke="#333" fill="none"/><use xlink:href="#ak" transform="matrix(1,0,0,1,2370,600) translate(124.025 23.6)"/><use xlink:href="#aj" transform="matrix(1,0,0,1,2365,642.5) translate(20.549999999999997 17.1)"/><use xlink:href="#q" transform="matrix(1,0,0,1,2507.221300869782,642.5) translate(87 17.1)"/><use xlink:href="#N" transform="matrix(1,0,0,1,2365,674.5) translate(45.55 17.1)"/><use xlink:href="#O" transform="matrix(1,0,0,1,2507.221300869782,674.5) translate(66.55 17.1)"/><use xlink:href="#al" transform="matrix(1,0,0,1,2365,706.5) translate(0.5250000000000057 17.1)"/><use xlink:href="#am" transform="matrix(1,0,0,1,2507.221300869782,706.5) translate(81.525 17.1)"/><use xlink:href="#an" transform="matrix(1,0,0,1,2365,738.5) translate(35.599999999999994 17.1)"/><use xlink:href="#ao" transform="matrix(1,0,0,1,2507.221300869782,738.5) translate(67.025 17.1)"/><path d="M2600 320h340v33h-340z" fill="#fff"/><path d="M2600 352h340v33h-340z" fill="#e6e6e6"/><path d="M2600 384h340v33h-340z" fill="#fff"/><path d="M2600 416h340v32h-340z" fill="#e6e6e6"/><path d="M2600 280h340v40h-340z" fill="#ccc"/><path d="M2600 288c0-4.42 3.58-8 8-8h324c4.42 0 8 3.58 8 8v152c0 4.42-3.58 8-8 8h-324c-4.42 0-8-3.58-8-8zM2600 320h340M2742.22 320v128" stroke="#333" fill="none"/><use xlink:href="#ap" transform="matrix(1,0,0,1,2610,279.99999999999994) translate(56.64999999999999 23.6)"/><use xlink:href="#aq" transform="matrix(1,0,0,1,2610,279.99999999999994) translate(117.55 23.6)"/><use xlink:href="#ar" transform="matrix(1,0,0,1,2610,279.99999999999994) translate(196.45 23.6)"/><use xlink:href="#as" transform="matrix(1,0,0,1,2605,322.49999999999994) translate(32.525 17.1)"/><use xlink:href="#q" transform="matrix(1,0,0,1,2747.221300869782,322.49999999999994) translate(87 17.1)"/><use xlink:href="#N" transform="matrix(1,0,0,1,2605,354.49999999999994) translate(45.55 17.1)"/><use xlink:href="#O" transform="matrix(1,0,0,1,2747.221300869782,354.49999999999994) translate(66.55 17.1)"/><use xlink:href="#at" transform="matrix(1,0,0,1,2605,386.49999999999994) translate(47.025 17.1)"/><use xlink:href="#aa" transform="matrix(1,0,0,1,2747.221300869782,386.49999999999994) translate(63.074999999999996 17.1)"/><use xlink:href="#au" transform="matrix(1,0,0,1,2605,418.49999999999994) translate(39.025 17.1)"/><use xlink:href="#am" transform="matrix(1,0,0,1,2747.221300869782,418.49999999999994) translate(81.525 17.1)"/><path d="M350.5 1241.1v-117.33c0-6.63 5.37-12 12-12h238.1" stroke="#333" fill="none"/><path d="M360.5 1241.1h-20M350.5 1261.1v-20" stroke="#333" fill="#fff"/><path d="M619.78 1121.77l-20-10 20-10" stroke="#333" fill="#fff" fill-opacity="0"/><path d="M619.78 1111.77h-20" stroke="#333" fill="#fff"/><path d="M350.5 1006.77v61c0 6.62 5.37 12 12 12h238.1" stroke="#333" fill="none"/><path d="M340.5 1006.77h20M350.5 986.77v20" stroke="#333" fill="#fff"/><path d="M619.78 1089.77l-20-10 20-10" stroke="#333" fill="#fff" fill-opacity="0"/><path d="M619.78 1079.77h-20" stroke="#333" fill="#fff"/><path d="M1290.5 1503.44v-15.66c0-6.63 5.37-12 12-12h258.1" stroke="#333" fill="none"/><path d="M1300.5 1503.44h-20M1290.5 1523.44v-20" stroke="#333" fill="#fff"/><path d="M1579.78 1485.78l-20-10 20-10" stroke="#333" fill="#fff" fill-opacity="0"/><path d="M1579.78 1475.78h-20" stroke="#333" fill="#fff"/><path d="M1290.5 993.23V1164c0 6.63 5.37 12 12 12h77.6" stroke="#333" fill="none"/><path d="M1280.5 993.23h20M1290.5 973.23v20" stroke="#333" fill="#fff"/><path d="M1399.28 1186l-20-10 20-10" stroke="#333" fill="#fff" fill-opacity="0"/><path d="M1399.28 1176h-20" stroke="#333" fill="#fff"/><path d="M981 1272.1h78.95c.03 0 .05-.02.05-.05 0-.03.02-.05.05-.05h320.04" stroke="#333" fill="none"/><path d="M981 1282.1v-20M961 1272.1h20" stroke="#333" fill="#fff"/><path d="M1399.28 1282l-20-10 20-10" stroke="#333" fill="#fff" fill-opacity="0"/><path d="M1399.28 1272h-20" stroke="#333" fill="#fff"/><path d="M1570 1099.5V771.75c0-6.63-5.37-12-12-12h-76c-6.63 0-12-5.37-12-12V412c0-6.63 5.37-12 12-12h38.1" stroke="#333" fill="none"/><path d="M1580 1099.5h-20M1570 1119.5v-20" stroke="#333" fill="#fff"/><path d="M1539.28 410l-20-10 20-10" stroke="#333" fill="#fff" fill-opacity="0"/><path d="M1539.28 400h-20" stroke="#333" fill="#fff"/><path d="M2019.5 1107.8H1972c-6.63 0-12-5.36-12-12V380c0-6.63-5.37-12-12-12h-48.1" stroke="#333" fill="none"/><path d="M2019.5 1097.8v20M2039.5 1107.8h-20" stroke="#333" fill="#fff"/><path d="M1880.72 358l20 10-20 10" stroke="#333" fill="#fff" fill-opacity="0"/><path d="M1880.72 368h20" stroke="#333" fill="#fff"/><path d="M2244 1031.3V667.93c0-6.63 5.38-12 12-12h84.1" stroke="#333" fill="none"/><path d="M2254 1031.3h-20M2244 1051.3v-20" stroke="#333" fill="#fff"/><path d="M2359.28 665.92l-20-10 20-10" stroke="#333" fill="#fff" fill-opacity="0"/><path d="M2359.28 655.92h-20" stroke="#333" fill="#fff"/><path d="M2530 579.5V347.92c0-6.63 5.37-12 12-12h38.1" stroke="#333" fill="none"/><path d="M2540 579.5h-20M2530 599.5v-20" stroke="#333" fill="#fff"/><path d="M2599.28 345.92l-20-10 20-10" stroke="#333" fill="#fff" fill-opacity="0"/><path d="M2599.28 335.92h-20" stroke="#333" fill="#fff"/><path d="M790.5 1308.27v265.5c0 6.62 5.37 12 12 12h298.1" stroke="#333" fill="none"/><path d="M780.5 1308.27h20M790.5 1288.27v20" stroke="#333" fill="#fff"/><path d="M1119.78 1595.77l-20-10 20-10" stroke="#333" fill="#fff" fill-opacity="0"/><path d="M1119.78 1585.77h-20" stroke="#333" fill="#fff"/><path d="M2200 20h200v33h-200z" fill="#fff"/><path d="M2200 52h200v32h-200z" fill="#e6e6e6"/><path d="M2200-20h200v40h-200z" fill="#ccc"/><path d="M2200-12c0-4.42 3.58-8 8-8h184c4.42 0 8 3.58 8 8v88c0 4.42-3.58 8-8 8h-184c-4.42 0-8-3.58-8-8zM2200 20h200M2294.17 20v64" stroke="#333" fill="none"/><use xlink:href="#af" transform="matrix(1,0,0,1,2210,-20) translate(28.574999999999996 23.6)"/><use xlink:href="#av" transform="matrix(1,0,0,1,2210,-20) translate(95.525 23.6)"/><use xlink:href="#aw" transform="matrix(1,0,0,1,2205,22.5) translate(12.524999999999999 17.1)"/><use xlink:href="#q" transform="matrix(1,0,0,1,2299.166666666667,22.5) translate(41 17.1)"/><use xlink:href="#ax" transform="matrix(1,0,0,1,2205,54.5) translate(16.525 17.1)"/><use xlink:href="#q" transform="matrix(1,0,0,1,2299.166666666667,54.5) translate(41 17.1)"/><path d="M1900.5 336H2028c6.63 0 12-5.37 12-12V48c0-6.63 5.37-12 12-12h128.1" stroke="#333" fill="none"/><path d="M1900.5 346v-20M1880.5 336h20" stroke="#333" fill="#fff"/><path d="M2199.28 46l-20-10 20-10" stroke="#333" fill="#fff" fill-opacity="0"/><path d="M2199.28 36h-20" stroke="#333" fill="#fff"/><path d="M2770 259.5V80.18c0-6.63-5.37-12-12-12h-338.1" stroke="#333" fill="none"/><path d="M2780 259.5h-20M2770 279.5v-20" stroke="#333" fill="#fff"/><path d="M2400.72 58.18l20 10-20 10" stroke="#333" fill="#fff" fill-opacity="0"/><path d="M2400.72 68.18h20" stroke="#333" fill="#fff"/><path d="M832 1308.27V1348c0 6.63 5.37 12 12 12h1014c6.63 0 12-5.37 12-12v-196.46c0-6.63 5.37-12 12-12h138.1" stroke="#333" fill="none"/><path d="M822 1308.27h20M832 1288.27v20" stroke="#333" fill="#fff"/><path d="M2039.28 1149.54l-20-10 20-10" stroke="#333" fill="#fff" fill-opacity="0"/><path d="M2039.28 1139.54h-20" stroke="#333" fill="#fff"/><defs><path fill="#a9afb8" d="M25-224v-37h50v37H25zM25 0v-190h50V0H25" id="ay"/><path fill="#a9afb8" d="M24 0v-248h52v208h133V0H24" id="az"/><path fill="#a9afb8" d="M185-48c-13 30-37 53-82 52C43 2 14-33 14-96s30-98 90-98c62 0 83 45 84 108H66c0 31 8 55 39 56 18 0 30-7 34-22zm-45-69c5-46-57-63-70-21-2 6-4 13-4 21h74" id="aA"/><path fill="#a9afb8" d="M133-34C117-15 103 5 69 4 32 3 11-16 11-54c-1-60 55-63 116-61 1-26-3-47-28-47-18 1-26 9-28 27l-52-2c7-38 36-58 82-57s74 22 75 68l1 82c-1 14 12 18 25 15v27c-30 8-71 5-69-32zm-48 3c29 0 43-24 42-57-32 0-66-3-65 30 0 17 8 27 23 27" id="aB"/><path fill="#a9afb8" d="M135-150c-39-12-60 13-60 57V0H25l-1-190h47c2 13-1 29 3 40 6-28 27-53 61-41v41" id="aC"/><path fill="#a9afb8" d="M135-194c87-1 58 113 63 194h-50c-7-57 23-157-34-157-59 0-34 97-39 157H25l-1-190h47c2 12-1 28 3 38 12-26 28-41 61-42" id="aD"/><g id="a"><use transform="matrix(0.0728395061728395,0,0,0.0728395061728395,0,0)" xlink:href="#ay"/><use transform="matrix(0.0728395061728395,0,0,0.0728395061728395,7.28395061728395,0)" xlink:href="#az"/><use transform="matrix(0.0728395061728395,0,0,0.0728395061728395,23.235802469135802,0)" xlink:href="#aA"/><use transform="matrix(0.0728395061728395,0,0,0.0728395061728395,37.803703703703704,0)" xlink:href="#aB"/><use transform="matrix(0.0728395061728395,0,0,0.0728395061728395,52.3716049382716,0)" xlink:href="#aC"/><use transform="matrix(0.0728395061728395,0,0,0.0728395061728395,62.569135802469134,0)" xlink:href="#aD"/></g><path fill="#a9afb8" d="M24-248c120-7 223 5 221 122C244-46 201 0 124 0H24v-248zM76-40c74 7 117-18 117-86 0-67-45-88-117-82v168" id="aE"/><path fill="#a9afb8" d="M115-3C79 11 28 4 28-45v-112H4v-33h27l15-45h31v45h36v33H77v99c-1 23 16 31 38 25v30" id="aF"/><path fill="#a9afb8" d="M135-194c52 0 70 43 70 98 0 56-19 99-73 100-30 1-46-15-58-35L72 0H24l1-261h50v104c11-23 29-37 60-37zM114-30c31 0 40-27 40-66 0-37-7-63-39-63s-41 28-41 65c0 36 8 64 40 64" id="aG"/><path fill="#a9afb8" d="M137-138c1-29-70-34-71-4 15 46 118 7 119 86 1 83-164 76-172 9l43-7c4 19 20 25 44 25 33 8 57-30 24-41C81-84 22-81 20-136c-2-80 154-74 161-7" id="aH"/><g id="b"><use transform="matrix(0.0728395061728395,0,0,0.0728395061728395,0,0)" xlink:href="#aE"/><use transform="matrix(0.0728395061728395,0,0,0.0728395061728395,18.86543209876543,0)" xlink:href="#aB"/><use transform="matrix(0.0728395061728395,0,0,0.0728395061728395,33.43333333333333,0)" xlink:href="#aF"/><use transform="matrix(0.0728395061728395,0,0,0.0728395061728395,42.10123456790124,0)" xlink:href="#aB"/><use transform="matrix(0.0728395061728395,0,0,0.0728395061728395,56.66913580246913,0)" xlink:href="#aG"/><use transform="matrix(0.0728395061728395,0,0,0.0728395061728395,72.62098765432098,0)" xlink:href="#aB"/><use transform="matrix(0.0728395061728395,0,0,0.0728395061728395,87.18888888888888,0)" xlink:href="#aH"/><use transform="matrix(0.0728395061728395,0,0,0.0728395061728395,101.75679012345678,0)" xlink:href="#aA"/></g><path fill="#a9afb8" d="M30-248c87 1 191-15 191 75 0 78-77 80-158 76V0H30v-248zm33 125c57 0 124 11 124-50 0-59-68-47-124-48v98" id="aI"/><path fill="#a9afb8" d="M100-194c63 0 86 42 84 106H49c0 40 14 67 53 68 26 1 43-12 49-29l28 8c-11 28-37 45-77 45C44 4 14-33 15-96c1-61 26-98 85-98zm52 81c6-60-76-77-97-28-3 7-6 17-6 28h103" id="aJ"/><path fill="#a9afb8" d="M59-47c-2 24 18 29 38 22v24C64 9 27 4 27-40v-127H5v-23h24l9-43h21v43h35v23H59v120" id="aK"/><path fill="#a9afb8" d="M114-163C36-179 61-72 57 0H25l-1-190h30c1 12-1 29 2 39 6-27 23-49 58-41v29" id="aL"/><g id="c"><use transform="matrix(0.04248971193415638,0,0,0.04248971193415638,0,0)" xlink:href="#aI"/><use transform="matrix(0.04248971193415638,0,0,0.04248971193415638,10.19753086419753,0)" xlink:href="#aJ"/><use transform="matrix(0.04248971193415638,0,0,0.04248971193415638,18.695473251028805,0)" xlink:href="#aK"/><use transform="matrix(0.04248971193415638,0,0,0.04248971193415638,22.944444444444443,0)" xlink:href="#aJ"/><use transform="matrix(0.04248971193415638,0,0,0.04248971193415638,31.44238683127572,0)" xlink:href="#aL"/></g><path fill="#a9afb8" d="M205 0l-28-72H64L36 0H1l101-248h38L239 0h-34zm-38-99l-47-123c-12 45-31 82-46 123h93" id="aM"/><path fill="#a9afb8" d="M24 0v-261h32V0H24" id="aN"/><path fill="#a9afb8" d="M141-36C126-15 110 5 73 4 37 3 15-17 15-53c-1-64 63-63 125-63 3-35-9-54-41-54-24 1-41 7-42 31l-33-3c5-37 33-52 76-52 45 0 72 20 72 64v82c-1 20 7 32 28 27v20c-31 9-61-2-59-35zM48-53c0 20 12 33 32 33 41-3 63-29 60-74-43 2-92-5-92 41" id="aO"/><path fill="#a9afb8" d="M115-194c53 0 69 39 70 98 0 66-23 100-70 100C84 3 66-7 56-30L54 0H23l1-261h32v101c10-23 28-34 59-34zm-8 174c40 0 45-34 45-75 0-40-5-75-45-74-42 0-51 32-51 76 0 43 10 73 51 73" id="aP"/><path fill="#a9afb8" d="M24-231v-30h32v30H24zM24 0v-190h32V0H24" id="aQ"/><g id="d"><use transform="matrix(0.04248971193415638,0,0,0.04248971193415638,0,0)" xlink:href="#aM"/><use transform="matrix(0.04248971193415638,0,0,0.04248971193415638,10.19753086419753,0)" xlink:href="#aN"/><use transform="matrix(0.04248971193415638,0,0,0.04248971193415638,13.554218106995881,0)" xlink:href="#aO"/><use transform="matrix(0.04248971193415638,0,0,0.04248971193415638,22.05216049382716,0)" xlink:href="#aP"/><use transform="matrix(0.04248971193415638,0,0,0.04248971193415638,30.550102880658436,0)" xlink:href="#aQ"/></g><path fill="#a9afb8" d="M32 76v-337h29V76H32" id="aR"/><use transform="matrix(0.04248971193415638,0,0,0.04248971193415638,0,0)" xlink:href="#aR" id="e"/><path fill="#a9afb8" d="M30-248c118-7 216 8 213 122C240-48 200 0 122 0H30v-248zM63-27c89 8 146-16 146-99s-60-101-146-95v194" id="aS"/><path fill="#a9afb8" d="M96-169c-40 0-48 33-48 73s9 75 48 75c24 0 41-14 43-38l32 2c-6 37-31 61-74 61-59 0-76-41-82-99-10-93 101-131 147-64 4 7 5 14 7 22l-32 3c-4-21-16-35-41-35" id="aT"/><path fill="#a9afb8" d="M210-169c-67 3-38 105-44 169h-31v-121c0-29-5-50-35-48C34-165 62-65 56 0H25l-1-190h30c1 10-1 24 2 32 10-44 99-50 107 0 11-21 27-35 58-36 85-2 47 119 55 194h-31v-121c0-29-5-49-35-48" id="aU"/><g id="f"><use transform="matrix(0.04248971193415638,0,0,0.04248971193415638,0,0)" xlink:href="#aS"/><use transform="matrix(0.04248971193415638,0,0,0.04248971193415638,11.004835390946502,0)" xlink:href="#aJ"/><use transform="matrix(0.04248971193415638,0,0,0.04248971193415638,19.502777777777776,0)" xlink:href="#aT"/><use transform="matrix(0.04248971193415638,0,0,0.04248971193415638,27.150925925925925,0)" xlink:href="#aJ"/><use transform="matrix(0.04248971193415638,0,0,0.04248971193415638,35.6488683127572,0)" xlink:href="#aU"/><use transform="matrix(0.04248971193415638,0,0,0.04248971193415638,48.35329218106995,0)" xlink:href="#aP"/><use transform="matrix(0.04248971193415638,0,0,0.04248971193415638,56.851234567901244,0)" xlink:href="#aJ"/><use transform="matrix(0.04248971193415638,0,0,0.04248971193415638,65.34917695473251,0)" xlink:href="#aL"/></g><path fill="#a9afb8" d="M27 0v-27h64v-190l-56 39v-29l58-41h29v221h61V0H27" id="aV"/><path fill="#a9afb8" d="M68-38c1 34 0 65-14 84H32c9-13 17-26 17-46H33v-38h35" id="aW"/><g id="g"><use transform="matrix(0.04248971193415638,0,0,0.04248971193415638,0,0)" xlink:href="#aV"/><use transform="matrix(0.04248971193415638,0,0,0.04248971193415638,7.350720164609052,0)" xlink:href="#aV"/><use transform="matrix(0.04248971193415638,0,0,0.04248971193415638,15.848662551440325,0)" xlink:href="#aW"/></g><path fill="#a9afb8" d="M101-251c82-7 93 87 43 132L82-64C71-53 59-42 53-27h129V0H18c2-99 128-94 128-182 0-28-16-43-45-43s-46 15-49 41l-32-3c6-41 34-60 81-64" id="aX"/><path fill="#a9afb8" d="M101-251c68 0 85 55 85 127S166 4 100 4C33 4 14-52 14-124c0-73 17-127 87-127zm-1 229c47 0 54-49 54-102s-4-102-53-102c-51 0-55 48-55 102 0 53 5 102 54 102" id="aY"/><g id="h"><use transform="matrix(0.04248971193415638,0,0,0.04248971193415638,0,0)" xlink:href="#aX"/><use transform="matrix(0.04248971193415638,0,0,0.04248971193415638,8.497942386831275,0)" xlink:href="#aY"/><use transform="matrix(0.04248971193415638,0,0,0.04248971193415638,16.99588477366255,0)" xlink:href="#aX"/><use transform="matrix(0.04248971193415638,0,0,0.04248971193415638,25.493827160493822,0)" xlink:href="#aV"/></g><path fill="#333" d="M232-93c-1 65-40 97-104 97C67 4 28-28 28-90v-158h33c8 89-33 224 67 224 102 0 64-133 71-224h33v155" id="aZ"/><path fill="#333" d="M135-143c-3-34-86-38-87 0 15 53 115 12 119 90S17 21 10-45l28-5c4 36 97 45 98 0-10-56-113-15-118-90-4-57 82-63 122-42 12 7 21 19 24 35" id="ba"/><path fill="#333" d="M100-194c63 0 86 42 84 106H49c0 40 14 67 53 68 26 1 43-12 49-29l28 8c-11 28-37 45-77 45C44 4 14-33 15-96c1-61 26-98 85-98zm52 81c6-60-76-77-97-28-3 7-6 17-6 28h103" id="bb"/><path fill="#333" d="M114-163C36-179 61-72 57 0H25l-1-190h30c1 12-1 29 2 39 6-27 23-49 58-41v29" id="bc"/><g id="i"><use transform="matrix(0.05,0,0,0.05,0,0)" xlink:href="#aZ"/><use transform="matrix(0.05,0,0,0.05,12.950000000000001,0)" xlink:href="#ba"/><use transform="matrix(0.05,0,0,0.05,21.950000000000003,0)" xlink:href="#bb"/><use transform="matrix(0.05,0,0,0.05,31.950000000000003,0)" xlink:href="#bc"/></g><path fill="#333" d="M84 4C-5 8 30-112 23-190h32v120c0 31 7 50 39 49 72-2 45-101 50-169h31l1 190h-30c-1-10 1-25-2-33-11 22-28 36-60 37" id="bd"/><path fill="#333" d="M117-194c89-4 53 116 60 194h-32v-121c0-31-8-49-39-48C34-167 62-67 57 0H25l-1-190h30c1 10-1 24 2 32 11-22 29-35 61-36" id="be"/><path fill="#333" d="M141-36C126-15 110 5 73 4 37 3 15-17 15-53c-1-64 63-63 125-63 3-35-9-54-41-54-24 1-41 7-42 31l-33-3c5-37 33-52 76-52 45 0 72 20 72 64v82c-1 20 7 32 28 27v20c-31 9-61-2-59-35zM48-53c0 20 12 33 32 33 41-3 63-29 60-74-43 2-92-5-92 41" id="bf"/><path fill="#333" d="M210-169c-67 3-38 105-44 169h-31v-121c0-29-5-50-35-48C34-165 62-65 56 0H25l-1-190h30c1 10-1 24 2 32 10-44 99-50 107 0 11-21 27-35 58-36 85-2 47 119 55 194h-31v-121c0-29-5-49-35-48" id="bg"/><g id="j"><use transform="matrix(0.05,0,0,0.05,0,0)" xlink:href="#bd"/><use transform="matrix(0.05,0,0,0.05,10,0)" xlink:href="#ba"/><use transform="matrix(0.05,0,0,0.05,19,0)" xlink:href="#bb"/><use transform="matrix(0.05,0,0,0.05,29,0)" xlink:href="#bc"/><use transform="matrix(0.05,0,0,0.05,34.95,0)" xlink:href="#be"/><use transform="matrix(0.05,0,0,0.05,44.95,0)" xlink:href="#bf"/><use transform="matrix(0.05,0,0,0.05,54.95,0)" xlink:href="#bg"/><use transform="matrix(0.05,0,0,0.05,69.9,0)" xlink:href="#bb"/></g><path fill="#333" d="M96-169c-40 0-48 33-48 73s9 75 48 75c24 0 41-14 43-38l32 2c-6 37-31 61-74 61-59 0-76-41-82-99-10-93 101-131 147-64 4 7 5 14 7 22l-32 3c-4-21-16-35-41-35" id="bh"/><path fill="#333" d="M106-169C34-169 62-67 57 0H25v-261h32l-1 103c12-21 28-36 61-36 89 0 53 116 60 194h-32v-121c2-32-8-49-39-48" id="bi"/><g id="k"><use transform="matrix(0.05,0,0,0.05,0,0)" xlink:href="#bh"/><use transform="matrix(0.05,0,0,0.05,9,0)" xlink:href="#bi"/><use transform="matrix(0.05,0,0,0.05,19,0)" xlink:href="#bf"/><use transform="matrix(0.05,0,0,0.05,29,0)" xlink:href="#bc"/></g><path fill="#333" d="M101-234c-31-9-42 10-38 44h38v23H63V0H32v-167H5v-23h27c-7-52 17-82 69-68v24" id="bj"/><path fill="#333" d="M24-231v-30h32v30H24zM24 0v-190h32V0H24" id="bk"/><g id="l"><use transform="matrix(0.05,0,0,0.05,0,0)" xlink:href="#bj"/><use transform="matrix(0.05,0,0,0.05,5,0)" xlink:href="#bk"/><use transform="matrix(0.05,0,0,0.05,8.95,0)" xlink:href="#bc"/><use transform="matrix(0.05,0,0,0.05,14.899999999999999,0)" xlink:href="#ba"/><use transform="matrix(0.05,0,0,0.05,23.9,0)" xlink:href="#be"/><use transform="matrix(0.05,0,0,0.05,33.9,0)" xlink:href="#bf"/><use transform="matrix(0.05,0,0,0.05,43.9,0)" xlink:href="#bg"/><use transform="matrix(0.05,0,0,0.05,58.85,0)" xlink:href="#bb"/></g><path fill="#333" d="M24 0v-261h32V0H24" id="bl"/><path fill="#333" d="M59-47c-2 24 18 29 38 22v24C64 9 27 4 27-40v-127H5v-23h24l9-43h21v43h35v23H59v120" id="bm"/><g id="m"><use transform="matrix(0.05,0,0,0.05,0,0)" xlink:href="#bl"/><use transform="matrix(0.05,0,0,0.05,3.95,0)" xlink:href="#bf"/><use transform="matrix(0.05,0,0,0.05,13.949999999999998,0)" xlink:href="#ba"/><use transform="matrix(0.05,0,0,0.05,22.95,0)" xlink:href="#bm"/><use transform="matrix(0.05,0,0,0.05,27.950000000000003,0)" xlink:href="#be"/><use transform="matrix(0.05,0,0,0.05,37.95,0)" xlink:href="#bf"/><use transform="matrix(0.05,0,0,0.05,47.95,0)" xlink:href="#bg"/><use transform="matrix(0.05,0,0,0.05,62.900000000000006,0)" xlink:href="#bb"/></g><path fill="#333" d="M115-194c55 1 70 41 70 98S169 2 115 4C84 4 66-9 55-30l1 105H24l-1-265h31l2 30c10-21 28-34 59-34zm-8 174c40 0 45-34 45-75s-6-73-45-74c-42 0-51 32-51 76 0 43 10 73 51 73" id="bn"/><path fill="#333" d="M206 0h-36l-40-164L89 0H53L-1-190h32L70-26l43-164h34l41 164 42-164h31" id="bo"/><path fill="#333" d="M100-194c62-1 85 37 85 99 1 63-27 99-86 99S16-35 15-95c0-66 28-99 85-99zM99-20c44 1 53-31 53-75 0-43-8-75-51-75s-53 32-53 75 10 74 51 75" id="bp"/><path fill="#333" d="M85-194c31 0 48 13 60 33l-1-100h32l1 261h-30c-2-10 0-23-3-31C134-8 116 4 85 4 32 4 16-35 15-94c0-66 23-100 70-100zm9 24c-40 0-46 34-46 75 0 40 6 74 45 74 42 0 51-32 51-76 0-42-9-74-50-73" id="bq"/><g id="n"><use transform="matrix(0.05,0,0,0.05,0,0)" xlink:href="#bn"/><use transform="matrix(0.05,0,0,0.05,10,0)" xlink:href="#bf"/><use transform="matrix(0.05,0,0,0.05,20,0)" xlink:href="#ba"/><use transform="matrix(0.05,0,0,0.05,29,0)" xlink:href="#ba"/><use transform="matrix(0.05,0,0,0.05,38,0)" xlink:href="#bo"/><use transform="matrix(0.05,0,0,0.05,50.95,0)" xlink:href="#bp"/><use transform="matrix(0.05,0,0,0.05,60.95,0)" xlink:href="#bc"/><use transform="matrix(0.05,0,0,0.05,66.9,0)" xlink:href="#bq"/></g><path fill="#333" d="M185-189c-5-48-123-54-124 2 14 75 158 14 163 119 3 78-121 87-175 55-17-10-28-26-33-46l33-7c5 56 141 63 141-1 0-78-155-14-162-118-5-82 145-84 179-34 5 7 8 16 11 25" id="br"/><g id="o"><use transform="matrix(0.05,0,0,0.05,0,0)" xlink:href="#br"/><use transform="matrix(0.05,0,0,0.05,12,0)" xlink:href="#bm"/><use transform="matrix(0.05,0,0,0.05,17,0)" xlink:href="#bd"/><use transform="matrix(0.05,0,0,0.05,27,0)" xlink:href="#bq"/><use transform="matrix(0.05,0,0,0.05,37,0)" xlink:href="#bb"/><use transform="matrix(0.05,0,0,0.05,47,0)" xlink:href="#be"/><use transform="matrix(0.05,0,0,0.05,57,0)" xlink:href="#bm"/></g><g id="p"><use transform="matrix(0.05,0,0,0.05,0,0)" xlink:href="#bd"/><use transform="matrix(0.05,0,0,0.05,10,0)" xlink:href="#ba"/><use transform="matrix(0.05,0,0,0.05,19,0)" xlink:href="#bb"/><use transform="matrix(0.05,0,0,0.05,29,0)" xlink:href="#bc"/></g><path fill="#333" d="M143 0L79-87 56-68V0H24v-261h32v163l83-92h37l-77 82L181 0h-38" id="bs"/><g id="q"><use transform="matrix(0.05,0,0,0.05,0,0)" xlink:href="#bj"/><use transform="matrix(0.05,0,0,0.05,5,0)" xlink:href="#bs"/></g><path fill="#333" d="M177-190C167-65 218 103 67 71c-23-6-38-20-44-43l32-5c15 47 100 32 89-28v-30C133-14 115 1 83 1 29 1 15-40 15-95c0-56 16-97 71-98 29-1 48 16 59 35 1-10 0-23 2-32h30zM94-22c36 0 50-32 50-73 0-42-14-75-50-75-39 0-46 34-46 75s6 73 46 73" id="bt"/><g id="r"><use transform="matrix(0.05,0,0,0.05,0,0)" xlink:href="#bt"/><use transform="matrix(0.05,0,0,0.05,10,0)" xlink:href="#bb"/><use transform="matrix(0.05,0,0,0.05,20,0)" xlink:href="#be"/><use transform="matrix(0.05,0,0,0.05,30,0)" xlink:href="#bq"/><use transform="matrix(0.05,0,0,0.05,40,0)" xlink:href="#bb"/><use transform="matrix(0.05,0,0,0.05,50,0)" xlink:href="#bc"/></g><path fill="#333" d="M-5 72V49h209v23H-5" id="bu"/><path fill="#333" d="M115-194c53 0 69 39 70 98 0 66-23 100-70 100C84 3 66-7 56-30L54 0H23l1-261h32v101c10-23 28-34 59-34zm-8 174c40 0 45-34 45-75 0-40-5-75-45-74-42 0-51 32-51 76 0 43 10 73 51 73" id="bv"/><g id="s"><use transform="matrix(0.05,0,0,0.05,0,0)" xlink:href="#bq"/><use transform="matrix(0.05,0,0,0.05,10,0)" xlink:href="#bf"/><use transform="matrix(0.05,0,0,0.05,20,0)" xlink:href="#bm"/><use transform="matrix(0.05,0,0,0.05,25,0)" xlink:href="#bb"/><use transform="matrix(0.05,0,0,0.05,35,0)" xlink:href="#bu"/><use transform="matrix(0.05,0,0,0.05,45,0)" xlink:href="#bp"/><use transform="matrix(0.05,0,0,0.05,55,0)" xlink:href="#bj"/><use transform="matrix(0.05,0,0,0.05,60,0)" xlink:href="#bu"/><use transform="matrix(0.05,0,0,0.05,70,0)" xlink:href="#bv"/><use transform="matrix(0.05,0,0,0.05,80,0)" xlink:href="#bk"/><use transform="matrix(0.05,0,0,0.05,83.95,0)" xlink:href="#bc"/><use transform="matrix(0.05,0,0,0.05,89.9,0)" xlink:href="#bm"/><use transform="matrix(0.05,0,0,0.05,94.9,0)" xlink:href="#bi"/></g><g id="t"><use transform="matrix(0.05,0,0,0.05,0,0)" xlink:href="#bn"/><use transform="matrix(0.05,0,0,0.05,10,0)" xlink:href="#bi"/><use transform="matrix(0.05,0,0,0.05,20,0)" xlink:href="#bp"/><use transform="matrix(0.05,0,0,0.05,30,0)" xlink:href="#bm"/><use transform="matrix(0.05,0,0,0.05,35,0)" xlink:href="#bp"/></g><g id="u"><use transform="matrix(0.05,0,0,0.05,0,0)" xlink:href="#bv"/><use transform="matrix(0.05,0,0,0.05,10,0)" xlink:href="#bl"/><use transform="matrix(0.05,0,0,0.05,13.949999999999998,0)" xlink:href="#bp"/><use transform="matrix(0.05,0,0,0.05,23.95,0)" xlink:href="#bv"/></g><path fill="#333" d="M33 0v-248h34V0H33" id="bw"/><g id="v"><use transform="matrix(0.05,0,0,0.05,0,0)" xlink:href="#bw"/><use transform="matrix(0.05,0,0,0.05,5,0)" xlink:href="#be"/><use transform="matrix(0.05,0,0,0.05,15,0)" xlink:href="#ba"/><use transform="matrix(0.05,0,0,0.05,24,0)" xlink:href="#bm"/><use transform="matrix(0.05,0,0,0.05,29,0)" xlink:href="#bc"/><use transform="matrix(0.05,0,0,0.05,34.95,0)" xlink:href="#bd"/><use transform="matrix(0.05,0,0,0.05,44.95,0)" xlink:href="#bh"/><use transform="matrix(0.05,0,0,0.05,53.95,0)" xlink:href="#bm"/><use transform="matrix(0.05,0,0,0.05,58.95,0)" xlink:href="#bp"/><use transform="matrix(0.05,0,0,0.05,68.95,0)" xlink:href="#bc"/></g><path fill="#333" d="M24-231v-30h32v30H24zM-9 49c24 4 33-6 33-30v-209h32V24c2 40-23 58-65 49V49" id="bx"/><g id="w"><use transform="matrix(0.05,0,0,0.05,0,0)" xlink:href="#br"/><use transform="matrix(0.05,0,0,0.05,12,0)" xlink:href="#bd"/><use transform="matrix(0.05,0,0,0.05,22,0)" xlink:href="#bv"/><use transform="matrix(0.05,0,0,0.05,32,0)" xlink:href="#bx"/><use transform="matrix(0.05,0,0,0.05,35.95,0)" xlink:href="#bb"/><use transform="matrix(0.05,0,0,0.05,45.95,0)" xlink:href="#bh"/><use transform="matrix(0.05,0,0,0.05,54.95,0)" xlink:href="#bm"/></g><g id="x"><use transform="matrix(0.05,0,0,0.05,0,0)" xlink:href="#bm"/><use transform="matrix(0.05,0,0,0.05,5,0)" xlink:href="#bk"/><use transform="matrix(0.05,0,0,0.05,8.95,0)" xlink:href="#bm"/><use transform="matrix(0.05,0,0,0.05,13.949999999999998,0)" xlink:href="#bl"/><use transform="matrix(0.05,0,0,0.05,17.9,0)" xlink:href="#bb"/></g><g id="y"><use transform="matrix(0.05,0,0,0.05,0,0)" xlink:href="#ba"/><use transform="matrix(0.05,0,0,0.05,9,0)" xlink:href="#bl"/><use transform="matrix(0.05,0,0,0.05,12.949999999999998,0)" xlink:href="#bd"/><use transform="matrix(0.05,0,0,0.05,22.95,0)" xlink:href="#bt"/></g><path fill="#333" d="M30 0v-248h187v28H63v79h144v27H63v87h162V0H30" id="by"/><g id="z"><use transform="matrix(0.05,0,0,0.05,0,0)" xlink:href="#by"/><use transform="matrix(0.05,0,0,0.05,12,0)" xlink:href="#be"/><use transform="matrix(0.05,0,0,0.05,22,0)" xlink:href="#bc"/><use transform="matrix(0.05,0,0,0.05,27.950000000000003,0)" xlink:href="#bp"/><use transform="matrix(0.05,0,0,0.05,37.95,0)" xlink:href="#bl"/><use transform="matrix(0.05,0,0,0.05,41.900000000000006,0)" xlink:href="#bl"/><use transform="matrix(0.05,0,0,0.05,45.85000000000001,0)" xlink:href="#bg"/><use transform="matrix(0.05,0,0,0.05,60.80000000000001,0)" xlink:href="#bb"/><use transform="matrix(0.05,0,0,0.05,70.80000000000001,0)" xlink:href="#be"/><use transform="matrix(0.05,0,0,0.05,80.80000000000001,0)" xlink:href="#bm"/></g><g id="A"><use transform="matrix(0.05,0,0,0.05,0,0)" xlink:href="#ba"/><use transform="matrix(0.05,0,0,0.05,9,0)" xlink:href="#bm"/><use transform="matrix(0.05,0,0,0.05,14,0)" xlink:href="#bd"/><use transform="matrix(0.05,0,0,0.05,24,0)" xlink:href="#bq"/><use transform="matrix(0.05,0,0,0.05,34,0)" xlink:href="#bb"/><use transform="matrix(0.05,0,0,0.05,44,0)" xlink:href="#be"/><use transform="matrix(0.05,0,0,0.05,54,0)" xlink:href="#bm"/></g><g id="B"><use transform="matrix(0.05,0,0,0.05,0,0)" xlink:href="#bh"/><use transform="matrix(0.05,0,0,0.05,9,0)" xlink:href="#bc"/><use transform="matrix(0.05,0,0,0.05,14.949999999999998,0)" xlink:href="#bb"/><use transform="matrix(0.05,0,0,0.05,24.95,0)" xlink:href="#bf"/><use transform="matrix(0.05,0,0,0.05,34.95,0)" xlink:href="#bm"/><use transform="matrix(0.05,0,0,0.05,39.95,0)" xlink:href="#bb"/><use transform="matrix(0.05,0,0,0.05,49.95,0)" xlink:href="#bq"/></g><g id="C"><use transform="matrix(0.05,0,0,0.05,0,0)" xlink:href="#bq"/><use transform="matrix(0.05,0,0,0.05,10,0)" xlink:href="#bf"/><use transform="matrix(0.05,0,0,0.05,20,0)" xlink:href="#bm"/><use transform="matrix(0.05,0,0,0.05,25,0)" xlink:href="#bb"/><use transform="matrix(0.05,0,0,0.05,35,0)" xlink:href="#bm"/><use transform="matrix(0.05,0,0,0.05,40,0)" xlink:href="#bk"/><use transform="matrix(0.05,0,0,0.05,43.95,0)" xlink:href="#bg"/><use transform="matrix(0.05,0,0,0.05,58.900000000000006,0)" xlink:href="#bb"/></g><g id="D"><use transform="matrix(0.05,0,0,0.05,0,0)" xlink:href="#bd"/><use transform="matrix(0.05,0,0,0.05,10,0)" xlink:href="#bn"/><use transform="matrix(0.05,0,0,0.05,20,0)" xlink:href="#bq"/><use transform="matrix(0.05,0,0,0.05,30,0)" xlink:href="#bf"/><use transform="matrix(0.05,0,0,0.05,40,0)" xlink:href="#bm"/><use transform="matrix(0.05,0,0,0.05,45,0)" xlink:href="#bb"/></g><g id="E"><use transform="matrix(0.05,0,0,0.05,0,0)" xlink:href="#bh"/><use transform="matrix(0.05,0,0,0.05,9,0)" xlink:href="#bp"/><use transform="matrix(0.05,0,0,0.05,19,0)" xlink:href="#bd"/><use transform="matrix(0.05,0,0,0.05,29,0)" xlink:href="#bc"/><use transform="matrix(0.05,0,0,0.05,34.95,0)" xlink:href="#ba"/><use transform="matrix(0.05,0,0,0.05,43.95,0)" xlink:href="#bb"/></g><path fill="#333" d="M212-179c-10-28-35-45-73-45-59 0-87 40-87 99 0 60 29 101 89 101 43 0 62-24 78-52l27 14C228-24 195 4 139 4 59 4 22-46 18-125c-6-104 99-153 187-111 19 9 31 26 39 46" id="bz"/><g id="F"><use transform="matrix(0.05,0,0,0.05,0,0)" xlink:href="#bz"/><use transform="matrix(0.05,0,0,0.05,12.950000000000001,0)" xlink:href="#bp"/><use transform="matrix(0.05,0,0,0.05,22.950000000000003,0)" xlink:href="#bd"/><use transform="matrix(0.05,0,0,0.05,32.95,0)" xlink:href="#bc"/><use transform="matrix(0.05,0,0,0.05,38.900000000000006,0)" xlink:href="#ba"/><use transform="matrix(0.05,0,0,0.05,47.900000000000006,0)" xlink:href="#bb"/></g><g id="G"><use transform="matrix(0.05,0,0,0.05,0,0)" xlink:href="#bk"/><use transform="matrix(0.05,0,0,0.05,3.95,0)" xlink:href="#be"/><use transform="matrix(0.05,0,0,0.05,13.949999999999998,0)" xlink:href="#ba"/><use transform="matrix(0.05,0,0,0.05,22.95,0)" xlink:href="#bm"/><use transform="matrix(0.05,0,0,0.05,27.950000000000003,0)" xlink:href="#bc"/><use transform="matrix(0.05,0,0,0.05,33.9,0)" xlink:href="#bd"/><use transform="matrix(0.05,0,0,0.05,43.9,0)" xlink:href="#bh"/><use transform="matrix(0.05,0,0,0.05,52.900000000000006,0)" xlink:href="#bm"/><use transform="matrix(0.05,0,0,0.05,57.900000000000006,0)" xlink:href="#bp"/><use transform="matrix(0.05,0,0,0.05,67.9,0)" xlink:href="#bc"/></g><g id="H"><use transform="matrix(0.05,0,0,0.05,0,0)" xlink:href="#ba"/><use transform="matrix(0.05,0,0,0.05,9,0)" xlink:href="#bd"/><use transform="matrix(0.05,0,0,0.05,19,0)" xlink:href="#bv"/><use transform="matrix(0.05,0,0,0.05,29,0)" xlink:href="#bx"/><use transform="matrix(0.05,0,0,0.05,32.95,0)" xlink:href="#bb"/><use transform="matrix(0.05,0,0,0.05,42.95,0)" xlink:href="#bh"/><use transform="matrix(0.05,0,0,0.05,51.95,0)" xlink:href="#bm"/></g><path fill="#333" d="M108 0H70L1-190h34L89-25l56-165h34" id="bA"/><g id="I"><use transform="matrix(0.05,0,0,0.05,0,0)" xlink:href="#bp"/><use transform="matrix(0.05,0,0,0.05,10,0)" xlink:href="#bA"/><use transform="matrix(0.05,0,0,0.05,19,0)" xlink:href="#bb"/><use transform="matrix(0.05,0,0,0.05,29,0)" xlink:href="#bc"/><use transform="matrix(0.05,0,0,0.05,34.95,0)" xlink:href="#bA"/><use transform="matrix(0.05,0,0,0.05,43.95,0)" xlink:href="#bk"/><use transform="matrix(0.05,0,0,0.05,47.900000000000006,0)" xlink:href="#bb"/><use transform="matrix(0.05,0,0,0.05,57.900000000000006,0)" xlink:href="#bo"/></g><path fill="#333" d="M141 0L90-78 38 0H4l68-98-65-92h35l48 74 47-74h35l-64 92 68 98h-35" id="bB"/><g id="J"><use transform="matrix(0.05,0,0,0.05,0,0)" xlink:href="#bm"/><use transform="matrix(0.05,0,0,0.05,5,0)" xlink:href="#bb"/><use transform="matrix(0.05,0,0,0.05,15,0)" xlink:href="#bB"/><use transform="matrix(0.05,0,0,0.05,24,0)" xlink:href="#bm"/></g><g id="K"><use transform="matrix(0.05,0,0,0.05,0,0)" xlink:href="#bb"/><use transform="matrix(0.05,0,0,0.05,10,0)" xlink:href="#be"/><use transform="matrix(0.05,0,0,0.05,20,0)" xlink:href="#bc"/><use transform="matrix(0.05,0,0,0.05,25.950000000000003,0)" xlink:href="#bp"/><use transform="matrix(0.05,0,0,0.05,35.95,0)" xlink:href="#bl"/><use transform="matrix(0.05,0,0,0.05,39.900000000000006,0)" xlink:href="#bl"/><use transform="matrix(0.05,0,0,0.05,43.85000000000001,0)" xlink:href="#bg"/><use transform="matrix(0.05,0,0,0.05,58.80000000000001,0)" xlink:href="#bb"/><use transform="matrix(0.05,0,0,0.05,68.80000000000001,0)" xlink:href="#be"/><use transform="matrix(0.05,0,0,0.05,78.80000000000001,0)" xlink:href="#bm"/></g><path fill="#333" d="M240 0l2-218c-23 76-54 145-80 218h-23L58-218 59 0H30v-248h44l77 211c21-75 51-140 76-211h43V0h-30" id="bC"/><g id="L"><use transform="matrix(0.05,0,0,0.05,0,0)" xlink:href="#bC"/><use transform="matrix(0.05,0,0,0.05,14.950000000000001,0)" xlink:href="#bp"/><use transform="matrix(0.05,0,0,0.05,24.950000000000003,0)" xlink:href="#bq"/><use transform="matrix(0.05,0,0,0.05,34.95,0)" xlink:href="#bd"/><use transform="matrix(0.05,0,0,0.05,44.95,0)" xlink:href="#bl"/><use transform="matrix(0.05,0,0,0.05,48.900000000000006,0)" xlink:href="#bb"/></g><g id="M"><use transform="matrix(0.05,0,0,0.05,0,0)" xlink:href="#bq"/><use transform="matrix(0.05,0,0,0.05,10,0)" xlink:href="#bb"/><use transform="matrix(0.05,0,0,0.05,20,0)" xlink:href="#ba"/><use transform="matrix(0.05,0,0,0.05,29,0)" xlink:href="#bh"/><use transform="matrix(0.05,0,0,0.05,38,0)" xlink:href="#bc"/><use transform="matrix(0.05,0,0,0.05,43.95,0)" xlink:href="#bk"/><use transform="matrix(0.05,0,0,0.05,47.900000000000006,0)" xlink:href="#bn"/><use transform="matrix(0.05,0,0,0.05,57.900000000000006,0)" xlink:href="#bm"/><use transform="matrix(0.05,0,0,0.05,62.900000000000006,0)" xlink:href="#bk"/><use transform="matrix(0.05,0,0,0.05,66.85000000000001,0)" xlink:href="#bp"/><use transform="matrix(0.05,0,0,0.05,76.85000000000001,0)" xlink:href="#be"/></g><g id="N"><use transform="matrix(0.05,0,0,0.05,0,0)" xlink:href="#bp"/><use transform="matrix(0.05,0,0,0.05,10,0)" xlink:href="#bc"/><use transform="matrix(0.05,0,0,0.05,15.949999999999998,0)" xlink:href="#bq"/><use transform="matrix(0.05,0,0,0.05,25.950000000000003,0)" xlink:href="#bb"/><use transform="matrix(0.05,0,0,0.05,35.95,0)" xlink:href="#bc"/></g><g id="O"><use transform="matrix(0.05,0,0,0.05,0,0)" xlink:href="#bk"/><use transform="matrix(0.05,0,0,0.05,3.95,0)" xlink:href="#be"/><use transform="matrix(0.05,0,0,0.05,13.949999999999998,0)" xlink:href="#bm"/><use transform="matrix(0.05,0,0,0.05,18.95,0)" xlink:href="#bb"/><use transform="matrix(0.05,0,0,0.05,28.950000000000003,0)" xlink:href="#bt"/><use transform="matrix(0.05,0,0,0.05,38.95,0)" xlink:href="#bb"/><use transform="matrix(0.05,0,0,0.05,48.95,0)" xlink:href="#bc"/></g><g id="P"><use transform="matrix(0.05,0,0,0.05,0,0)" xlink:href="#bz"/><use transform="matrix(0.05,0,0,0.05,12.950000000000001,0)" xlink:href="#bp"/><use transform="matrix(0.05,0,0,0.05,22.950000000000003,0)" xlink:href="#be"/><use transform="matrix(0.05,0,0,0.05,32.95,0)" xlink:href="#bm"/><use transform="matrix(0.05,0,0,0.05,37.95,0)" xlink:href="#bb"/><use transform="matrix(0.05,0,0,0.05,47.95,0)" xlink:href="#be"/><use transform="matrix(0.05,0,0,0.05,57.95,0)" xlink:href="#bm"/></g><path fill="#333" d="M87 75C49 33 22-17 22-94c0-76 28-126 65-167h31c-38 41-64 92-64 168S80 34 118 75H87" id="bD"/><g id="Q"><use transform="matrix(0.05,0,0,0.05,0,0)" xlink:href="#bD"/><use transform="matrix(0.05,0,0,0.05,5.95,0)" xlink:href="#bg"/><use transform="matrix(0.05,0,0,0.05,20.900000000000002,0)" xlink:href="#bp"/><use transform="matrix(0.05,0,0,0.05,30.900000000000002,0)" xlink:href="#bq"/><use transform="matrix(0.05,0,0,0.05,40.900000000000006,0)" xlink:href="#bd"/><use transform="matrix(0.05,0,0,0.05,50.900000000000006,0)" xlink:href="#bl"/><use transform="matrix(0.05,0,0,0.05,54.85,0)" xlink:href="#bb"/></g><path fill="#333" d="M33-261c38 41 65 92 65 168S71 34 33 75H2C39 34 66-17 66-93S39-220 2-261h31" id="bE"/><g id="R"><use transform="matrix(0.05,0,0,0.05,0,0)" xlink:href="#bh"/><use transform="matrix(0.05,0,0,0.05,9,0)" xlink:href="#bp"/><use transform="matrix(0.05,0,0,0.05,19,0)" xlink:href="#be"/><use transform="matrix(0.05,0,0,0.05,29,0)" xlink:href="#bm"/><use transform="matrix(0.05,0,0,0.05,34,0)" xlink:href="#bb"/><use transform="matrix(0.05,0,0,0.05,44,0)" xlink:href="#be"/><use transform="matrix(0.05,0,0,0.05,54,0)" xlink:href="#bm"/><use transform="matrix(0.05,0,0,0.05,59,0)" xlink:href="#bE"/></g><g id="S"><use transform="matrix(0.05,0,0,0.05,0,0)" xlink:href="#bg"/><use transform="matrix(0.05,0,0,0.05,14.950000000000001,0)" xlink:href="#bp"/><use transform="matrix(0.05,0,0,0.05,24.950000000000003,0)" xlink:href="#bq"/><use transform="matrix(0.05,0,0,0.05,34.95,0)" xlink:href="#bd"/><use transform="matrix(0.05,0,0,0.05,44.95,0)" xlink:href="#bl"/><use transform="matrix(0.05,0,0,0.05,48.900000000000006,0)" xlink:href="#bb"/></g><g id="T"><use transform="matrix(0.05,0,0,0.05,0,0)" xlink:href="#bk"/><use transform="matrix(0.05,0,0,0.05,3.95,0)" xlink:href="#bm"/><use transform="matrix(0.05,0,0,0.05,8.95,0)" xlink:href="#bb"/><use transform="matrix(0.05,0,0,0.05,18.95,0)" xlink:href="#bg"/></g><path fill="#333" d="M137 0h-34L2-248h35l83 218 83-218h36" id="bF"/><g id="U"><use transform="matrix(0.05,0,0,0.05,0,0)" xlink:href="#bF"/><use transform="matrix(0.05,0,0,0.05,10.65,0)" xlink:href="#bf"/><use transform="matrix(0.05,0,0,0.05,20.65,0)" xlink:href="#bc"/><use transform="matrix(0.05,0,0,0.05,26.599999999999994,0)" xlink:href="#bk"/><use transform="matrix(0.05,0,0,0.05,30.549999999999997,0)" xlink:href="#bb"/><use transform="matrix(0.05,0,0,0.05,40.55,0)" xlink:href="#bq"/></g><g id="V"><use transform="matrix(0.05,0,0,0.05,0,0)" xlink:href="#bd"/><use transform="matrix(0.05,0,0,0.05,10,0)" xlink:href="#bn"/><use transform="matrix(0.05,0,0,0.05,20,0)" xlink:href="#bq"/><use transform="matrix(0.05,0,0,0.05,30,0)" xlink:href="#bf"/><use transform="matrix(0.05,0,0,0.05,40,0)" xlink:href="#bm"/><use transform="matrix(0.05,0,0,0.05,45,0)" xlink:href="#bb"/><use transform="matrix(0.05,0,0,0.05,55,0)" xlink:href="#bq"/></g><path fill="#333" d="M205 0l-28-72H64L36 0H1l101-248h38L239 0h-34zm-38-99l-47-123c-12 45-31 82-46 123h93" id="bG"/><g id="W"><use transform="matrix(0.05,0,0,0.05,0,0)" xlink:href="#bG"/><use transform="matrix(0.05,0,0,0.05,12,0)" xlink:href="#ba"/><use transform="matrix(0.05,0,0,0.05,21,0)" xlink:href="#ba"/><use transform="matrix(0.05,0,0,0.05,30,0)" xlink:href="#bk"/><use transform="matrix(0.05,0,0,0.05,33.95,0)" xlink:href="#bt"/><use transform="matrix(0.05,0,0,0.05,43.95,0)" xlink:href="#be"/><use transform="matrix(0.05,0,0,0.05,53.95,0)" xlink:href="#bg"/><use transform="matrix(0.05,0,0,0.05,68.9,0)" xlink:href="#bb"/><use transform="matrix(0.05,0,0,0.05,78.9,0)" xlink:href="#be"/><use transform="matrix(0.05,0,0,0.05,88.9,0)" xlink:href="#bm"/></g><path d="M141-36C126-15 110 5 73 4 37 3 15-17 15-53c-1-64 63-63 125-63 3-35-9-54-41-54-24 1-41 7-42 31l-33-3c5-37 33-52 76-52 45 0 72 20 72 64v82c-1 20 7 32 28 27v20c-31 9-61-2-59-35zM48-53c0 20 12 33 32 33 41-3 63-29 60-74-43 2-92-5-92 41" id="bH"/><path d="M59-47c-2 24 18 29 38 22v24C64 9 27 4 27-40v-127H5v-23h24l9-43h21v43h35v23H59v120" id="bI"/><path d="M100-194c63 0 86 42 84 106H49c0 40 14 67 53 68 26 1 43-12 49-29l28 8c-11 28-37 45-77 45C44 4 14-33 15-96c1-61 26-98 85-98zm52 81c6-60-76-77-97-28-3 7-6 17-6 28h103" id="bJ"/><path d="M210-169c-67 3-38 105-44 169h-31v-121c0-29-5-50-35-48C34-165 62-65 56 0H25l-1-190h30c1 10-1 24 2 32 10-44 99-50 107 0 11-21 27-35 58-36 85-2 47 119 55 194h-31v-121c0-29-5-49-35-48" id="bK"/><path d="M115-194c55 1 70 41 70 98S169 2 115 4C84 4 66-9 55-30l1 105H24l-1-265h31l2 30c10-21 28-34 59-34zm-8 174c40 0 45-34 45-75s-6-73-45-74c-42 0-51 32-51 76 0 43 10 73 51 73" id="bL"/><g id="X"><use transform="matrix(0.05,0,0,0.05,0,0)" xlink:href="#bH"/><use transform="matrix(0.05,0,0,0.05,10,0)" xlink:href="#bI"/><use transform="matrix(0.05,0,0,0.05,15,0)" xlink:href="#bI"/><use transform="matrix(0.05,0,0,0.05,20,0)" xlink:href="#bJ"/><use transform="matrix(0.05,0,0,0.05,30,0)" xlink:href="#bK"/><use transform="matrix(0.05,0,0,0.05,44.95,0)" xlink:href="#bL"/><use transform="matrix(0.05,0,0,0.05,54.95,0)" xlink:href="#bI"/></g><path d="M101-234c-31-9-42 10-38 44h38v23H63V0H32v-167H5v-23h27c-7-52 17-82 69-68v24" id="bM"/><path d="M143 0L79-87 56-68V0H24v-261h32v163l83-92h37l-77 82L181 0h-38" id="bN"/><g id="Y"><use transform="matrix(0.05,0,0,0.05,0,0)" xlink:href="#bM"/><use transform="matrix(0.05,0,0,0.05,5,0)" xlink:href="#bN"/></g><g id="Z"><use transform="matrix(0.05,0,0,0.05,0,0)" xlink:href="#bo"/><use transform="matrix(0.05,0,0,0.05,12.950000000000001,0)" xlink:href="#bb"/><use transform="matrix(0.05,0,0,0.05,22.950000000000003,0)" xlink:href="#bk"/><use transform="matrix(0.05,0,0,0.05,26.900000000000002,0)" xlink:href="#bt"/><use transform="matrix(0.05,0,0,0.05,36.900000000000006,0)" xlink:href="#bi"/><use transform="matrix(0.05,0,0,0.05,46.900000000000006,0)" xlink:href="#bm"/></g><g id="aa"><use transform="matrix(0.05,0,0,0.05,0,0)" xlink:href="#bq"/><use transform="matrix(0.05,0,0,0.05,10,0)" xlink:href="#bb"/><use transform="matrix(0.05,0,0,0.05,20,0)" xlink:href="#bh"/><use transform="matrix(0.05,0,0,0.05,29,0)" xlink:href="#bk"/><use transform="matrix(0.05,0,0,0.05,32.95,0)" xlink:href="#bg"/><use transform="matrix(0.05,0,0,0.05,47.900000000000006,0)" xlink:href="#bf"/><use transform="matrix(0.05,0,0,0.05,57.900000000000006,0)" xlink:href="#bl"/></g><g id="ab"><use transform="matrix(0.05,0,0,0.05,0,0)" xlink:href="#bp"/><use transform="matrix(0.05,0,0,0.05,10,0)" xlink:href="#bn"/><use transform="matrix(0.05,0,0,0.05,20,0)" xlink:href="#bb"/><use transform="matrix(0.05,0,0,0.05,30,0)" xlink:href="#be"/><use transform="matrix(0.05,0,0,0.05,40,0)" xlink:href="#ba"/></g><g id="ac"><use transform="matrix(0.05,0,0,0.05,0,0)" xlink:href="#bh"/><use transform="matrix(0.05,0,0,0.05,9,0)" xlink:href="#bl"/><use transform="matrix(0.05,0,0,0.05,12.949999999999998,0)" xlink:href="#bp"/><use transform="matrix(0.05,0,0,0.05,22.95,0)" xlink:href="#ba"/><use transform="matrix(0.05,0,0,0.05,31.950000000000003,0)" xlink:href="#bb"/><use transform="matrix(0.05,0,0,0.05,41.95,0)" xlink:href="#ba"/></g><g id="ad"><use transform="matrix(0.05,0,0,0.05,0,0)" xlink:href="#bm"/><use transform="matrix(0.05,0,0,0.05,5,0)" xlink:href="#bk"/><use transform="matrix(0.05,0,0,0.05,8.95,0)" xlink:href="#bg"/><use transform="matrix(0.05,0,0,0.05,23.9,0)" xlink:href="#bb"/><use transform="matrix(0.05,0,0,0.05,33.9,0)" xlink:href="#bu"/><use transform="matrix(0.05,0,0,0.05,43.9,0)" xlink:href="#bl"/><use transform="matrix(0.05,0,0,0.05,47.85,0)" xlink:href="#bk"/><use transform="matrix(0.05,0,0,0.05,51.800000000000004,0)" xlink:href="#bg"/><use transform="matrix(0.05,0,0,0.05,66.75,0)" xlink:href="#bk"/><use transform="matrix(0.05,0,0,0.05,70.7,0)" xlink:href="#bm"/></g><g id="ae"><use transform="matrix(0.05,0,0,0.05,0,0)" xlink:href="#bq"/><use transform="matrix(0.05,0,0,0.05,10,0)" xlink:href="#bd"/><use transform="matrix(0.05,0,0,0.05,20,0)" xlink:href="#bc"/><use transform="matrix(0.05,0,0,0.05,25.950000000000003,0)" xlink:href="#bf"/><use transform="matrix(0.05,0,0,0.05,35.95,0)" xlink:href="#bm"/><use transform="matrix(0.05,0,0,0.05,40.95,0)" xlink:href="#bk"/><use transform="matrix(0.05,0,0,0.05,44.900000000000006,0)" xlink:href="#bp"/><use transform="matrix(0.05,0,0,0.05,54.900000000000006,0)" xlink:href="#be"/></g><g id="af"><use transform="matrix(0.05,0,0,0.05,0,0)" xlink:href="#bG"/><use transform="matrix(0.05,0,0,0.05,12,0)" xlink:href="#bm"/><use transform="matrix(0.05,0,0,0.05,17,0)" xlink:href="#bm"/><use transform="matrix(0.05,0,0,0.05,22,0)" xlink:href="#bb"/><use transform="matrix(0.05,0,0,0.05,32,0)" xlink:href="#bg"/><use transform="matrix(0.05,0,0,0.05,46.95,0)" xlink:href="#bn"/><use transform="matrix(0.05,0,0,0.05,56.95,0)" xlink:href="#bm"/></g><g id="ag"><use transform="matrix(0.05,0,0,0.05,0,0)" xlink:href="#bD"/><use transform="matrix(0.05,0,0,0.05,5.95,0)" xlink:href="#bf"/><use transform="matrix(0.05,0,0,0.05,15.949999999999998,0)" xlink:href="#ba"/><use transform="matrix(0.05,0,0,0.05,24.95,0)" xlink:href="#ba"/><use transform="matrix(0.05,0,0,0.05,33.95,0)" xlink:href="#bk"/><use transform="matrix(0.05,0,0,0.05,37.900000000000006,0)" xlink:href="#bt"/><use transform="matrix(0.05,0,0,0.05,47.900000000000006,0)" xlink:href="#be"/><use transform="matrix(0.05,0,0,0.05,57.900000000000006,0)" xlink:href="#bg"/><use transform="matrix(0.05,0,0,0.05,72.85000000000001,0)" xlink:href="#bb"/><use transform="matrix(0.05,0,0,0.05,82.85000000000001,0)" xlink:href="#be"/><use transform="matrix(0.05,0,0,0.05,92.85000000000001,0)" xlink:href="#bm"/><use transform="matrix(0.05,0,0,0.05,97.85000000000001,0)" xlink:href="#ba"/></g><g id="ah"><use transform="matrix(0.05,0,0,0.05,0,0)" xlink:href="#bf"/><use transform="matrix(0.05,0,0,0.05,10,0)" xlink:href="#bm"/><use transform="matrix(0.05,0,0,0.05,15,0)" xlink:href="#bm"/><use transform="matrix(0.05,0,0,0.05,20,0)" xlink:href="#bb"/><use transform="matrix(0.05,0,0,0.05,30,0)" xlink:href="#bg"/><use transform="matrix(0.05,0,0,0.05,44.95,0)" xlink:href="#bn"/><use transform="matrix(0.05,0,0,0.05,54.95,0)" xlink:href="#bm"/><use transform="matrix(0.05,0,0,0.05,59.95,0)" xlink:href="#ba"/><use transform="matrix(0.05,0,0,0.05,68.95,0)" xlink:href="#bE"/></g><path d="M96-169c-40 0-48 33-48 73s9 75 48 75c24 0 41-14 43-38l32 2c-6 37-31 61-74 61-59 0-76-41-82-99-10-93 101-131 147-64 4 7 5 14 7 22l-32 3c-4-21-16-35-41-35" id="bO"/><path d="M106-169C34-169 62-67 57 0H25v-261h32l-1 103c12-21 28-36 61-36 89 0 53 116 60 194h-32v-121c2-32-8-49-39-48" id="bP"/><path d="M100-194c62-1 85 37 85 99 1 63-27 99-86 99S16-35 15-95c0-66 28-99 85-99zM99-20c44 1 53-31 53-75 0-43-8-75-51-75s-53 32-53 75 10 74 51 75" id="bQ"/><path d="M24-231v-30h32v30H24zM24 0v-190h32V0H24" id="bR"/><g id="ai"><use transform="matrix(0.05,0,0,0.05,0,0)" xlink:href="#bO"/><use transform="matrix(0.05,0,0,0.05,9,0)" xlink:href="#bP"/><use transform="matrix(0.05,0,0,0.05,19,0)" xlink:href="#bQ"/><use transform="matrix(0.05,0,0,0.05,29,0)" xlink:href="#bR"/><use transform="matrix(0.05,0,0,0.05,32.95,0)" xlink:href="#bO"/><use transform="matrix(0.05,0,0,0.05,41.95,0)" xlink:href="#bJ"/></g><g id="aj"><use transform="matrix(0.05,0,0,0.05,0,0)" xlink:href="#bf"/><use transform="matrix(0.05,0,0,0.05,10,0)" xlink:href="#ba"/><use transform="matrix(0.05,0,0,0.05,19,0)" xlink:href="#ba"/><use transform="matrix(0.05,0,0,0.05,28,0)" xlink:href="#bk"/><use transform="matrix(0.05,0,0,0.05,31.950000000000003,0)" xlink:href="#bt"/><use transform="matrix(0.05,0,0,0.05,41.95,0)" xlink:href="#be"/><use transform="matrix(0.05,0,0,0.05,51.95,0)" xlink:href="#bg"/><use transform="matrix(0.05,0,0,0.05,66.9,0)" xlink:href="#bb"/><use transform="matrix(0.05,0,0,0.05,76.9,0)" xlink:href="#be"/><use transform="matrix(0.05,0,0,0.05,86.9,0)" xlink:href="#bm"/></g><path fill="#333" d="M140-251c81 0 123 46 123 126C263-53 228-8 163 1c7 30 30 48 69 40v23c-55 16-95-15-103-61C56-3 17-48 17-125c0-80 42-126 123-126zm0 227c63 0 89-41 89-101s-29-99-89-99c-61 0-89 39-89 99S79-25 140-24" id="bS"/><g id="ak"><use transform="matrix(0.05,0,0,0.05,0,0)" xlink:href="#bS"/><use transform="matrix(0.05,0,0,0.05,14,0)" xlink:href="#bd"/><use transform="matrix(0.05,0,0,0.05,24,0)" xlink:href="#bb"/><use transform="matrix(0.05,0,0,0.05,34,0)" xlink:href="#ba"/><use transform="matrix(0.05,0,0,0.05,43,0)" xlink:href="#bm"/><use transform="matrix(0.05,0,0,0.05,48,0)" xlink:href="#bk"/><use transform="matrix(0.05,0,0,0.05,51.95,0)" xlink:href="#bp"/><use transform="matrix(0.05,0,0,0.05,61.95,0)" xlink:href="#be"/></g><path fill="#333" d="M145-31C134-9 116 4 85 4 32 4 16-35 15-94c0-59 17-99 70-100 32-1 48 14 60 33 0-11-1-24 2-32h30l-1 268h-32zM93-21c41 0 51-33 51-76s-8-73-50-73c-40 0-46 35-46 75s5 74 45 74" id="bT"/><path fill="#333" d="M0 4l72-265h28L28 4H0" id="bU"/><g id="al"><use transform="matrix(0.05,0,0,0.05,0,0)" xlink:href="#bT"/><use transform="matrix(0.05,0,0,0.05,10,0)" xlink:href="#bd"/><use transform="matrix(0.05,0,0,0.05,20,0)" xlink:href="#bb"/><use transform="matrix(0.05,0,0,0.05,30,0)" xlink:href="#ba"/><use transform="matrix(0.05,0,0,0.05,39,0)" xlink:href="#bm"/><use transform="matrix(0.05,0,0,0.05,44,0)" xlink:href="#bk"/><use transform="matrix(0.05,0,0,0.05,47.95,0)" xlink:href="#bp"/><use transform="matrix(0.05,0,0,0.05,57.95,0)" xlink:href="#be"/><use transform="matrix(0.05,0,0,0.05,67.95,0)" xlink:href="#bU"/><use transform="matrix(0.05,0,0,0.05,72.95,0)" xlink:href="#bh"/><use transform="matrix(0.05,0,0,0.05,81.95,0)" xlink:href="#bp"/><use transform="matrix(0.05,0,0,0.05,91.95,0)" xlink:href="#be"/><use transform="matrix(0.05,0,0,0.05,101.95,0)" xlink:href="#bm"/><use transform="matrix(0.05,0,0,0.05,106.95,0)" xlink:href="#bb"/><use transform="matrix(0.05,0,0,0.05,116.95,0)" xlink:href="#be"/><use transform="matrix(0.05,0,0,0.05,126.95,0)" xlink:href="#bm"/></g><g id="am"><use transform="matrix(0.05,0,0,0.05,0,0)" xlink:href="#bA"/><use transform="matrix(0.05,0,0,0.05,9,0)" xlink:href="#bf"/><use transform="matrix(0.05,0,0,0.05,19,0)" xlink:href="#bc"/></g><g id="an"><use transform="matrix(0.05,0,0,0.05,0,0)" xlink:href="#bg"/><use transform="matrix(0.05,0,0,0.05,14.950000000000001,0)" xlink:href="#bd"/><use transform="matrix(0.05,0,0,0.05,24.950000000000003,0)" xlink:href="#bl"/><use transform="matrix(0.05,0,0,0.05,28.900000000000002,0)" xlink:href="#bm"/><use transform="matrix(0.05,0,0,0.05,33.900000000000006,0)" xlink:href="#bk"/><use transform="matrix(0.05,0,0,0.05,37.85000000000001,0)" xlink:href="#bn"/><use transform="matrix(0.05,0,0,0.05,47.85000000000001,0)" xlink:href="#bl"/><use transform="matrix(0.05,0,0,0.05,51.80000000000001,0)" xlink:href="#bb"/></g><g id="ao"><use transform="matrix(0.05,0,0,0.05,0,0)" xlink:href="#bv"/><use transform="matrix(0.05,0,0,0.05,10,0)" xlink:href="#bp"/><use transform="matrix(0.05,0,0,0.05,20,0)" xlink:href="#bp"/><use transform="matrix(0.05,0,0,0.05,30,0)" xlink:href="#bl"/><use transform="matrix(0.05,0,0,0.05,33.95,0)" xlink:href="#bb"/><use transform="matrix(0.05,0,0,0.05,43.95,0)" xlink:href="#be"/></g><g id="ap"><use transform="matrix(0.05,0,0,0.05,0,0)" xlink:href="#bz"/><use transform="matrix(0.05,0,0,0.05,12.950000000000001,0)" xlink:href="#bi"/><use transform="matrix(0.05,0,0,0.05,22.950000000000003,0)" xlink:href="#bp"/><use transform="matrix(0.05,0,0,0.05,32.95,0)" xlink:href="#bk"/><use transform="matrix(0.05,0,0,0.05,36.900000000000006,0)" xlink:href="#bh"/><use transform="matrix(0.05,0,0,0.05,45.900000000000006,0)" xlink:href="#bb"/></g><g id="aq"><use transform="matrix(0.05,0,0,0.05,0,0)" xlink:href="#bD"/><use transform="matrix(0.05,0,0,0.05,5.95,0)" xlink:href="#bT"/><use transform="matrix(0.05,0,0,0.05,15.949999999999998,0)" xlink:href="#bd"/><use transform="matrix(0.05,0,0,0.05,25.950000000000003,0)" xlink:href="#bb"/><use transform="matrix(0.05,0,0,0.05,35.95,0)" xlink:href="#ba"/><use transform="matrix(0.05,0,0,0.05,44.95,0)" xlink:href="#bm"/><use transform="matrix(0.05,0,0,0.05,49.95,0)" xlink:href="#bk"/><use transform="matrix(0.05,0,0,0.05,53.900000000000006,0)" xlink:href="#bp"/><use transform="matrix(0.05,0,0,0.05,63.900000000000006,0)" xlink:href="#be"/></g><g id="ar"><use transform="matrix(0.05,0,0,0.05,0,0)" xlink:href="#bh"/><use transform="matrix(0.05,0,0,0.05,9,0)" xlink:href="#bi"/><use transform="matrix(0.05,0,0,0.05,19,0)" xlink:href="#bp"/><use transform="matrix(0.05,0,0,0.05,29,0)" xlink:href="#bk"/><use transform="matrix(0.05,0,0,0.05,32.95,0)" xlink:href="#bh"/><use transform="matrix(0.05,0,0,0.05,41.95,0)" xlink:href="#bb"/><use transform="matrix(0.05,0,0,0.05,51.95,0)" xlink:href="#ba"/><use transform="matrix(0.05,0,0,0.05,60.95,0)" xlink:href="#bE"/></g><g id="as"><use transform="matrix(0.05,0,0,0.05,0,0)" xlink:href="#bT"/><use transform="matrix(0.05,0,0,0.05,10,0)" xlink:href="#bd"/><use transform="matrix(0.05,0,0,0.05,20,0)" xlink:href="#bb"/><use transform="matrix(0.05,0,0,0.05,30,0)" xlink:href="#ba"/><use transform="matrix(0.05,0,0,0.05,39,0)" xlink:href="#bm"/><use transform="matrix(0.05,0,0,0.05,44,0)" xlink:href="#bk"/><use transform="matrix(0.05,0,0,0.05,47.95,0)" xlink:href="#bp"/><use transform="matrix(0.05,0,0,0.05,57.95,0)" xlink:href="#be"/></g><g id="at"><use transform="matrix(0.05,0,0,0.05,0,0)" xlink:href="#bn"/><use transform="matrix(0.05,0,0,0.05,10,0)" xlink:href="#bp"/><use transform="matrix(0.05,0,0,0.05,20,0)" xlink:href="#bk"/><use transform="matrix(0.05,0,0,0.05,23.95,0)" xlink:href="#be"/><use transform="matrix(0.05,0,0,0.05,33.95,0)" xlink:href="#bm"/></g><g id="au"><use transform="matrix(0.05,0,0,0.05,0,0)" xlink:href="#bh"/><use transform="matrix(0.05,0,0,0.05,9,0)" xlink:href="#bp"/><use transform="matrix(0.05,0,0,0.05,19,0)" xlink:href="#be"/><use transform="matrix(0.05,0,0,0.05,29,0)" xlink:href="#bm"/><use transform="matrix(0.05,0,0,0.05,34,0)" xlink:href="#bb"/><use transform="matrix(0.05,0,0,0.05,44,0)" xlink:href="#bc"/><use transform="matrix(0.05,0,0,0.05,49.95,0)" xlink:href="#bm"/></g><g id="av"><use transform="matrix(0.05,0,0,0.05,0,0)" xlink:href="#bz"/><use transform="matrix(0.05,0,0,0.05,12.950000000000001,0)" xlink:href="#bi"/><use transform="matrix(0.05,0,0,0.05,22.950000000000003,0)" xlink:href="#bp"/><use transform="matrix(0.05,0,0,0.05,32.95,0)" xlink:href="#bk"/><use transform="matrix(0.05,0,0,0.05,36.900000000000006,0)" xlink:href="#bh"/><use transform="matrix(0.05,0,0,0.05,45.900000000000006,0)" xlink:href="#bb"/></g><g id="aw"><use transform="matrix(0.05,0,0,0.05,0,0)" xlink:href="#bf"/><use transform="matrix(0.05,0,0,0.05,10,0)" xlink:href="#bm"/><use transform="matrix(0.05,0,0,0.05,15,0)" xlink:href="#bm"/><use transform="matrix(0.05,0,0,0.05,20,0)" xlink:href="#bb"/><use transform="matrix(0.05,0,0,0.05,30,0)" xlink:href="#bg"/><use transform="matrix(0.05,0,0,0.05,44.95,0)" xlink:href="#bn"/><use transform="matrix(0.05,0,0,0.05,54.95,0)" xlink:href="#bm"/></g><g id="ax"><use transform="matrix(0.05,0,0,0.05,0,0)" xlink:href="#bh"/><use transform="matrix(0.05,0,0,0.05,9,0)" xlink:href="#bi"/><use transform="matrix(0.05,0,0,0.05,19,0)" xlink:href="#bp"/><use transform="matrix(0.05,0,0,0.05,29,0)" xlink:href="#bk"/><use transform="matrix(0.05,0,0,0.05,32.95,0)" xlink:href="#bh"/><use transform="matrix(0.05,0,0,0.05,41.95,0)" xlink:href="#bb"/></g></defs></g></svg>