<svg xmlns="http://www.w3.org/2000/svg" xmlns:xlink="http://www.w3.org/1999/xlink" xmlns:lucid="lucid" width="5647.02" height="2858.72"><g transform="translate(0 0)" lucid:page-tab-id="IIVyh8eiPAa~"><path d="M0 0h5647.02v2858.72H0z" fill="#fff"/><path d="M225 513c0-4.42 3.58-8 8-8h1415.88c4.42 0 8 3.58 8 8v1304c0 4.42-3.58 8-8 8H233c-4.42 0-8-3.58-8-8z" fill="#f9d2de"/><path d="M1645 919.44c0-4.42 3.58-8 8-8h482.12c4.42 0 8 3.58 8 8V1817c0 4.42-3.58 8-8 8H1653c-4.42 0-8-3.58-8-8z" fill="#f9d2de"/><path d="M2456.53 168c0-4.42 3.58-8 8-8h124c4.42 0 8 3.58 8 8v83.68c0 4.42-3.58 8-8 8h-124c-4.42 0-8-3.58-8-8z" stroke="#000" stroke-opacity="0" stroke-width="2" fill="#1071e5"/><use xlink:href="#a" transform="matrix(1,0,0,1,2461.5305133646534,165) translate(40.55 48.15)"/><path d="M2526.53 260.18v46.56" stroke="#333" fill="none"/><path d="M2527.03 260.2h-1v-.52h1" fill="#333"/><path d="M2526.53 321.5l-4.63-14.26h9.27z" stroke="#333" fill="#333"/><path d="M2520.46 325.2c3.35-2.87 8.8-2.87 12.14 0l57.86 49.6c3.35 2.87 3.35 7.53 0 10.4l-57.86 49.6c-3.35 2.87-8.8 2.87-12.14 0l-57.86-49.6c-3.35-2.87-3.35-7.53 0-10.4z" stroke="#000" stroke-opacity="0" stroke-width="2" fill="#1071e5"/><use xlink:href="#b" transform="matrix(1,0,0,1,2461.5305133646534,324.99999999999994) translate(10.708703703703693 56.23222222222222)"/><path d="M2120 8c0-4.42 3.58-8 8-8h836.75c4.42 0 8 3.58 8 8v25.16c0 4.4-3.58 8-8 8H2128c-4.42 0-8-3.6-8-8z" stroke="#000" stroke-opacity="0" stroke-width="2" fill="#fff" fill-opacity="0"/><use xlink:href="#c" transform="matrix(1,0,0,1,2124,3.999999999999993) translate(300.089012345679 25.782777777777778)"/><use xlink:href="#d" transform="matrix(1,0,0,1,2124,3.999999999999993) translate(385.89395061728396 25.782777777777778)"/><use xlink:href="#e" transform="matrix(1,0,0,1,2124,3.999999999999993) translate(443.94703703703703 25.782777777777778)"/><use xlink:href="#f" transform="matrix(1,0,0,1,2124,3.999999999999993) translate(499.2322222222222 25.782777777777778)"/><path d="M2372.64 39.8h354.25M2372.67 39.8h-1.03M2726.87 39.8h1.02" stroke="#a9afb8" stroke-width="2" fill="none"/><path d="M2120 49.16c0-4.42 3.58-8 8-8h837.7c4.43 0 8 3.58 8 8V52c0 4.42-3.57 8-8 8H2128c-4.42 0-8-3.58-8-8z" stroke="#000" stroke-opacity="0" stroke-width="2" fill="#fff" fill-opacity="0"/><use xlink:href="#g" transform="matrix(1,0,0,1,2124.0000000000005,45.15522395689881) translate(312.0126748971194 14.917037037037037)"/><use xlink:href="#h" transform="matrix(1,0,0,1,2124.0000000000005,45.15522395689881) translate(352.76030864197537 14.917037037037037)"/><use xlink:href="#i" transform="matrix(1,0,0,1,2124.0000000000005,45.15522395689881) translate(395.16504115226337 14.917037037037037)"/><use xlink:href="#j" transform="matrix(1,0,0,1,2124.0000000000005,45.15522395689881) translate(407.61452674897123 14.917037037037037)"/><use xlink:href="#k" transform="matrix(1,0,0,1,2124.0000000000005,45.15522395689881) translate(482.26895061728396 14.917037037037037)"/><use xlink:href="#l" transform="matrix(1,0,0,1,2124.0000000000005,45.15522395689881) translate(506.6155555555556 14.917037037037037)"/><path d="M2840.3 598.16c0-4.4 3.58-8 8-8h124c4.42 0 8 3.6 8 8v83.68c0 4.42-3.58 8-8 8h-124c-4.42 0-8-3.58-8-8z" stroke="#000" stroke-opacity="0" stroke-width="2" fill="#c92d39"/><use xlink:href="#m" transform="matrix(1,0,0,1,2845.301323957974,595.1647760431521) translate(14.600000000000001 48.15)"/><use xlink:href="#n" transform="matrix(1,0,0,1,2845.301323957974,595.1647760431521) translate(44.550000000000004 48.15)"/><path d="M2593.43 380h304.87c6.63 0 12 5.37 12 12v181.78" stroke="#333" fill="none"/><path d="M2593.44 380.5h-.54l.05-1h.5" fill="#333"/><path d="M2910.3 588.55l-4.63-14.27h9.27z" stroke="#333" fill="#333"/><path d="M2265.08 380.5H1098.9l-3 .4-2.76 1.14-2.4 1.83-1.82 2.4-1.14 2.75-.4 3v21.44h-1v-21.5l.42-3.2 1.24-3 2-2.6 2.6-2 3-1.24 3.2-.42H2265.1m194.55 1h-166.55v-1h166.55" fill="#333"/><path d="M2460.1 380.5h-.48v-1h.54M1086.88 428.23l-4.63-14.27h9.27z" fill="#333"/><path d="M1086.88 429.84l-5.32-16.38h10.64m-9.27 1l3.95 12.15 3.95-12.14" fill="#333"/><use xlink:href="#o" transform="matrix(1,0,0,1,2265.084060100787,369.19999999999993) translate(0.005000000000000782 14.4)"/><path d="M1080.8 431.93c3.36-2.88 8.8-2.88 12.15 0l57.86 49.6c3.36 2.86 3.36 7.52 0 10.4l-57.85 49.6c-3.35 2.86-8.8 2.86-12.14 0l-57.85-49.6c-3.35-2.88-3.35-7.54 0-10.4z" stroke="#000" stroke-opacity="0" stroke-width="2" fill="#c92d39"/><use xlink:href="#p" transform="matrix(1,0,0,1,1021.8807324561135,431.7238104309334) translate(28.017345679012344 59.31597222222222)"/><path d="M1087.38 617.8h-1v-18.1h1m0-21.6h-1v-34h1" fill="#333"/><path d="M1087.38 544.12h-1v-.5l1-.04M1086.88 632.57l-4.63-14.27h9.27z" fill="#333"/><path d="M1086.88 634.18l-5.32-16.38h10.64m-9.27 1l3.95 12.15 3.95-12.15" fill="#333"/><use xlink:href="#q" transform="matrix(1,0,0,1,1072.2057324561135,578.0933823750285) translate(0.005000000000000782 14.4)"/><path d="M810 592.34c0-4.4 3.58-8 8-8h124c4.42 0 8 3.6 8 8v83.68c0 4.42-3.58 8-8 8H818c-4.42 0-8-3.58-8-8z" stroke="#000" stroke-opacity="0" stroke-width="2" fill="#c92d39"/><use xlink:href="#m" transform="matrix(1,0,0,1,814.9999999999998,589.3439199313419) translate(6.6499999999999915 36.9)"/><use xlink:href="#r" transform="matrix(1,0,0,1,814.9999999999998,589.3439199313419) translate(36.599999999999994 36.9)"/><use xlink:href="#s" transform="matrix(1,0,0,1,814.9999999999998,589.3439199313419) translate(29.575000000000003 58.5)"/><path d="M1215 592.34c0-4.4 3.58-8 8-8h124c4.42 0 8 3.6 8 8v83.68c0 4.42-3.58 8-8 8h-124c-4.42 0-8-3.58-8-8z" stroke="#000" stroke-opacity="0" stroke-width="2" fill="#c92d39"/><use xlink:href="#t" transform="matrix(1,0,0,1,1220,589.3439199313419) translate(4.125 48.15)"/><use xlink:href="#u" transform="matrix(1,0,0,1,1220,589.3439199313419) translate(65.025 48.15)"/><path d="M966.38 634.18h232.24" stroke="#333" fill="none"/><path d="M951.62 634.18l14.26-4.63v9.27zM1213.38 634.18l-14.26 4.64v-9.27z" stroke="#333" fill="#333"/><path d="M810 1032c0-4.4 3.58-8 8-8h124c4.42 0 8 3.6 8 8v83.7c0 4.4-3.58 8-8 8H818c-4.42 0-8-3.6-8-8z" stroke="#000" stroke-opacity="0" stroke-width="2" fill="#c92d39"/><use xlink:href="#v" transform="matrix(1,0,0,1,814.9999999999998,1029.01106485556) translate(29.575000000000003 48.15)"/><path d="M880 684.52v323.1" stroke="#333" fill="none"/><path d="M880.5 684.54h-1v-.52h1" fill="#333"/><path d="M880 1022.4l-4.64-14.27h9.28z" stroke="#333" fill="#333"/><path d="M260 1212c0-4.4 3.58-8 8-8h124c4.42 0 8 3.6 8 8v83.7c0 4.4-3.58 8-8 8H268c-4.42 0-8-3.6-8-8z" stroke="#000" stroke-opacity="0" stroke-width="2" fill="#c92d39"/><use xlink:href="#w" transform="matrix(1,0,0,1,265,1209.0110648555597) translate(48.55 48.15)"/><path d="M700 1212c0-4.4 3.58-8 8-8h124c4.42 0 8 3.6 8 8v83.7c0 4.4-3.58 8-8 8H708c-4.42 0-8-3.6-8-8z" stroke="#000" stroke-opacity="0" stroke-width="2" fill="#259b9c"/><use xlink:href="#x" transform="matrix(1,0,0,1,705,1209.0110648555597) translate(14.124999999999993 48.15)"/><use xlink:href="#y" transform="matrix(1,0,0,1,705,1209.0110648555597) translate(53.025 48.15)"/><path d="M920 1212c0-4.4 3.58-8 8-8h124c4.42 0 8 3.6 8 8v83.7c0 4.4-3.58 8-8 8H928c-4.42 0-8-3.6-8-8z" stroke="#000" stroke-opacity="0" stroke-width="2" fill="#259b9c"/><use xlink:href="#z" transform="matrix(1,0,0,1,925,1209.0110648555597) translate(32.074999999999996 25.65)"/><use xlink:href="#A" transform="matrix(1,0,0,1,925,1209.0110648555597) translate(34.099999999999994 47.25)"/><use xlink:href="#B" transform="matrix(1,0,0,1,925,1209.0110648555597) translate(31.65 68.85000000000001)"/><path d="M1376.88 1212c0-4.4 3.58-8 8-8h124c4.42 0 8 3.6 8 8v83.7c0 4.4-3.58 8-8 8h-124c-4.42 0-8-3.6-8-8z" stroke="#000" stroke-opacity="0" stroke-width="2" fill="#834187"/><use xlink:href="#C" transform="matrix(1,0,0,1,1381.8807324561135,1209.0110648555597) translate(48.55 36.9)"/><use xlink:href="#D" transform="matrix(1,0,0,1,1381.8807324561135,1209.0110648555597) translate(9.124999999999993 58.5)"/><path d="M1736.88 1212c0-4.4 3.58-8 8-8h124c4.42 0 8 3.6 8 8v83.7c0 4.4-3.58 8-8 8h-124c-4.42 0-8-3.6-8-8z" stroke="#000" stroke-opacity="0" stroke-width="2" fill="#834187"/><use xlink:href="#C" transform="matrix(1,0,0,1,1741.880732456114,1209.0110648555597) translate(48.55 25.65)"/><use xlink:href="#E" transform="matrix(1,0,0,1,1741.880732456114,1209.0110648555597) translate(9.124999999999993 47.25)"/><use xlink:href="#F" transform="matrix(1,0,0,1,1741.880732456114,1209.0110648555597) translate(26.65 68.85000000000001)"/><path d="M880 1124.2v27.65c0 6.63-5.37 12-12 12H342c-6.63 0-12 5.37-12 12v11.78" stroke="#333" fill="none"/><path d="M880.5 1124.2h-1v-.5h1" fill="#333"/><path d="M330 1202.4l-4.64-14.27h9.28z" stroke="#333" fill="#333"/><path d="M770 1187.63v-11.78c0-6.63 5.37-12 12-12h86c6.63 0 12-5.37 12-12v-27.66" stroke="#333" fill="none"/><path d="M770 1202.4l-4.64-14.27h9.28z" stroke="#333" fill="#333"/><path d="M880.5 1124.2h-1v-.5h1" fill="#333"/><path d="M1446.88 1187.63v-11.78c0-6.63-5.37-12-12-12H892c-6.63 0-12-5.37-12-12v-27.66" stroke="#333" fill="none"/><path d="M1446.88 1202.4l-4.63-14.27h9.27z" stroke="#333" fill="#333"/><path d="M880.5 1124.2h-1v-.5h1" fill="#333"/><path d="M990 1187.63v-11.78c0-6.63-5.37-12-12-12h-86c-6.63 0-12-5.37-12-12v-27.66" stroke="#333" fill="none"/><path d="M990 1202.4l-4.64-14.27h9.28z" stroke="#333" fill="#333"/><path d="M880.5 1124.2h-1v-.5h1" fill="#333"/><path d="M1806.88 1187.63v-11.78c0-6.63-5.37-12-12-12H892c-6.63 0-12-5.37-12-12v-27.66" stroke="#333" fill="none"/><path d="M1806.88 1202.4l-4.63-14.27h9.27z" stroke="#333" fill="#333"/><path d="M880.5 1124.2h-1v-.5h1" fill="#333"/><path d="M920 1412c0-4.4 3.58-8 8-8h124c4.42 0 8 3.6 8 8v83.7c0 4.4-3.58 8-8 8H928c-4.42 0-8-3.6-8-8z" stroke="#000" stroke-opacity="0" stroke-width="2" fill="#259b9c"/><use xlink:href="#G" transform="matrix(1,0,0,1,925,1409.0110648555599) translate(26.65 48.15)"/><path d="M990 1304.2v83.43" stroke="#333" fill="none"/><path d="M990.5 1304.2h-1v-.5h1" fill="#333"/><path d="M990 1402.4l-4.64-14.27h9.28z" stroke="#333" fill="#333"/><path d="M920 1612c0-4.4 3.58-8 8-8h124c4.42 0 8 3.6 8 8v83.7c0 4.4-3.58 8-8 8H928c-4.42 0-8-3.6-8-8z" stroke="#000" stroke-opacity="0" stroke-width="2" fill="#259b9c"/><use xlink:href="#H" transform="matrix(1,0,0,1,925,1609.0110648555599) translate(38.55 48.15)"/><path d="M1140 1613.72c0-4.4 3.58-8 8-8h124c4.42 0 8 3.6 8 8v83.68c0 4.42-3.58 8-8 8h-124c-4.42 0-8-3.58-8-8z" stroke="#000" stroke-opacity="0" stroke-width="2" fill="#259b9c"/><use xlink:href="#w" transform="matrix(1,0,0,1,1144.9999999999998,1610.7243981887768) translate(48.55 48.15)"/><path d="M700 1615.44c0-4.42 3.58-8 8-8h124c4.42 0 8 3.58 8 8v83.68c0 4.42-3.58 8-8 8H708c-4.42 0-8-3.58-8-8z" stroke="#000" stroke-opacity="0" stroke-width="2" fill="#259b9c"/><use xlink:href="#I" transform="matrix(1,0,0,1,705,1612.437731521994) translate(48.075 48.15)"/><path d="M990 1504.2v83.43" stroke="#333" fill="none"/><path d="M990.5 1504.2h-1v-.5h1" fill="#333"/><path d="M990 1602.4l-4.64-14.27h9.28z" stroke="#333" fill="#333"/><path d="M770 1591.05v-23.5c0-6.6 5.37-12 12-12h196c6.63 0 12-5.36 12-12v-39.36" stroke="#333" fill="none"/><path d="M770 1605.82l-4.64-14.27h9.28z" stroke="#333" fill="#333"/><path d="M990.5 1504.2h-1v-.5h1" fill="#333"/><path d="M1210 1589.34v-22.63c0-6.62-5.37-12-12-12h-196c-6.63 0-12-5.36-12-12v-38.5" stroke="#333" fill="none"/><path d="M1210 1604.1l-4.64-14.26h9.28z" stroke="#333" fill="#333"/><path d="M990.5 1504.2h-1v-.5h1" fill="#333"/><path d="M919 1453.85H781.84c-6.63 0-12-5.37-12-12V1322.2" stroke="#19967d" stroke-width="2" fill="none"/><path d="M920 1454.85h-1.03v-2H920" fill="#19967d"/><path d="M769.84 1306.93l4.64 14.26h-9.28z" stroke="#19967d" stroke-width="2" fill="#19967d"/><path d="M1736.88 1410.3c0-4.42 3.58-8 8-8h124c4.42 0 8 3.58 8 8v83.68c0 4.42-3.58 8-8 8h-124c-4.42 0-8-3.58-8-8z" stroke="#000" stroke-opacity="0" stroke-width="2" fill="#834187"/><use xlink:href="#J" transform="matrix(1,0,0,1,1741.880732456114,1407.297731522343) translate(21.599999999999994 48.15)"/><path d="M1736.88 1610.3c0-4.42 3.58-8 8-8h124c4.42 0 8 3.58 8 8v83.68c0 4.42-3.58 8-8 8h-124c-4.42 0-8-3.58-8-8z" stroke="#000" stroke-opacity="0" stroke-width="2" fill="#834187"/><use xlink:href="#H" transform="matrix(1,0,0,1,1741.880732456114,1607.297731522343) translate(38.55 48.15)"/><path d="M1940 1608.95c0-4.42 3.58-8 8-8h124c4.42 0 8 3.58 8 8v83.68c0 4.42-3.58 8-8 8h-124c-4.42 0-8-3.58-8-8z" stroke="#000" stroke-opacity="0" stroke-width="2" fill="#834187"/><use xlink:href="#w" transform="matrix(1,0,0,1,1945,1605.9486423840076) translate(48.55 48.15)"/><path d="M1516.88 1613.72c0-4.4 3.58-8 8-8h124c4.42 0 8 3.6 8 8v83.68c0 4.42-3.58 8-8 8h-124c-4.42 0-8-3.58-8-8z" stroke="#000" stroke-opacity="0" stroke-width="2" fill="#834187"/><use xlink:href="#I" transform="matrix(1,0,0,1,1521.8807324561133,1610.7243981887768) translate(48.075 48.15)"/><path d="M1806.88 1502.48v83.43" stroke="#333" fill="none"/><path d="M1807.38 1502.5h-1v-.52h1" fill="#333"/><path d="M1806.88 1600.68l-4.63-14.27h9.27z" stroke="#333" fill="#333"/><path d="M1586.88 1589.34v-23.5c0-6.62 5.37-12 12-12h196c6.63 0 12-5.36 12-12v-39.36" stroke="#333" fill="none"/><path d="M1586.88 1604.1l-4.63-14.26h9.27z" stroke="#333" fill="#333"/><path d="M1807.38 1502.5h-1v-.52h1" fill="#333"/><path d="M2010 1584.56v-21.1c0-6.62-5.37-12-12-12h-179.12c-6.63 0-12-5.37-12-12v-36.98" stroke="#333" fill="none"/><path d="M2010 1599.33l-4.64-14.27h9.28z" stroke="#333" fill="#333"/><path d="M1807.38 1502.5h-1v-.52h1" fill="#333"/><path d="M1806.88 1304.2v81.7" stroke="#333" fill="none"/><path d="M1807.38 1304.2h-1v-.5h1" fill="#333"/><path d="M1806.88 1400.68l-4.63-14.27h9.27z" stroke="#333" fill="#333"/><path d="M1736.38 1452.14h-277.5c-6.63 0-12-5.37-12-12v-120.07" stroke="#19967d" fill="none"/><path d="M1736.88 1452.64h-.5v-1h.5" fill="#19967d"/><path d="M1446.88 1305.3l4.64 14.27h-9.27z" stroke="#19967d" fill="#19967d"/><path d="M2904.23 805.2c3.35-2.87 8.8-2.87 12.15 0l57.85 49.6c3.35 2.87 3.35 7.53 0 10.4l-57.85 49.6c-3.36 2.87-8.8 2.87-12.15 0l-57.85-49.6c-3.36-2.87-3.36-7.53 0-10.4z" stroke="#000" stroke-opacity="0" stroke-width="2" fill="#1071e5"/><use xlink:href="#b" transform="matrix(1,0,0,1,2845.301323957974,805) translate(10.708703703703693 56.23222222222222)"/><path d="M2910.3 690.34v96.4" stroke="#333" fill="none"/><path d="M2910.8 690.36h-1v-.52h1" fill="#333"/><path d="M2910.3 801.5l-4.63-14.26h9.27z" stroke="#333" fill="#333"/><path d="M2380 1049.6c0-4.42 3.58-8 8-8h124c4.42 0 8 3.58 8 8v83.68c0 4.42-3.58 8-8 8h-124c-4.42 0-8-3.58-8-8z" stroke="#000" stroke-opacity="0" stroke-width="2" fill="#1071e5"/><use xlink:href="#K" transform="matrix(1,0,0,1,2385,1046.6029413297924) translate(41.099999999999994 48.15)"/><path d="M3343.9 1049.6c0-4.42 3.6-8 8-8h124c4.42 0 8 3.58 8 8v83.68c0 4.42-3.58 8-8 8h-124c-4.4 0-8-3.58-8-8z" stroke="#000" stroke-opacity="0" stroke-width="2" fill="#c92d39"/><use xlink:href="#m" transform="matrix(1,0,0,1,3348.904637597221,1046.602941329792) translate(14.600000000000001 48.15)"/><use xlink:href="#n" transform="matrix(1,0,0,1,3348.904637597221,1046.602941329792) translate(44.550000000000004 48.15)"/><path d="M2656.53 860.5h-194.5l-3 .4-2.77 1.14-2.4 1.83-1.82 2.4-1.14 2.75-.4 3v153.2h-1V871.97l.42-3.2 1.24-3 2-2.6 2.6-2 3-1.25 3.2-.42h194.57m186.87 1h-163.93v-1h163.93" fill="#333"/><path d="M2843.88 860.5h-.5v-1h.55M2450 1039.98l-4.64-14.26h9.28z" fill="#333"/><path d="M2450 1041.6l-5.32-16.38h10.64m-9.27 1l3.95 12.15 3.95-12.15" fill="#333"/><use xlink:href="#L" transform="matrix(1,0,0,1,2656.525,849.2) translate(0.005000000000000782 14.4)"/><path d="M1760 598.16c0-4.4 3.58-8 8-8h124c4.42 0 8 3.6 8 8v83.68c0 4.42-3.58 8-8 8h-124c-4.42 0-8-3.58-8-8z" stroke="#000" stroke-opacity="0" stroke-width="2" fill="#1071e5"/><use xlink:href="#M" transform="matrix(1,0,0,1,1765,595.1647760431521) translate(35.14999999999999 48.15)"/><path d="M2120 598.16c0-4.4 3.58-8 8-8h124c4.42 0 8 3.6 8 8v83.68c0 4.42-3.58 8-8 8h-124c-4.42 0-8-3.58-8-8z" stroke="#000" stroke-opacity="0" stroke-width="2" fill="#1071e5"/><use xlink:href="#N" transform="matrix(1,0,0,1,2125.0000000000005,595.1647760431521) translate(37.55 48.15)"/><path d="M1830 573.78V380.5" stroke="#333" fill="none"/><path d="M1830 588.55l-4.64-14.27h9.28z" stroke="#333" fill="#333"/><path d="M1830 380.5v-.5M2190 573.78V380.5" stroke="#333" fill="none"/><path d="M2190 588.55l-4.64-14.27h9.28z" stroke="#333" fill="#333"/><path d="M2190 380.5v-.5" stroke="#333" fill="none"/><path d="M2240 1199.44c0-4.42 3.58-8 8-8h124c4.42 0 8 3.58 8 8v83.68c0 4.42-3.58 8-8 8h-124c-4.42 0-8-3.58-8-8z" stroke="#000" stroke-opacity="0" stroke-width="2" fill="#1071e5"/><use xlink:href="#O" transform="matrix(1,0,0,1,2245,1196.4429413297926) translate(32.599999999999994 48.15)"/><use xlink:href="#P" transform="matrix(1,0,0,1,2245,1196.4429413297926) translate(76.5 48.15)"/><path d="M2520 1199.44c0-4.42 3.58-8 8-8h124c4.42 0 8 3.58 8 8v83.68c0 4.42-3.58 8-8 8h-124c-4.42 0-8-3.58-8-8z" stroke="#000" stroke-opacity="0" stroke-width="2" fill="#1071e5"/><use xlink:href="#K" transform="matrix(1,0,0,1,2525.0000000000005,1196.4429413297926) translate(41.099999999999994 48.15)"/><path d="M2450 1141.78v12.58c0 6.63-5.37 12-12 12h-119.3c-4.8 0-8.7 3.9-8.7 8.7" stroke="#333" fill="none"/><path d="M2450.5 1141.8h-1v-.52h1" fill="#333"/><path d="M2310 1189.82l-4.64-14.26h9.28z" stroke="#333" fill="#333"/><path d="M2450 1141.78v12.58c0 6.63 5.37 12 12 12h119.3c4.8 0 8.7 3.9 8.7 8.7" stroke="#333" fill="none"/><path d="M2450.5 1141.8h-1v-.52h1" fill="#333"/><path d="M2590 1189.82l-4.64-14.26h9.28z" stroke="#333" fill="#333"/><path d="M3110 1204.65c0-4.42 3.58-8 8-8h124c4.42 0 8 3.58 8 8v83.68c0 4.42-3.58 8-8 8h-124c-4.42 0-8-3.58-8-8z" stroke="#000" stroke-opacity="0" stroke-width="2" fill="#c92d39"/><use xlink:href="#Q" transform="matrix(1,0,0,1,3114.9999999999995,1201.6517348338762) translate(3.6499999999999915 36.9)"/><use xlink:href="#R" transform="matrix(1,0,0,1,3114.9999999999995,1201.6517348338762) translate(74.55 36.9)"/><use xlink:href="#S" transform="matrix(1,0,0,1,3114.9999999999995,1201.6517348338762) translate(92.5 36.9)"/><use xlink:href="#s" transform="matrix(1,0,0,1,3114.9999999999995,1201.6517348338762) translate(29.575000000000003 58.5)"/><path d="M4240 1212c0-4.4 3.58-8 8-8h124c4.42 0 8 3.6 8 8v83.7c0 4.4-3.58 8-8 8h-124c-4.42 0-8-3.6-8-8z" stroke="#000" stroke-opacity="0" stroke-width="2" fill="#c92d39"/><use xlink:href="#v" transform="matrix(1,0,0,1,4245,1209.0110648555597) translate(29.575000000000003 48.15)"/><path d="M3413.9 1141.78v15.2c0 6.6-5.37 12-12 12h-210.6c-6.24 0-11.3 5.05-11.3 11.3" stroke="#333" fill="none"/><path d="M3414.4 1141.8h-1v-.52h1" fill="#333"/><path d="M3180 1195.03l-4.64-14.26h9.28z" stroke="#333" fill="#333"/><path d="M3413.9 1141.78v18.87c0 6.62 5.38 12 12 12H4298c6.63 0 12 5.37 12 12v2.98" stroke="#333" fill="none"/><path d="M3414.4 1141.8h-1v-.52h1" fill="#333"/><path d="M4310 1202.4l-4.64-14.27h9.28z" stroke="#333" fill="#333"/><path d="M4026 1621.9c0-4.4 3.6-8 8-8h124c4.43 0 8 3.6 8 8v83.7c0 4.4-3.57 8-8 8h-124c-4.4 0-8-3.6-8-8z" stroke="#000" stroke-opacity="0" stroke-width="2" fill="#c92d39"/><use xlink:href="#T" transform="matrix(1,0,0,1,4031.007618374817,1618.9107469727785) translate(11.149999999999991 48.15)"/><use xlink:href="#u" transform="matrix(1,0,0,1,4031.007618374817,1618.9107469727785) translate(58 48.15)"/><path d="M4786 1621.9c0-4.4 3.6-8 8-8h124c4.43 0 8 3.6 8 8v83.7c0 4.4-3.57 8-8 8h-124c-4.4 0-8-3.6-8-8z" stroke="#000" stroke-opacity="0" stroke-width="2" fill="#c92d39"/><use xlink:href="#U" transform="matrix(1,0,0,1,4791.007618374819,1618.9107469727785) translate(34.025 36.9)"/><use xlink:href="#V" transform="matrix(1,0,0,1,4791.007618374819,1618.9107469727785) translate(26.65 58.5)"/><path d="M4785.7 1811.06c0-4.42 3.6-8 8-8h124c4.42 0 8 3.58 8 8v83.68c0 4.4-3.58 8-8 8h-124c-4.4 0-8-3.6-8-8z" stroke="#000" stroke-opacity="0" stroke-width="2" fill="#259b9c"/><use xlink:href="#W" transform="matrix(1,0,0,1,4790.706294416845,1808.0559567802288) translate(29.099999999999994 48.15)"/><path d="M4505.7 1811.06c0-4.42 3.6-8 8-8h124c4.42 0 8 3.58 8 8v83.68c0 4.4-3.58 8-8 8h-124c-4.4 0-8-3.6-8-8z" stroke="#000" stroke-opacity="0" stroke-width="2" fill="#c92d39"/><use xlink:href="#X" transform="matrix(1,0,0,1,4510.706294416843,1808.055956780227) translate(30.099999999999994 48.15)"/><path d="M5106 1811.06c0-4.42 3.6-8 8-8h124c4.43 0 8 3.58 8 8v83.68c0 4.4-3.57 8-8 8h-124c-4.4 0-8-3.6-8-8z" stroke="#000" stroke-opacity="0" stroke-width="2" fill="#834187"/><use xlink:href="#Y" transform="matrix(1,0,0,1,5111.007618374819,1808.0559567802288) translate(9.124999999999993 48.15)"/><path d="M4856 1714.1v44.07c0 .1-.06.15-.14.15-.1 0-.15.07-.15.15v28.2" stroke="#333" fill="none"/><path d="M4856.5 1714.1h-1v-.5h1" fill="#333"/><path d="M4855.7 1801.44l-4.63-14.27h9.27z" stroke="#333" fill="#333"/><path d="M4856 1714.1v32.22c0 6.63-5.36 12-12 12h-256.3c-6.62 0-12 5.38-12 12v16.35" stroke="#333" fill="none"/><path d="M4856.5 1714.1h-1v-.5h1" fill="#333"/><path d="M4575.7 1801.44l-4.63-14.27h9.27z" stroke="#333" fill="#333"/><path d="M4856 1714.1v32.22c0 6.63 5.38 12 12 12h296c6.64 0 12 5.38 12 12v16.35" stroke="#333" fill="none"/><path d="M4856.5 1714.1h-1v-.5h1" fill="#333"/><path d="M5176 1801.44l-4.63-14.27h9.27z" stroke="#333" fill="#333"/><path d="M4725 2148c0-4.42 3.58-8 8-8h124c4.42 0 8 3.58 8 8v83.68c0 4.42-3.58 8-8 8h-124c-4.42 0-8-3.58-8-8z" stroke="#000" stroke-opacity="0" stroke-width="2" fill="#834187"/><use xlink:href="#Z" transform="matrix(1,0,0,1,4730.000000000001,2145) translate(45.05 36.9)"/><use xlink:href="#D" transform="matrix(1,0,0,1,4730.000000000001,2145) translate(9.124999999999993 58.5)"/><path d="M4240 592.34c0-4.4 3.58-8 8-8h124c4.42 0 8 3.6 8 8v83.68c0 4.42-3.58 8-8 8h-124c-4.42 0-8-3.58-8-8z" stroke="#000" stroke-opacity="0" stroke-width="2" fill="#c92d39"/><use xlink:href="#aa" transform="matrix(1,0,0,1,4245,589.3439199313419) translate(14.100000000000001 36.9)"/><use xlink:href="#ab" transform="matrix(1,0,0,1,4245,589.3439199313419) translate(90.94999999999999 36.9)"/><use xlink:href="#ac" transform="matrix(1,0,0,1,4245,589.3439199313419) translate(12.599999999999994 58.5)"/><use xlink:href="#ad" transform="matrix(1,0,0,1,4245,589.3439199313419) translate(86.5 58.5)"/><path d="M2593.43 380H4298c6.63 0 12 5.37 12 12v175.96" stroke="#333" fill="none"/><path d="M2593.44 380.5h-.54l.05-1h.5" fill="#333"/><path d="M4310 582.73l-4.64-14.27h9.28z" stroke="#333" fill="#333"/><path d="M2191 1930.67l.38 2.92 1.1 2.62 1.75 2.3 2.28 1.74 2.65 1.1 2.92.38h2361.57l2.92-.4 2.63-1.08 2.28-1.75 1.75-2.28 1.1-2.63.38-2.93v-26.93h2v27.06l-.43 3.3-1.3 3.13-2.07 2.7-2.7 2.08-3.12 1.3-3.3.44H2201.92l-3.3-.44-3.13-1.3-2.7-2.07-2.07-2.7-1.3-3.12-.43-3.3V708.35h2" fill="#19967d"/><path d="M4576.7 1903.76h-2v-1.02h2M2194.64 707.35h-9.28l4.64-14.27z" fill="#19967d"/><path d="M2196 708.35h-12l6-18.5m-3.26 16.5h6.52l-3.26-10.03" fill="#19967d"/><path d="M3405.15 859.92l3 1.24 2.6 2 2 2.6 1.23 3 .42 3.2v153.26h-1v-153.2l-.4-3-1.13-2.76-1.84-2.4-2.4-1.82-2.74-1.14-3.03-.4H3182v-1h219.94m-424.74 1v-1H3154v1" fill="#333"/><path d="M2977.2 860.5h-.53l.05-1h.5M3413.9 1039.98l-4.63-14.26h9.27z" fill="#333"/><path d="M3413.9 1041.6l-5.32-16.38h10.65m-9.27 1l3.94 12.15 3.95-12.15" fill="#333"/><use xlink:href="#o" transform="matrix(1,0,0,1,3154,849.2) translate(0.005000000000000782 14.4)"/><path d="M4304.23 1358.98c3.35-2.88 8.8-2.88 12.15 0l57.85 49.58c3.35 2.88 3.35 7.54 0 10.42l-57.85 49.58c-3.36 2.88-8.8 2.88-12.15 0l-57.85-49.58c-3.36-2.88-3.36-7.54 0-10.42z" stroke="#000" stroke-opacity="0" stroke-width="2" fill="#c92d39"/><use xlink:href="#ae" transform="matrix(1,0,0,1,4245.301323957974,1358.769841579135) translate(32.486481481481476 59.31597222222222)"/><path d="M4310 1304.2v36.32" stroke="#333" fill="none"/><path d="M4310.5 1304.2h-1v-.5h1" fill="#333"/><path d="M4310 1355.3l-4.64-14.28h9.28z" stroke="#333" fill="#333"/><path d="M4487.95 1413.7l3 1.23 2.6 2 2 2.6 1.24 3 .4 3.2v131.8h-1V1425.8l-.4-3-1.13-2.77-1.83-2.4-2.4-1.82-2.75-1.13-3.03-.4h-15v-1h15.07m-107.54 1v-1h63.13v1" fill="#333"/><path d="M4377.2 1414.27h-.53l.05-1h.5M4496.7 1572.3l-4.63-14.27h9.27z" fill="#333"/><path d="M4496.7 1573.9l-5.32-16.37h10.65m-9.27 1l3.95 12.14 3.95-12.14" fill="#333"/><use xlink:href="#q" transform="matrix(1,0,0,1,4440.325,1402.969841579135) translate(0.005000000000000782 14.4)"/><path d="M4096 1597.53v-11.62c0-6.62 5.38-12 12-12h736.7c6.63 0 12 5.38 12 12v11.63" stroke="#333" fill="none"/><path d="M4096 1612.3l-4.63-14.27h9.27zM4856.7 1612.3l-4.63-14.27h9.27z" stroke="#333" fill="#333"/><path d="M3173.93 1507.18c3.35-2.87 8.8-2.87 12.14 0l57.86 49.6c3.35 2.87 3.35 7.53 0 10.4l-57.86 49.6c-3.35 2.87-8.8 2.87-12.14 0l-57.86-49.6c-3.35-2.87-3.35-7.53 0-10.4z" stroke="#000" stroke-opacity="0" stroke-width="2" fill="#c92d39"/><use xlink:href="#b" transform="matrix(1,0,0,1,3114.9999999999995,1506.977731522343) translate(10.708703703703693 56.23222222222222)"/><path d="M3654.8 1414.27h-462.77l-3 .4-2.77 1.14-2.4 1.84-1.82 2.4-1.14 2.75-.4 3v62.9h-1v-62.96l.42-3.2 1.24-3 2-2.6 2.6-2 3-1.25 3.2-.43h462.85m588.6 1h-565.64v-1h565.64" fill="#333"/><path d="M4243.88 1414.26h-.5v-1h.55M3180 1503.48l-4.64-14.27h9.28z" fill="#333"/><path d="M3180 1505.1l-5.32-16.4h10.64m-9.27 1l3.95 12.16 3.95-12.15" fill="#333"/><use xlink:href="#L" transform="matrix(1,0,0,1,3654.812891020897,1402.969841579135) translate(0.005000000000000782 14.4)"/><path d="M3700 1621.9c0-4.4 3.58-8 8-8h124c4.42 0 8 3.6 8 8v83.7c0 4.4-3.58 8-8 8h-124c-4.42 0-8-3.6-8-8z" stroke="#000" stroke-opacity="0" stroke-width="2" fill="#c92d39"/><use xlink:href="#af" transform="matrix(1,0,0,1,3705,1618.9107469727785) translate(29.574999999999996 48.15)"/><path d="M3761.24 1561.9l3 1.24 2.6 2 2 2.6 1.24 3 .42 3.2v23.6h-1V1574l-.4-3-1.14-2.76-1.83-2.4-2.4-1.83-2.75-1.13-3-.4h-371.5v-1h371.55m-511.13 1v-1h110.24v1" fill="#333"/><path d="M3246.9 1562.48h-.53l.05-1h.5M3770 1612.3l-4.64-14.27h9.28z" fill="#333"/><path d="M3770 1613.9l-5.32-16.37h10.64m-9.27 1l3.95 12.14 3.95-12.14" fill="#333"/><use xlink:href="#q" transform="matrix(1,0,0,1,3357.1420012422464,1551.177731522343) translate(0.005000000000000782 14.4)"/><path d="M2821.37 1090.88l3.13 1.3 2.7 2.06 2.07 2.7 1.3 3.13.43 3.3v446.54l.38 2.93 1.1 2.63 1.75 2.3 2.28 1.74 2.65 1.1 2.92.38h34.72v2h-34.87l-3.3-.44-3.13-1.3-2.7-2.06-2.07-2.7-1.3-3.13-.43-3.3V1103.5l-.38-2.9-1.1-2.64-1.75-2.3-2.28-1.74-2.65-1.1-2.92-.38H2538.5v-2h279.57m294.53 470.54v2h-212.86v-2" fill="#19967d"/><path d="M3113.58 1562.46l.1.52h-1.1v-2h1.08M2537.5 1096.08l-14.26-4.64 14.26-4.63z" fill="#19967d"/><path d="M2538.5 1097.45l-18.5-6 18.5-6.02m-12.03 6l10.03 3.27v-6.52" fill="#19967d"/><use xlink:href="#L" transform="matrix(1,0,0,1,2876.785116176991,1551.177731522343) translate(0.005000000000000782 14.4)"/><path d="M4310 684.52v503.1" stroke="#333" fill="none"/><path d="M4310.5 684.54h-1v-.52h1" fill="#333"/><path d="M4310 1202.4l-4.64-14.27h9.28z" stroke="#333" fill="#333"/><path d="M3251 1246.5h482c6.63 0 12-5.38 12-12V646.17c0-6.62 5.37-12 12-12h464.5" stroke="#19967d" stroke-width="2" fill="none"/><path d="M3251.03 1247.5H3250v-2h1.03" fill="#19967d"/><path d="M4236.76 634.18l-14.26 4.64v-9.27z" stroke="#19967d" stroke-width="2" fill="#19967d"/><path d="M5173.6 2024.8c3.53-2.65 9.27-2.65 12.8 0l67.2 50.4c3.53 2.65 3.53 6.95 0 9.6l-67.2 50.4c-3.53 2.65-9.27 2.65-12.8 0l-67.2-50.4c-3.53-2.65-3.53-6.95 0-9.6z" stroke="#000" stroke-opacity="0" stroke-width="2" fill="#834187"/><use xlink:href="#ag" transform="matrix(1,0,0,1,5105,2025) translate(29.029999999999994 59.0875)"/><path d="M5568.26 2079.92l3 1.24 2.6 2 2 2.6 1.23 3 .42 3.2v31.66h-1v-31.6l-.4-3-1.14-2.76-1.84-2.4-2.4-1.82-2.74-1.14-3.02-.4h-103.73v-1h103.8m-308.4 1v-1h175.25v1" fill="#333"/><path d="M5256.65 2080.5h-.53l.04-1h.5M5577.02 2138.38l-4.64-14.26h9.27z" fill="#333"/><path d="M5577.02 2140l-5.33-16.38h10.64m-9.27 1l3.95 12.14 3.94-12.14" fill="#333"/><use xlink:href="#q" transform="matrix(1,0,0,1,5431.902842855018,2069.2) translate(0.005000000000000782 14.4)"/><path d="M5176 1903.24v103.92" stroke="#333" fill="none"/><path d="M5176.5 1903.25h-1v-.5h1" fill="#333"/><path d="M5176 2021.92l-4.63-14.26h9.27z" stroke="#333" fill="#333"/><path d="M5103.36 2080H4807c-6.63 0-12 5.37-12 12v31.62" stroke="#333" fill="none"/><path d="M5103.84 2080.5h-.5v-1h.54" fill="#333"/><path d="M4795 2138.38l-4.64-14.26h9.28z" stroke="#333" fill="#333"/><path d="M5507.02 2148c0-4.42 3.58-8 8-8h124c4.4 0 8 3.58 8 8v83.68c0 4.42-3.6 8-8 8h-124c-4.42 0-8-3.58-8-8z" stroke="#000" stroke-opacity="0" stroke-width="2" fill="#834187"/><use xlink:href="#ah" transform="matrix(1,0,0,1,5512.015236749637,2145) translate(37.5 36.9)"/><use xlink:href="#D" transform="matrix(1,0,0,1,5512.015236749637,2145) translate(9.124999999999993 58.5)"/><path d="M5055 168c0-4.42 3.58-8 8-8h529c4.42 0 8 3.58 8 8v712.88c0 4.42-3.58 8-8 8h-529c-4.42 0-8-3.58-8-8z" stroke="#333" stroke-width="3" fill="#fff"/><path d="M5325 249.12h240v60h-240z" fill="none"/><g><use xlink:href="#ai" transform="matrix(1,0,0,1,5325,249.12000000000057) translate(4.161728395061743 34.48888888888889)"/><use xlink:href="#aj" transform="matrix(1,0,0,1,5325,249.12000000000057) translate(82.5925925925926 34.48888888888889)"/><use xlink:href="#ak" transform="matrix(1,0,0,1,5325,249.12000000000057) translate(162.27037037037036 34.48888888888889)"/></g><path d="M5085 477.84c0-4.42 3.58-8 8-8h124c4.42 0 8 3.58 8 8v83.68c0 4.42-3.58 8-8 8h-124c-4.42 0-8-3.58-8-8z" stroke="#000" stroke-opacity="0" stroke-width="2" fill="#834187"/><g><use xlink:href="#al" transform="matrix(1,0,0,1,5090,474.84000000000003) translate(14.124999999999993 48.15)"/></g><path d="M5085 238.16c0-4.42 3.58-8 8-8h124c4.42 0 8 3.58 8 8v83.68c0 4.42-3.58 8-8 8h-124c-4.42 0-8-3.58-8-8z" stroke="#000" stroke-opacity="0" stroke-width="2" fill="#259b9c"/><g><use xlink:href="#am" transform="matrix(1,0,0,1,5090,235.16000000000022) translate(34.099999999999994 36.9)"/><use xlink:href="#an" transform="matrix(1,0,0,1,5090,235.16000000000022) translate(27.174999999999997 58.5)"/></g><path d="M5085 357.52c0-4.42 3.58-8 8-8h124c4.42 0 8 3.58 8 8v83.68c0 4.42-3.58 8-8 8h-124c-4.42 0-8-3.58-8-8z" stroke="#000" stroke-opacity="0" stroke-width="2" fill="#c92d39"/><g><use xlink:href="#ao" transform="matrix(1,0,0,1,5090,354.51999999999987) translate(34.575 48.15)"/></g><path d="M5085 598.16c0-4.42 3.58-8 8-8h124c4.42 0 8 3.58 8 8v83.68c0 4.42-3.58 8-8 8h-124c-4.42 0-8-3.58-8-8z" stroke="#000" stroke-opacity="0" stroke-width="2" fill="#3278ca"/><g><use xlink:href="#ap" transform="matrix(1,0,0,1,5090,595.1600000000002) translate(2.7249999999999943 48.15)"/></g><path d="M5065 718.48c0-4.42 3.58-8 8-8h200.53c4.42 0 8 3.58 8 8v143.68c0 4.42-3.58 8-8 8H5073c-4.42 0-8-3.58-8-8z" stroke="#000" stroke-opacity="0" stroke-width="2" fill="#f5b5c8"/><g><use xlink:href="#aq" transform="matrix(1,0,0,1,5070.000000000001,715.4800000000004) translate(39.14999999999999 80.025)"/><use xlink:href="#ar" transform="matrix(1,0,0,1,5070.000000000001,715.4800000000004) translate(127.9 80.025)"/></g><path d="M5365 369.36h120v60h-120z" fill="none"/><g><use xlink:href="#as" transform="matrix(1,0,0,1,5365,369.3599999999999) translate(23.90185185185186 34.48888888888889)"/></g><path d="M5305.3 490.56h240v60h-240z" fill="none"/><g><use xlink:href="#ai" transform="matrix(1,0,0,1,5305.301323957974,490.5599999999997) translate(22.241975308641983 34.48888888888889)"/><use xlink:href="#at" transform="matrix(1,0,0,1,5305.301323957974,490.5599999999997) translate(100.67283950617283 34.48888888888889)"/></g><path d="M5325 610h240v60h-240z" fill="none"/><g><use xlink:href="#au" transform="matrix(1,0,0,1,5325,610.0000000000002) translate(70.7780864197531 21.022222222222222)"/><use xlink:href="#av" transform="matrix(1,0,0,1,5325,610.0000000000002) translate(131.81450617283951 21.022222222222222)"/><use xlink:href="#aw" transform="matrix(1,0,0,1,5325,610.0000000000002) translate(48.98827160493829 47.95555555555555)"/></g><path d="M5305.3 760.32h240v60h-240z" fill="none"/><g><use xlink:href="#ax" transform="matrix(1,0,0,1,5305.301323957974,760.3200000000004) translate(44.65524691358027 34.48888888888889)"/><use xlink:href="#ay" transform="matrix(1,0,0,1,5305.301323957974,760.3200000000004) translate(144.28364197530863 34.48888888888889)"/></g><path d="M5055 168c0-4.42 3.58-8 8-8h529c4.42 0 8 3.58 8 8v34.84c0 4.42-3.58 8-8 8h-529c-4.42 0-8-3.58-8-8z" stroke="#000" stroke-opacity="0" stroke-width="2" fill="#e5e5e5"/><g><use xlink:href="#az" transform="matrix(1,0,0,1,5060,165) translate(207.82222222222225 25.851388888888884)"/></g><path d="M4406 1621.9c0-4.4 3.6-8 8-8h124c4.43 0 8 3.6 8 8v83.7c0 4.4-3.57 8-8 8h-124c-4.4 0-8-3.6-8-8z" stroke="#000" stroke-opacity="0" stroke-width="2" fill="#c92d39"/><g><use xlink:href="#aA" transform="matrix(1,0,0,1,4411.007618374818,1618.9107469727785) translate(17.64999999999999 48.15)"/><use xlink:href="#aB" transform="matrix(1,0,0,1,4411.007618374818,1618.9107469727785) translate(62.5 48.15)"/></g><path d="M4476 1597.53v-23.12" stroke="#333" fill="none"/><path d="M4476 1612.3l-4.63-14.27h9.27z" stroke="#333" fill="#333"/><path d="M4476 1574.42v-.5" stroke="#333" fill="none"/><defs><path fill="#fff" d="M186 0v-106H76V0H24v-248h52v99h110v-99h50V0h-50" id="aC"/><path fill="#fff" d="M110-194c64 0 96 36 96 99 0 64-35 99-97 99-61 0-95-36-95-99 0-62 34-99 96-99zm-1 164c35 0 45-28 45-65 0-40-10-65-43-65-34 0-45 26-45 65 0 36 10 65 43 65" id="aD"/><path fill="#fff" d="M220-157c-53 9-28 100-34 157h-49v-107c1-27-5-49-29-50C55-147 81-57 75 0H25l-1-190h47c2 12-1 28 3 38 10-53 101-56 108 0 13-22 24-43 59-42 82 1 51 116 57 194h-49v-107c-1-25-5-48-29-50" id="aE"/><path fill="#fff" d="M185-48c-13 30-37 53-82 52C43 2 14-33 14-96s30-98 90-98c62 0 83 45 84 108H66c0 31 8 55 39 56 18 0 30-7 34-22zm-45-69c5-46-57-63-70-21-2 6-4 13-4 21h74" id="aF"/><g id="a"><use transform="matrix(0.05,0,0,0.05,0,0)" xlink:href="#aC"/><use transform="matrix(0.05,0,0,0.05,12.950000000000001,0)" xlink:href="#aD"/><use transform="matrix(0.05,0,0,0.05,23.900000000000002,0)" xlink:href="#aE"/><use transform="matrix(0.05,0,0,0.05,39.900000000000006,0)" xlink:href="#aF"/></g><path fill="#fff" d="M205 0l-28-72H64L36 0H1l101-248h38L239 0h-34zm-38-99l-47-123c-12 45-31 82-46 123h93" id="aG"/><path fill="#fff" d="M84 4C-5 8 30-112 23-190h32v120c0 31 7 50 39 49 72-2 45-101 50-169h31l1 190h-30c-1-10 1-25-2-33-11 22-28 36-60 37" id="aH"/><path fill="#fff" d="M59-47c-2 24 18 29 38 22v24C64 9 27 4 27-40v-127H5v-23h24l9-43h21v43h35v23H59v120" id="aI"/><path fill="#fff" d="M106-169C34-169 62-67 57 0H25v-261h32l-1 103c12-21 28-36 61-36 89 0 53 116 60 194h-32v-121c2-32-8-49-39-48" id="aJ"/><path fill="#fff" d="M100-194c63 0 86 42 84 106H49c0 40 14 67 53 68 26 1 43-12 49-29l28 8c-11 28-37 45-77 45C44 4 14-33 15-96c1-61 26-98 85-98zm52 81c6-60-76-77-97-28-3 7-6 17-6 28h103" id="aK"/><path fill="#fff" d="M117-194c89-4 53 116 60 194h-32v-121c0-31-8-49-39-48C34-167 62-67 57 0H25l-1-190h30c1 10-1 24 2 32 11-22 29-35 61-36" id="aL"/><path fill="#fff" d="M24-231v-30h32v30H24zM24 0v-190h32V0H24" id="aM"/><path fill="#fff" d="M96-169c-40 0-48 33-48 73s9 75 48 75c24 0 41-14 43-38l32 2c-6 37-31 61-74 61-59 0-76-41-82-99-10-93 101-131 147-64 4 7 5 14 7 22l-32 3c-4-21-16-35-41-35" id="aN"/><path fill="#fff" d="M141-36C126-15 110 5 73 4 37 3 15-17 15-53c-1-64 63-63 125-63 3-35-9-54-41-54-24 1-41 7-42 31l-33-3c5-37 33-52 76-52 45 0 72 20 72 64v82c-1 20 7 32 28 27v20c-31 9-61-2-59-35zM48-53c0 20 12 33 32 33 41-3 63-29 60-74-43 2-92-5-92 41" id="aO"/><path fill="#fff" d="M85-194c31 0 48 13 60 33l-1-100h32l1 261h-30c-2-10 0-23-3-31C134-8 116 4 85 4 32 4 16-35 15-94c0-66 23-100 70-100zm9 24c-40 0-46 34-46 75 0 40 6 74 45 74 42 0 51-32 51-76 0-42-9-74-50-73" id="aP"/><g id="b"><use transform="matrix(0.04938271604938272,0,0,0.04938271604938272,0,0)" xlink:href="#aG"/><use transform="matrix(0.04938271604938272,0,0,0.04938271604938272,11.851851851851853,0)" xlink:href="#aH"/><use transform="matrix(0.04938271604938272,0,0,0.04938271604938272,21.7283950617284,0)" xlink:href="#aI"/><use transform="matrix(0.04938271604938272,0,0,0.04938271604938272,26.666666666666668,0)" xlink:href="#aJ"/><use transform="matrix(0.04938271604938272,0,0,0.04938271604938272,36.543209876543216,0)" xlink:href="#aK"/><use transform="matrix(0.04938271604938272,0,0,0.04938271604938272,46.41975308641976,0)" xlink:href="#aL"/><use transform="matrix(0.04938271604938272,0,0,0.04938271604938272,56.2962962962963,0)" xlink:href="#aI"/><use transform="matrix(0.04938271604938272,0,0,0.04938271604938272,61.23456790123457,0)" xlink:href="#aM"/><use transform="matrix(0.04938271604938272,0,0,0.04938271604938272,65.13580246913581,0)" xlink:href="#aN"/><use transform="matrix(0.04938271604938272,0,0,0.04938271604938272,74.0246913580247,0)" xlink:href="#aO"/><use transform="matrix(0.04938271604938272,0,0,0.04938271604938272,83.90123456790124,0)" xlink:href="#aI"/><use transform="matrix(0.04938271604938272,0,0,0.04938271604938272,88.83950617283952,0)" xlink:href="#aK"/><use transform="matrix(0.04938271604938272,0,0,0.04938271604938272,98.71604938271606,0)" xlink:href="#aP"/></g><path fill="#a9afb8" d="M25-224v-37h50v37H25zM25 0v-190h50V0H25" id="aQ"/><path fill="#a9afb8" d="M24 0v-248h52v208h133V0H24" id="aR"/><path fill="#a9afb8" d="M185-48c-13 30-37 53-82 52C43 2 14-33 14-96s30-98 90-98c62 0 83 45 84 108H66c0 31 8 55 39 56 18 0 30-7 34-22zm-45-69c5-46-57-63-70-21-2 6-4 13-4 21h74" id="aS"/><path fill="#a9afb8" d="M133-34C117-15 103 5 69 4 32 3 11-16 11-54c-1-60 55-63 116-61 1-26-3-47-28-47-18 1-26 9-28 27l-52-2c7-38 36-58 82-57s74 22 75 68l1 82c-1 14 12 18 25 15v27c-30 8-71 5-69-32zm-48 3c29 0 43-24 42-57-32 0-66-3-65 30 0 17 8 27 23 27" id="aT"/><path fill="#a9afb8" d="M135-150c-39-12-60 13-60 57V0H25l-1-190h47c2 13-1 29 3 40 6-28 27-53 61-41v41" id="aU"/><path fill="#a9afb8" d="M135-194c87-1 58 113 63 194h-50c-7-57 23-157-34-157-59 0-34 97-39 157H25l-1-190h47c2 12-1 28 3 38 12-26 28-41 61-42" id="aV"/><g id="c"><use transform="matrix(0.0728395061728395,0,0,0.0728395061728395,0,0)" xlink:href="#aQ"/><use transform="matrix(0.0728395061728395,0,0,0.0728395061728395,7.28395061728395,0)" xlink:href="#aR"/><use transform="matrix(0.0728395061728395,0,0,0.0728395061728395,23.235802469135802,0)" xlink:href="#aS"/><use transform="matrix(0.0728395061728395,0,0,0.0728395061728395,37.803703703703704,0)" xlink:href="#aT"/><use transform="matrix(0.0728395061728395,0,0,0.0728395061728395,52.3716049382716,0)" xlink:href="#aU"/><use transform="matrix(0.0728395061728395,0,0,0.0728395061728395,62.569135802469134,0)" xlink:href="#aV"/></g><path fill="#a9afb8" d="M199 0l-22-63H83L61 0H9l90-248h61L250 0h-51zm-33-102l-36-108c-10 38-24 72-36 108h72" id="aW"/><path fill="#a9afb8" d="M135-194c53 0 70 44 70 98 0 56-19 98-73 100-31 1-45-17-59-34 3 33 2 69 2 105H25l-1-265h48c2 10 0 23 3 31 11-24 29-35 60-35zM114-30c33 0 39-31 40-66 0-38-9-64-40-64-56 0-55 130 0 130" id="aX"/><g id="d"><use transform="matrix(0.0728395061728395,0,0,0.0728395061728395,0,0)" xlink:href="#aW"/><use transform="matrix(0.0728395061728395,0,0,0.0728395061728395,18.86543209876543,0)" xlink:href="#aX"/><use transform="matrix(0.0728395061728395,0,0,0.0728395061728395,34.81728395061728,0)" xlink:href="#aX"/></g><path fill="#a9afb8" d="M169-182c-1-43-94-46-97-3 18 66 151 10 154 114 3 95-165 93-204 36-6-8-10-19-12-30l50-8c3 46 112 56 116 5-17-69-150-10-154-114-4-87 153-88 188-35 5 8 8 18 10 28" id="aY"/><path fill="#a9afb8" d="M115-3C79 11 28 4 28-45v-112H4v-33h27l15-45h31v45h36v33H77v99c-1 23 16 31 38 25v30" id="aZ"/><g id="e"><use transform="matrix(0.0728395061728395,0,0,0.0728395061728395,0,0)" xlink:href="#aY"/><use transform="matrix(0.0728395061728395,0,0,0.0728395061728395,17.48148148148148,0)" xlink:href="#aQ"/><use transform="matrix(0.0728395061728395,0,0,0.0728395061728395,24.76543209876543,0)" xlink:href="#aZ"/><use transform="matrix(0.0728395061728395,0,0,0.0728395061728395,33.43333333333333,0)" xlink:href="#aS"/></g><path fill="#a9afb8" d="M230 0l2-204L168 0h-37L68-204 70 0H24v-248h70l56 185 57-185h69V0h-46" id="ba"/><g id="f"><use transform="matrix(0.0728395061728395,0,0,0.0728395061728395,0,0)" xlink:href="#ba"/><use transform="matrix(0.0728395061728395,0,0,0.0728395061728395,21.77901234567901,0)" xlink:href="#aT"/><use transform="matrix(0.0728395061728395,0,0,0.0728395061728395,36.34691358024691,0)" xlink:href="#aX"/></g><path fill="#a9afb8" d="M30-248c87 1 191-15 191 75 0 78-77 80-158 76V0H30v-248zm33 125c57 0 124 11 124-50 0-59-68-47-124-48v98" id="bb"/><path fill="#a9afb8" d="M100-194c63 0 86 42 84 106H49c0 40 14 67 53 68 26 1 43-12 49-29l28 8c-11 28-37 45-77 45C44 4 14-33 15-96c1-61 26-98 85-98zm52 81c6-60-76-77-97-28-3 7-6 17-6 28h103" id="bc"/><path fill="#a9afb8" d="M59-47c-2 24 18 29 38 22v24C64 9 27 4 27-40v-127H5v-23h24l9-43h21v43h35v23H59v120" id="bd"/><path fill="#a9afb8" d="M114-163C36-179 61-72 57 0H25l-1-190h30c1 12-1 29 2 39 6-27 23-49 58-41v29" id="be"/><g id="g"><use transform="matrix(0.04248971193415638,0,0,0.04248971193415638,0,0)" xlink:href="#bb"/><use transform="matrix(0.04248971193415638,0,0,0.04248971193415638,10.19753086419753,0)" xlink:href="#bc"/><use transform="matrix(0.04248971193415638,0,0,0.04248971193415638,18.695473251028805,0)" xlink:href="#bd"/><use transform="matrix(0.04248971193415638,0,0,0.04248971193415638,22.944444444444443,0)" xlink:href="#bc"/><use transform="matrix(0.04248971193415638,0,0,0.04248971193415638,31.44238683127572,0)" xlink:href="#be"/></g><path fill="#a9afb8" d="M205 0l-28-72H64L36 0H1l101-248h38L239 0h-34zm-38-99l-47-123c-12 45-31 82-46 123h93" id="bf"/><path fill="#a9afb8" d="M24 0v-261h32V0H24" id="bg"/><path fill="#a9afb8" d="M141-36C126-15 110 5 73 4 37 3 15-17 15-53c-1-64 63-63 125-63 3-35-9-54-41-54-24 1-41 7-42 31l-33-3c5-37 33-52 76-52 45 0 72 20 72 64v82c-1 20 7 32 28 27v20c-31 9-61-2-59-35zM48-53c0 20 12 33 32 33 41-3 63-29 60-74-43 2-92-5-92 41" id="bh"/><path fill="#a9afb8" d="M115-194c53 0 69 39 70 98 0 66-23 100-70 100C84 3 66-7 56-30L54 0H23l1-261h32v101c10-23 28-34 59-34zm-8 174c40 0 45-34 45-75 0-40-5-75-45-74-42 0-51 32-51 76 0 43 10 73 51 73" id="bi"/><path fill="#a9afb8" d="M24-231v-30h32v30H24zM24 0v-190h32V0H24" id="bj"/><g id="h"><use transform="matrix(0.04248971193415638,0,0,0.04248971193415638,0,0)" xlink:href="#bf"/><use transform="matrix(0.04248971193415638,0,0,0.04248971193415638,10.19753086419753,0)" xlink:href="#bg"/><use transform="matrix(0.04248971193415638,0,0,0.04248971193415638,13.554218106995881,0)" xlink:href="#bh"/><use transform="matrix(0.04248971193415638,0,0,0.04248971193415638,22.05216049382716,0)" xlink:href="#bi"/><use transform="matrix(0.04248971193415638,0,0,0.04248971193415638,30.550102880658436,0)" xlink:href="#bj"/></g><path fill="#a9afb8" d="M32 76v-337h29V76H32" id="bk"/><use transform="matrix(0.04248971193415638,0,0,0.04248971193415638,0,0)" xlink:href="#bk" id="i"/><path fill="#a9afb8" d="M30-248c118-7 216 8 213 122C240-48 200 0 122 0H30v-248zM63-27c89 8 146-16 146-99s-60-101-146-95v194" id="bl"/><path fill="#a9afb8" d="M96-169c-40 0-48 33-48 73s9 75 48 75c24 0 41-14 43-38l32 2c-6 37-31 61-74 61-59 0-76-41-82-99-10-93 101-131 147-64 4 7 5 14 7 22l-32 3c-4-21-16-35-41-35" id="bm"/><path fill="#a9afb8" d="M210-169c-67 3-38 105-44 169h-31v-121c0-29-5-50-35-48C34-165 62-65 56 0H25l-1-190h30c1 10-1 24 2 32 10-44 99-50 107 0 11-21 27-35 58-36 85-2 47 119 55 194h-31v-121c0-29-5-49-35-48" id="bn"/><g id="j"><use transform="matrix(0.04248971193415638,0,0,0.04248971193415638,0,0)" xlink:href="#bl"/><use transform="matrix(0.04248971193415638,0,0,0.04248971193415638,11.004835390946502,0)" xlink:href="#bc"/><use transform="matrix(0.04248971193415638,0,0,0.04248971193415638,19.502777777777776,0)" xlink:href="#bm"/><use transform="matrix(0.04248971193415638,0,0,0.04248971193415638,27.150925925925925,0)" xlink:href="#bc"/><use transform="matrix(0.04248971193415638,0,0,0.04248971193415638,35.6488683127572,0)" xlink:href="#bn"/><use transform="matrix(0.04248971193415638,0,0,0.04248971193415638,48.35329218106995,0)" xlink:href="#bi"/><use transform="matrix(0.04248971193415638,0,0,0.04248971193415638,56.851234567901244,0)" xlink:href="#bc"/><use transform="matrix(0.04248971193415638,0,0,0.04248971193415638,65.34917695473251,0)" xlink:href="#be"/></g><path fill="#a9afb8" d="M27 0v-27h64v-190l-56 39v-29l58-41h29v221h61V0H27" id="bo"/><path fill="#a9afb8" d="M68-38c1 34 0 65-14 84H32c9-13 17-26 17-46H33v-38h35" id="bp"/><g id="k"><use transform="matrix(0.04248971193415638,0,0,0.04248971193415638,0,0)" xlink:href="#bo"/><use transform="matrix(0.04248971193415638,0,0,0.04248971193415638,7.350720164609052,0)" xlink:href="#bo"/><use transform="matrix(0.04248971193415638,0,0,0.04248971193415638,15.848662551440325,0)" xlink:href="#bp"/></g><path fill="#a9afb8" d="M101-251c82-7 93 87 43 132L82-64C71-53 59-42 53-27h129V0H18c2-99 128-94 128-182 0-28-16-43-45-43s-46 15-49 41l-32-3c6-41 34-60 81-64" id="bq"/><path fill="#a9afb8" d="M101-251c68 0 85 55 85 127S166 4 100 4C33 4 14-52 14-124c0-73 17-127 87-127zm-1 229c47 0 54-49 54-102s-4-102-53-102c-51 0-55 48-55 102 0 53 5 102 54 102" id="br"/><g id="l"><use transform="matrix(0.04248971193415638,0,0,0.04248971193415638,0,0)" xlink:href="#bq"/><use transform="matrix(0.04248971193415638,0,0,0.04248971193415638,8.497942386831275,0)" xlink:href="#br"/><use transform="matrix(0.04248971193415638,0,0,0.04248971193415638,16.99588477366255,0)" xlink:href="#bq"/><use transform="matrix(0.04248971193415638,0,0,0.04248971193415638,25.493827160493822,0)" xlink:href="#bo"/></g><path fill="#fff" d="M230 0l2-204L168 0h-37L68-204 70 0H24v-248h70l56 185 57-185h69V0h-46" id="bs"/><path fill="#fff" d="M123 10C108 53 80 86 19 72V37c35 8 53-11 59-39L3-190h52l48 148c12-52 28-100 44-148h51" id="bt"/><g id="m"><use transform="matrix(0.05,0,0,0.05,0,0)" xlink:href="#bs"/><use transform="matrix(0.05,0,0,0.05,14.950000000000001,0)" xlink:href="#bt"/></g><path fill="#fff" d="M67-125c0 53 21 87 73 88 37 1 54-22 65-47l45 17C233-25 199 4 140 4 58 4 20-42 15-125 8-235 124-281 211-232c18 10 29 29 36 50l-46 12c-8-25-30-41-62-41-52 0-71 34-72 86" id="bu"/><path fill="#fff" d="M85 4C-2 5 27-109 22-190h50c7 57-23 150 33 157 60-5 35-97 40-157h50l1 190h-47c-2-12 1-28-3-38-12 25-28 42-61 42" id="bv"/><path fill="#fff" d="M135-150c-39-12-60 13-60 57V0H25l-1-190h47c2 13-1 29 3 40 6-28 27-53 61-41v41" id="bw"/><path fill="#fff" d="M137-138c1-29-70-34-71-4 15 46 118 7 119 86 1 83-164 76-172 9l43-7c4 19 20 25 44 25 33 8 57-30 24-41C81-84 22-81 20-136c-2-80 154-74 161-7" id="bx"/><g id="n"><use transform="matrix(0.05,0,0,0.05,0,0)" xlink:href="#bu"/><use transform="matrix(0.05,0,0,0.05,12.950000000000001,0)" xlink:href="#aD"/><use transform="matrix(0.05,0,0,0.05,23.900000000000002,0)" xlink:href="#bv"/><use transform="matrix(0.05,0,0,0.05,34.85,0)" xlink:href="#bw"/><use transform="matrix(0.05,0,0,0.05,41.85,0)" xlink:href="#bx"/><use transform="matrix(0.05,0,0,0.05,51.85,0)" xlink:href="#aF"/><use transform="matrix(0.05,0,0,0.05,61.85,0)" xlink:href="#bx"/></g><path fill="#333" d="M179-190L93 31C79 59 56 82 12 73V49c39 6 53-20 64-50L1-190h34L92-34l54-156h33" id="by"/><path fill="#333" d="M100-194c63 0 86 42 84 106H49c0 40 14 67 53 68 26 1 43-12 49-29l28 8c-11 28-37 45-77 45C44 4 14-33 15-96c1-61 26-98 85-98zm52 81c6-60-76-77-97-28-3 7-6 17-6 28h103" id="bz"/><path fill="#333" d="M135-143c-3-34-86-38-87 0 15 53 115 12 119 90S17 21 10-45l28-5c4 36 97 45 98 0-10-56-113-15-118-90-4-57 82-63 122-42 12 7 21 19 24 35" id="bA"/><g id="o"><use transform="matrix(0.05,0,0,0.05,0,0)" xlink:href="#by"/><use transform="matrix(0.05,0,0,0.05,9,0)" xlink:href="#bz"/><use transform="matrix(0.05,0,0,0.05,19,0)" xlink:href="#bA"/></g><path fill="#fff" d="M33 0v-248h34V0H33" id="bB"/><path fill="#fff" d="M135-143c-3-34-86-38-87 0 15 53 115 12 119 90S17 21 10-45l28-5c4 36 97 45 98 0-10-56-113-15-118-90-4-57 82-63 122-42 12 7 21 19 24 35" id="bC"/><path fill="#fff" d="M114-163C36-179 61-72 57 0H25l-1-190h30c1 12-1 29 2 39 6-27 23-49 58-41v29" id="bD"/><path fill="#fff" d="M100-194c62-1 85 37 85 99 1 63-27 99-86 99S16-35 15-95c0-66 28-99 85-99zM99-20c44 1 53-31 53-75 0-43-8-75-51-75s-53 32-53 75 10 74 51 75" id="bE"/><g id="p"><use transform="matrix(0.04938271604938272,0,0,0.04938271604938272,0,0)" xlink:href="#bB"/><use transform="matrix(0.04938271604938272,0,0,0.04938271604938272,4.938271604938272,0)" xlink:href="#aL"/><use transform="matrix(0.04938271604938272,0,0,0.04938271604938272,14.814814814814817,0)" xlink:href="#bC"/><use transform="matrix(0.04938271604938272,0,0,0.04938271604938272,23.703703703703706,0)" xlink:href="#aI"/><use transform="matrix(0.04938271604938272,0,0,0.04938271604938272,28.641975308641978,0)" xlink:href="#bD"/><use transform="matrix(0.04938271604938272,0,0,0.04938271604938272,34.51851851851852,0)" xlink:href="#aH"/><use transform="matrix(0.04938271604938272,0,0,0.04938271604938272,44.39506172839506,0)" xlink:href="#aN"/><use transform="matrix(0.04938271604938272,0,0,0.04938271604938272,53.28395061728394,0)" xlink:href="#aI"/><use transform="matrix(0.04938271604938272,0,0,0.04938271604938272,58.222222222222214,0)" xlink:href="#bE"/><use transform="matrix(0.04938271604938272,0,0,0.04938271604938272,68.09876543209876,0)" xlink:href="#bD"/></g><path fill="#333" d="M137-103V0h-34v-103L8-248h37l75 118 75-118h37" id="bF"/><g id="q"><use transform="matrix(0.05,0,0,0.05,0,0)" xlink:href="#bF"/><use transform="matrix(0.05,0,0,0.05,10.35,0)" xlink:href="#bz"/><use transform="matrix(0.05,0,0,0.05,20.35,0)" xlink:href="#bA"/></g><path fill="#fff" d="M169-182c-1-43-94-46-97-3 18 66 151 10 154 114 3 95-165 93-204 36-6-8-10-19-12-30l50-8c3 46 112 56 116 5-17-69-150-10-154-114-4-87 153-88 188-35 5 8 8 18 10 28" id="bG"/><path fill="#fff" d="M135-194c52 0 70 43 70 98 0 56-19 99-73 100-30 1-46-15-58-35L72 0H24l1-261h50v104c11-23 29-37 60-37zM114-30c31 0 40-27 40-66 0-37-7-63-39-63s-41 28-41 65c0 36 8 64 40 64" id="bH"/><path fill="#fff" d="M25-224v-37h50v37H25zM25 0v-190h50V0H25" id="bI"/><path fill="#fff" d="M115-3C79 11 28 4 28-45v-112H4v-33h27l15-45h31v45h36v33H77v99c-1 23 16 31 38 25v30" id="bJ"/><path fill="#fff" d="M88-194c31-1 46 15 58 34l-1-101h50l1 261h-48c-2-10 0-23-3-31C134-8 116 4 84 4 32 4 16-41 15-95c0-56 19-97 73-99zm17 164c33 0 40-30 41-66 1-37-9-64-41-64s-38 30-39 65c0 43 13 65 39 65" id="bK"/><g id="r"><use transform="matrix(0.05,0,0,0.05,0,0)" xlink:href="#bG"/><use transform="matrix(0.05,0,0,0.05,12,0)" xlink:href="#bv"/><use transform="matrix(0.05,0,0,0.05,22.950000000000003,0)" xlink:href="#bH"/><use transform="matrix(0.05,0,0,0.05,33.900000000000006,0)" xlink:href="#aE"/><use transform="matrix(0.05,0,0,0.05,49.900000000000006,0)" xlink:href="#bI"/><use transform="matrix(0.05,0,0,0.05,54.900000000000006,0)" xlink:href="#bJ"/><use transform="matrix(0.05,0,0,0.05,60.85,0)" xlink:href="#bJ"/><use transform="matrix(0.05,0,0,0.05,66.80000000000001,0)" xlink:href="#aF"/><use transform="matrix(0.05,0,0,0.05,76.80000000000001,0)" xlink:href="#bK"/></g><g id="s"><use transform="matrix(0.05,0,0,0.05,0,0)" xlink:href="#bu"/><use transform="matrix(0.05,0,0,0.05,12.950000000000001,0)" xlink:href="#aD"/><use transform="matrix(0.05,0,0,0.05,23.900000000000002,0)" xlink:href="#bv"/><use transform="matrix(0.05,0,0,0.05,34.85,0)" xlink:href="#bw"/><use transform="matrix(0.05,0,0,0.05,41.85,0)" xlink:href="#bx"/><use transform="matrix(0.05,0,0,0.05,51.85,0)" xlink:href="#aF"/><use transform="matrix(0.05,0,0,0.05,61.85,0)" xlink:href="#bx"/></g><path fill="#fff" d="M133-34C117-15 103 5 69 4 32 3 11-16 11-54c-1-60 55-63 116-61 1-26-3-47-28-47-18 1-26 9-28 27l-52-2c7-38 36-58 82-57s74 22 75 68l1 82c-1 14 12 18 25 15v27c-30 8-71 5-69-32zm-48 3c29 0 43-24 42-57-32 0-66-3-65 30 0 17 8 27 23 27" id="bL"/><g id="t"><use transform="matrix(0.05,0,0,0.05,0,0)" xlink:href="#bu"/><use transform="matrix(0.05,0,0,0.05,12.950000000000001,0)" xlink:href="#bw"/><use transform="matrix(0.05,0,0,0.05,19.950000000000003,0)" xlink:href="#aF"/><use transform="matrix(0.05,0,0,0.05,29.950000000000003,0)" xlink:href="#bL"/><use transform="matrix(0.05,0,0,0.05,39.95,0)" xlink:href="#bJ"/><use transform="matrix(0.05,0,0,0.05,45.900000000000006,0)" xlink:href="#aF"/></g><g id="u"><use transform="matrix(0.05,0,0,0.05,0,0)" xlink:href="#bu"/><use transform="matrix(0.05,0,0,0.05,12.950000000000001,0)" xlink:href="#aD"/><use transform="matrix(0.05,0,0,0.05,23.900000000000002,0)" xlink:href="#bv"/><use transform="matrix(0.05,0,0,0.05,34.85,0)" xlink:href="#bw"/><use transform="matrix(0.05,0,0,0.05,41.85,0)" xlink:href="#bx"/><use transform="matrix(0.05,0,0,0.05,51.85,0)" xlink:href="#aF"/></g><g id="v"><use transform="matrix(0.05,0,0,0.05,0,0)" xlink:href="#bu"/><use transform="matrix(0.05,0,0,0.05,12.950000000000001,0)" xlink:href="#aD"/><use transform="matrix(0.05,0,0,0.05,23.900000000000002,0)" xlink:href="#bv"/><use transform="matrix(0.05,0,0,0.05,34.85,0)" xlink:href="#bw"/><use transform="matrix(0.05,0,0,0.05,41.85,0)" xlink:href="#bx"/><use transform="matrix(0.05,0,0,0.05,51.85,0)" xlink:href="#aF"/><use transform="matrix(0.05,0,0,0.05,61.85,0)" xlink:href="#bx"/></g><path fill="#fff" d="M24 0v-248h195v40H76v63h132v40H76v65h150V0H24" id="bM"/><g id="w"><use transform="matrix(0.05,0,0,0.05,0,0)" xlink:href="#bM"/><use transform="matrix(0.05,0,0,0.05,12,0)" xlink:href="#bK"/><use transform="matrix(0.05,0,0,0.05,22.950000000000003,0)" xlink:href="#bI"/><use transform="matrix(0.05,0,0,0.05,27.950000000000003,0)" xlink:href="#bJ"/></g><g id="x"><use transform="matrix(0.05,0,0,0.05,0,0)" xlink:href="#bM"/><use transform="matrix(0.05,0,0,0.05,12,0)" xlink:href="#bK"/><use transform="matrix(0.05,0,0,0.05,22.950000000000003,0)" xlink:href="#bI"/><use transform="matrix(0.05,0,0,0.05,27.950000000000003,0)" xlink:href="#bJ"/></g><path fill="#fff" d="M25 0v-261h50V0H25" id="bN"/><g id="y"><use transform="matrix(0.05,0,0,0.05,0,0)" xlink:href="#aE"/><use transform="matrix(0.05,0,0,0.05,16,0)" xlink:href="#aD"/><use transform="matrix(0.05,0,0,0.05,26.950000000000003,0)" xlink:href="#bK"/><use transform="matrix(0.05,0,0,0.05,37.900000000000006,0)" xlink:href="#bv"/><use transform="matrix(0.05,0,0,0.05,48.85000000000001,0)" xlink:href="#bN"/><use transform="matrix(0.05,0,0,0.05,53.85,0)" xlink:href="#aF"/></g><path fill="#fff" d="M135-194c87-1 58 113 63 194h-50c-7-57 23-157-34-157-59 0-34 97-39 157H25l-1-190h47c2 12-1 28 3 38 12-26 28-41 61-42" id="bO"/><path fill="#fff" d="M195-6C206 82 75 100 31 46c-4-6-6-13-8-21l49-6c3 16 16 24 34 25 40 0 42-37 40-79-11 22-30 35-61 35-53 0-70-43-70-97 0-56 18-96 73-97 30 0 46 14 59 34l2-30h47zm-90-29c32 0 41-27 41-63 0-35-9-62-40-62-32 0-39 29-40 63 0 36 9 62 39 62" id="bP"/><g id="z"><use transform="matrix(0.05,0,0,0.05,0,0)" xlink:href="#bs"/><use transform="matrix(0.05,0,0,0.05,14.950000000000001,0)" xlink:href="#bL"/><use transform="matrix(0.05,0,0,0.05,24.950000000000003,0)" xlink:href="#bO"/><use transform="matrix(0.05,0,0,0.05,35.900000000000006,0)" xlink:href="#bL"/><use transform="matrix(0.05,0,0,0.05,45.900000000000006,0)" xlink:href="#bP"/><use transform="matrix(0.05,0,0,0.05,56.85,0)" xlink:href="#aF"/></g><g id="A"><use transform="matrix(0.05,0,0,0.05,0,0)" xlink:href="#bs"/><use transform="matrix(0.05,0,0,0.05,14.950000000000001,0)" xlink:href="#aD"/><use transform="matrix(0.05,0,0,0.05,25.900000000000002,0)" xlink:href="#bK"/><use transform="matrix(0.05,0,0,0.05,36.85,0)" xlink:href="#bv"/><use transform="matrix(0.05,0,0,0.05,47.800000000000004,0)" xlink:href="#bN"/><use transform="matrix(0.05,0,0,0.05,52.800000000000004,0)" xlink:href="#aF"/></g><g id="B"><use transform="matrix(0.05,0,0,0.05,0,0)" xlink:href="#bu"/><use transform="matrix(0.05,0,0,0.05,12.950000000000001,0)" xlink:href="#aD"/><use transform="matrix(0.05,0,0,0.05,23.900000000000002,0)" xlink:href="#bO"/><use transform="matrix(0.05,0,0,0.05,34.85,0)" xlink:href="#bJ"/><use transform="matrix(0.05,0,0,0.05,40.800000000000004,0)" xlink:href="#aF"/><use transform="matrix(0.05,0,0,0.05,50.800000000000004,0)" xlink:href="#bO"/><use transform="matrix(0.05,0,0,0.05,61.75,0)" xlink:href="#bJ"/></g><g id="C"><use transform="matrix(0.05,0,0,0.05,0,0)" xlink:href="#bM"/><use transform="matrix(0.05,0,0,0.05,12,0)" xlink:href="#bK"/><use transform="matrix(0.05,0,0,0.05,22.950000000000003,0)" xlink:href="#bI"/><use transform="matrix(0.05,0,0,0.05,27.950000000000003,0)" xlink:href="#bJ"/></g><path fill="#fff" d="M199 0l-22-63H83L61 0H9l90-248h61L250 0h-51zm-33-102l-36-108c-10 38-24 72-36 108h72" id="bQ"/><g id="D"><use transform="matrix(0.05,0,0,0.05,0,0)" xlink:href="#bQ"/><use transform="matrix(0.05,0,0,0.05,12.950000000000001,0)" xlink:href="#bx"/><use transform="matrix(0.05,0,0,0.05,22.950000000000003,0)" xlink:href="#bx"/><use transform="matrix(0.05,0,0,0.05,32.95,0)" xlink:href="#bI"/><use transform="matrix(0.05,0,0,0.05,37.95,0)" xlink:href="#bP"/><use transform="matrix(0.05,0,0,0.05,48.900000000000006,0)" xlink:href="#bO"/><use transform="matrix(0.05,0,0,0.05,59.85,0)" xlink:href="#aE"/><use transform="matrix(0.05,0,0,0.05,75.85000000000001,0)" xlink:href="#aF"/><use transform="matrix(0.05,0,0,0.05,85.85000000000001,0)" xlink:href="#bO"/><use transform="matrix(0.05,0,0,0.05,96.80000000000001,0)" xlink:href="#bJ"/><use transform="matrix(0.05,0,0,0.05,102.75,0)" xlink:href="#bx"/></g><g id="E"><use transform="matrix(0.05,0,0,0.05,0,0)" xlink:href="#bQ"/><use transform="matrix(0.05,0,0,0.05,12.950000000000001,0)" xlink:href="#bx"/><use transform="matrix(0.05,0,0,0.05,22.950000000000003,0)" xlink:href="#bx"/><use transform="matrix(0.05,0,0,0.05,32.95,0)" xlink:href="#bI"/><use transform="matrix(0.05,0,0,0.05,37.95,0)" xlink:href="#bP"/><use transform="matrix(0.05,0,0,0.05,48.900000000000006,0)" xlink:href="#bO"/><use transform="matrix(0.05,0,0,0.05,59.85,0)" xlink:href="#aE"/><use transform="matrix(0.05,0,0,0.05,75.85000000000001,0)" xlink:href="#aF"/><use transform="matrix(0.05,0,0,0.05,85.85000000000001,0)" xlink:href="#bO"/><use transform="matrix(0.05,0,0,0.05,96.80000000000001,0)" xlink:href="#bJ"/><use transform="matrix(0.05,0,0,0.05,102.75,0)" xlink:href="#bx"/></g><g id="F"><use transform="matrix(0.05,0,0,0.05,0,0)" xlink:href="#bu"/><use transform="matrix(0.05,0,0,0.05,12.950000000000001,0)" xlink:href="#aD"/><use transform="matrix(0.05,0,0,0.05,23.900000000000002,0)" xlink:href="#bO"/><use transform="matrix(0.05,0,0,0.05,34.85,0)" xlink:href="#bJ"/><use transform="matrix(0.05,0,0,0.05,40.800000000000004,0)" xlink:href="#aF"/><use transform="matrix(0.05,0,0,0.05,50.800000000000004,0)" xlink:href="#bO"/><use transform="matrix(0.05,0,0,0.05,61.75,0)" xlink:href="#bJ"/><use transform="matrix(0.05,0,0,0.05,67.7,0)" xlink:href="#bx"/></g><g id="G"><use transform="matrix(0.05,0,0,0.05,0,0)" xlink:href="#bu"/><use transform="matrix(0.05,0,0,0.05,12.950000000000001,0)" xlink:href="#aD"/><use transform="matrix(0.05,0,0,0.05,23.900000000000002,0)" xlink:href="#bO"/><use transform="matrix(0.05,0,0,0.05,34.85,0)" xlink:href="#bJ"/><use transform="matrix(0.05,0,0,0.05,40.800000000000004,0)" xlink:href="#aF"/><use transform="matrix(0.05,0,0,0.05,50.800000000000004,0)" xlink:href="#bO"/><use transform="matrix(0.05,0,0,0.05,61.75,0)" xlink:href="#bJ"/><use transform="matrix(0.05,0,0,0.05,67.7,0)" xlink:href="#bx"/></g><path fill="#fff" d="M24-248c120-7 223 5 221 122C244-46 201 0 124 0H24v-248zM76-40c74 7 117-18 117-86 0-67-45-88-117-82v168" id="bR"/><g id="H"><use transform="matrix(0.05,0,0,0.05,0,0)" xlink:href="#bR"/><use transform="matrix(0.05,0,0,0.05,12.950000000000001,0)" xlink:href="#aF"/><use transform="matrix(0.05,0,0,0.05,22.950000000000003,0)" xlink:href="#bN"/><use transform="matrix(0.05,0,0,0.05,27.950000000000003,0)" xlink:href="#aF"/><use transform="matrix(0.05,0,0,0.05,37.95,0)" xlink:href="#bJ"/><use transform="matrix(0.05,0,0,0.05,43.900000000000006,0)" xlink:href="#aF"/></g><g id="I"><use transform="matrix(0.05,0,0,0.05,0,0)" xlink:href="#bQ"/><use transform="matrix(0.05,0,0,0.05,12.950000000000001,0)" xlink:href="#bK"/><use transform="matrix(0.05,0,0,0.05,23.900000000000002,0)" xlink:href="#bK"/></g><path fill="#fff" d="M140-251c80 0 125 45 125 126 0 70-33 111-92 124 6 28 34 38 68 31l-1 36C177 83 129 55 120 2 51-6 15-50 15-125c0-81 44-126 125-126zm-1 214c52 0 73-35 73-88 0-50-21-86-72-86-52 0-73 35-73 86s22 88 72 88" id="bS"/><g id="J"><use transform="matrix(0.05,0,0,0.05,0,0)" xlink:href="#bS"/><use transform="matrix(0.05,0,0,0.05,14,0)" xlink:href="#bv"/><use transform="matrix(0.05,0,0,0.05,24.950000000000003,0)" xlink:href="#aF"/><use transform="matrix(0.05,0,0,0.05,34.95,0)" xlink:href="#bx"/><use transform="matrix(0.05,0,0,0.05,44.95,0)" xlink:href="#bJ"/><use transform="matrix(0.05,0,0,0.05,50.900000000000006,0)" xlink:href="#bI"/><use transform="matrix(0.05,0,0,0.05,55.900000000000006,0)" xlink:href="#aD"/><use transform="matrix(0.05,0,0,0.05,66.85000000000001,0)" xlink:href="#bO"/><use transform="matrix(0.05,0,0,0.05,77.80000000000001,0)" xlink:href="#bx"/></g><path fill="#fff" d="M24 0v-248h52v208h133V0H24" id="bT"/><g id="K"><use transform="matrix(0.05,0,0,0.05,0,0)" xlink:href="#bT"/><use transform="matrix(0.05,0,0,0.05,10.950000000000001,0)" xlink:href="#aD"/><use transform="matrix(0.05,0,0,0.05,21.900000000000002,0)" xlink:href="#bP"/><use transform="matrix(0.05,0,0,0.05,32.85,0)" xlink:href="#bI"/><use transform="matrix(0.05,0,0,0.05,37.85,0)" xlink:href="#bO"/></g><path fill="#333" d="M190 0L58-211 59 0H30v-248h39L202-35l-2-213h31V0h-41" id="bU"/><path fill="#333" d="M100-194c62-1 85 37 85 99 1 63-27 99-86 99S16-35 15-95c0-66 28-99 85-99zM99-20c44 1 53-31 53-75 0-43-8-75-51-75s-53 32-53 75 10 74 51 75" id="bV"/><g id="L"><use transform="matrix(0.05,0,0,0.05,0,0)" xlink:href="#bU"/><use transform="matrix(0.05,0,0,0.05,12.950000000000001,0)" xlink:href="#bV"/></g><g id="M"><use transform="matrix(0.05,0,0,0.05,0,0)" xlink:href="#bT"/><use transform="matrix(0.05,0,0,0.05,10.950000000000001,0)" xlink:href="#aD"/><use transform="matrix(0.05,0,0,0.05,21.900000000000002,0)" xlink:href="#bP"/><use transform="matrix(0.05,0,0,0.05,32.85,0)" xlink:href="#aD"/><use transform="matrix(0.05,0,0,0.05,43.800000000000004,0)" xlink:href="#bv"/><use transform="matrix(0.05,0,0,0.05,54.75,0)" xlink:href="#bJ"/></g><path fill="#fff" d="M24-248c93 1 206-16 204 79-1 75-69 88-152 82V0H24v-248zm52 121c47 0 100 7 100-41 0-47-54-39-100-39v80" id="bW"/><path fill="#fff" d="M121-226c-27-7-43 5-38 36h38v33H83V0H34v-157H6v-33h28c-9-59 32-81 87-68v32" id="bX"/><g id="N"><use transform="matrix(0.05,0,0,0.05,0,0)" xlink:href="#bW"/><use transform="matrix(0.05,0,0,0.05,12,0)" xlink:href="#bw"/><use transform="matrix(0.05,0,0,0.05,19,0)" xlink:href="#aD"/><use transform="matrix(0.05,0,0,0.05,29.950000000000003,0)" xlink:href="#bX"/><use transform="matrix(0.05,0,0,0.05,35.900000000000006,0)" xlink:href="#bI"/><use transform="matrix(0.05,0,0,0.05,40.900000000000006,0)" xlink:href="#bN"/><use transform="matrix(0.05,0,0,0.05,45.900000000000006,0)" xlink:href="#aF"/></g><g id="O"><use transform="matrix(0.05,0,0,0.05,0,0)" xlink:href="#bG"/><use transform="matrix(0.05,0,0,0.05,12,0)" xlink:href="#bI"/><use transform="matrix(0.05,0,0,0.05,17,0)" xlink:href="#bP"/><use transform="matrix(0.05,0,0,0.05,27.950000000000003,0)" xlink:href="#bO"/></g><path fill="#fff" d="M135-194c53 0 70 44 70 98 0 56-19 98-73 100-31 1-45-17-59-34 3 33 2 69 2 105H25l-1-265h48c2 10 0 23 3 31 11-24 29-35 60-35zM114-30c33 0 39-31 40-66 0-38-9-64-40-64-56 0-55 130 0 130" id="bY"/><g id="P"><use transform="matrix(0.05,0,0,0.05,0,0)" xlink:href="#bv"/><use transform="matrix(0.05,0,0,0.05,10.950000000000001,0)" xlink:href="#bY"/></g><path fill="#fff" d="M144 0l-44-69L55 0H2l70-98-66-92h53l41 62 40-62h54l-67 91 71 99h-54" id="bZ"/><g id="Q"><use transform="matrix(0.05,0,0,0.05,0,0)" xlink:href="#bM"/><use transform="matrix(0.05,0,0,0.05,12,0)" xlink:href="#bZ"/><use transform="matrix(0.05,0,0,0.05,22,0)" xlink:href="#bY"/><use transform="matrix(0.05,0,0,0.05,32.95,0)" xlink:href="#bN"/><use transform="matrix(0.05,0,0,0.05,37.95,0)" xlink:href="#aD"/><use transform="matrix(0.05,0,0,0.05,48.900000000000006,0)" xlink:href="#bw"/><use transform="matrix(0.05,0,0,0.05,55.900000000000006,0)" xlink:href="#aF"/></g><path fill="#fff" d="M168-19C124 19 11 11 16-68c3-43 29-60 59-75-25-44-12-111 53-106 37 3 64 15 64 52 0 43-40 52-69 68 12 22 27 41 43 59 14-19 21-38 28-64l37 13c-8 29-19 52-34 74 12 10 32 16 52 10v35c-28 11-65-2-81-17zm-58-139c19-9 43-14 43-39 0-14-10-22-25-22-34 0-33 41-18 61zM60-68c-3 40 55 47 79 25-18-20-34-42-48-67-18 8-30 20-31 42" id="ca"/><use transform="matrix(0.05,0,0,0.05,0,0)" xlink:href="#ca" id="R"/><g id="S"><use transform="matrix(0.05,0,0,0.05,0,0)" xlink:href="#bQ"/><use transform="matrix(0.05,0,0,0.05,12.950000000000001,0)" xlink:href="#bK"/><use transform="matrix(0.05,0,0,0.05,23.900000000000002,0)" xlink:href="#bK"/></g><g id="T"><use transform="matrix(0.05,0,0,0.05,0,0)" xlink:href="#bR"/><use transform="matrix(0.05,0,0,0.05,12.950000000000001,0)" xlink:href="#bw"/><use transform="matrix(0.05,0,0,0.05,19.950000000000003,0)" xlink:href="#aD"/><use transform="matrix(0.05,0,0,0.05,30.900000000000006,0)" xlink:href="#bY"/></g><path fill="#fff" d="M190-63c-7 42-38 67-86 67-59 0-84-38-90-98-12-110 154-137 174-36l-49 2c-2-19-15-32-35-32-30 0-35 28-38 64-6 74 65 87 74 30" id="cb"/><g id="U"><use transform="matrix(0.05,0,0,0.05,0,0)" xlink:href="#bQ"/><use transform="matrix(0.05,0,0,0.05,12.950000000000001,0)" xlink:href="#cb"/><use transform="matrix(0.05,0,0,0.05,22.950000000000003,0)" xlink:href="#cb"/><use transform="matrix(0.05,0,0,0.05,32.95,0)" xlink:href="#aF"/><use transform="matrix(0.05,0,0,0.05,42.95,0)" xlink:href="#bx"/><use transform="matrix(0.05,0,0,0.05,52.95,0)" xlink:href="#bx"/></g><g id="V"><use transform="matrix(0.05,0,0,0.05,0,0)" xlink:href="#bu"/><use transform="matrix(0.05,0,0,0.05,12.950000000000001,0)" xlink:href="#aD"/><use transform="matrix(0.05,0,0,0.05,23.900000000000002,0)" xlink:href="#bO"/><use transform="matrix(0.05,0,0,0.05,34.85,0)" xlink:href="#bJ"/><use transform="matrix(0.05,0,0,0.05,40.800000000000004,0)" xlink:href="#aF"/><use transform="matrix(0.05,0,0,0.05,50.800000000000004,0)" xlink:href="#bO"/><use transform="matrix(0.05,0,0,0.05,61.75,0)" xlink:href="#bJ"/><use transform="matrix(0.05,0,0,0.05,67.7,0)" xlink:href="#bx"/></g><g id="W"><use transform="matrix(0.05,0,0,0.05,0,0)" xlink:href="#bs"/><use transform="matrix(0.05,0,0,0.05,14.950000000000001,0)" xlink:href="#aD"/><use transform="matrix(0.05,0,0,0.05,25.900000000000002,0)" xlink:href="#bK"/><use transform="matrix(0.05,0,0,0.05,36.85,0)" xlink:href="#bv"/><use transform="matrix(0.05,0,0,0.05,47.800000000000004,0)" xlink:href="#bN"/><use transform="matrix(0.05,0,0,0.05,52.800000000000004,0)" xlink:href="#aF"/><use transform="matrix(0.05,0,0,0.05,62.800000000000004,0)" xlink:href="#bx"/></g><g id="X"><use transform="matrix(0.05,0,0,0.05,0,0)" xlink:href="#bG"/><use transform="matrix(0.05,0,0,0.05,12,0)" xlink:href="#bv"/><use transform="matrix(0.05,0,0,0.05,22.950000000000003,0)" xlink:href="#bK"/><use transform="matrix(0.05,0,0,0.05,33.900000000000006,0)" xlink:href="#aF"/><use transform="matrix(0.05,0,0,0.05,43.900000000000006,0)" xlink:href="#bO"/><use transform="matrix(0.05,0,0,0.05,54.85,0)" xlink:href="#bJ"/><use transform="matrix(0.05,0,0,0.05,60.80000000000001,0)" xlink:href="#bx"/></g><g id="Y"><use transform="matrix(0.05,0,0,0.05,0,0)" xlink:href="#bQ"/><use transform="matrix(0.05,0,0,0.05,12.950000000000001,0)" xlink:href="#bx"/><use transform="matrix(0.05,0,0,0.05,22.950000000000003,0)" xlink:href="#bx"/><use transform="matrix(0.05,0,0,0.05,32.95,0)" xlink:href="#bI"/><use transform="matrix(0.05,0,0,0.05,37.95,0)" xlink:href="#bP"/><use transform="matrix(0.05,0,0,0.05,48.900000000000006,0)" xlink:href="#bO"/><use transform="matrix(0.05,0,0,0.05,59.85,0)" xlink:href="#aE"/><use transform="matrix(0.05,0,0,0.05,75.85000000000001,0)" xlink:href="#aF"/><use transform="matrix(0.05,0,0,0.05,85.85000000000001,0)" xlink:href="#bO"/><use transform="matrix(0.05,0,0,0.05,96.80000000000001,0)" xlink:href="#bJ"/><use transform="matrix(0.05,0,0,0.05,102.75,0)" xlink:href="#bx"/></g><g id="Z"><use transform="matrix(0.05,0,0,0.05,0,0)" xlink:href="#bG"/><use transform="matrix(0.05,0,0,0.05,12,0)" xlink:href="#bJ"/><use transform="matrix(0.05,0,0,0.05,17.95,0)" xlink:href="#bL"/><use transform="matrix(0.05,0,0,0.05,27.950000000000003,0)" xlink:href="#bw"/><use transform="matrix(0.05,0,0,0.05,34.95,0)" xlink:href="#bJ"/></g><g id="aa"><use transform="matrix(0.05,0,0,0.05,0,0)" xlink:href="#bu"/><use transform="matrix(0.05,0,0,0.05,12.950000000000001,0)" xlink:href="#aD"/><use transform="matrix(0.05,0,0,0.05,23.900000000000002,0)" xlink:href="#bv"/><use transform="matrix(0.05,0,0,0.05,34.85,0)" xlink:href="#bw"/><use transform="matrix(0.05,0,0,0.05,41.85,0)" xlink:href="#bx"/><use transform="matrix(0.05,0,0,0.05,51.85,0)" xlink:href="#aF"/><use transform="matrix(0.05,0,0,0.05,61.85,0)" xlink:href="#bx"/></g><path fill="#fff" d="M67-93c0 74 22 123 53 168H70C40 30 18-18 18-93s22-123 52-168h50c-32 44-53 94-53 168" id="cc"/><g id="ab"><use transform="matrix(0.05,0,0,0.05,0,0)" xlink:href="#cc"/><use transform="matrix(0.05,0,0,0.05,5.95,0)" xlink:href="#bL"/><use transform="matrix(0.05,0,0,0.05,15.949999999999998,0)" xlink:href="#bN"/><use transform="matrix(0.05,0,0,0.05,20.95,0)" xlink:href="#bN"/></g><g id="ac"><use transform="matrix(0.05,0,0,0.05,0,0)" xlink:href="#cb"/><use transform="matrix(0.05,0,0,0.05,10,0)" xlink:href="#aD"/><use transform="matrix(0.05,0,0,0.05,20.950000000000003,0)" xlink:href="#bv"/><use transform="matrix(0.05,0,0,0.05,31.900000000000006,0)" xlink:href="#bw"/><use transform="matrix(0.05,0,0,0.05,38.900000000000006,0)" xlink:href="#bx"/><use transform="matrix(0.05,0,0,0.05,48.900000000000006,0)" xlink:href="#aF"/><use transform="matrix(0.05,0,0,0.05,58.900000000000006,0)" xlink:href="#bx"/></g><path fill="#fff" d="M102-93c0 74-22 123-52 168H0C30 29 54-18 53-93c0-74-22-123-53-168h50c30 45 52 94 52 168" id="cd"/><g id="ad"><use transform="matrix(0.05,0,0,0.05,0,0)" xlink:href="#bN"/><use transform="matrix(0.05,0,0,0.05,5,0)" xlink:href="#bI"/><use transform="matrix(0.05,0,0,0.05,10,0)" xlink:href="#bx"/><use transform="matrix(0.05,0,0,0.05,20,0)" xlink:href="#bJ"/><use transform="matrix(0.05,0,0,0.05,25.950000000000003,0)" xlink:href="#cd"/></g><path fill="#fff" d="M30 0v-248h187v28H63v79h144v27H63v87h162V0H30" id="ce"/><path fill="#fff" d="M24 0v-261h32V0H24" id="cf"/><g id="ae"><use transform="matrix(0.04938271604938272,0,0,0.04938271604938272,0,0)" xlink:href="#ce"/><use transform="matrix(0.04938271604938272,0,0,0.04938271604938272,11.851851851851853,0)" xlink:href="#aL"/><use transform="matrix(0.04938271604938272,0,0,0.04938271604938272,21.7283950617284,0)" xlink:href="#bD"/><use transform="matrix(0.04938271604938272,0,0,0.04938271604938272,27.604938271604947,0)" xlink:href="#bE"/><use transform="matrix(0.04938271604938272,0,0,0.04938271604938272,37.48148148148149,0)" xlink:href="#cf"/><use transform="matrix(0.04938271604938272,0,0,0.04938271604938272,41.38271604938272,0)" xlink:href="#cf"/><use transform="matrix(0.04938271604938272,0,0,0.04938271604938272,45.283950617283956,0)" xlink:href="#aK"/><use transform="matrix(0.04938271604938272,0,0,0.04938271604938272,55.1604938271605,0)" xlink:href="#aP"/></g><path fill="#fff" d="M240-174c0 40-23 61-54 70L253 0h-59l-57-94H76V0H24v-248c93 4 217-23 216 74zM76-134c48-2 112 12 112-38 0-48-66-32-112-35v73" id="cg"/><g id="af"><use transform="matrix(0.05,0,0,0.05,0,0)" xlink:href="#cg"/><use transform="matrix(0.05,0,0,0.05,12.950000000000001,0)" xlink:href="#aF"/><use transform="matrix(0.05,0,0,0.05,22.950000000000003,0)" xlink:href="#bP"/><use transform="matrix(0.05,0,0,0.05,33.900000000000006,0)" xlink:href="#bI"/><use transform="matrix(0.05,0,0,0.05,38.900000000000006,0)" xlink:href="#bx"/><use transform="matrix(0.05,0,0,0.05,48.900000000000006,0)" xlink:href="#bJ"/><use transform="matrix(0.05,0,0,0.05,54.85,0)" xlink:href="#aF"/><use transform="matrix(0.05,0,0,0.05,64.85000000000001,0)" xlink:href="#bw"/></g><path fill="#fff" d="M210-169c-67 3-38 105-44 169h-31v-121c0-29-5-50-35-48C34-165 62-65 56 0H25l-1-190h30c1 10-1 24 2 32 10-44 99-50 107 0 11-21 27-35 58-36 85-2 47 119 55 194h-31v-121c0-29-5-49-35-48" id="ch"/><path fill="#fff" d="M115-194c55 1 70 41 70 98S169 2 115 4C84 4 66-9 55-30l1 105H24l-1-265h31l2 30c10-21 28-34 59-34zm-8 174c40 0 45-34 45-75s-6-73-45-74c-42 0-51 32-51 76 0 43 10 73 51 73" id="ci"/><path fill="#fff" d="M103-251c84 0 111 97 45 133-19 10-37 24-39 52H78c0-63 77-55 77-114 0-30-21-42-52-43-32 0-53 17-56 46l-32-2c7-45 34-72 88-72zM77 0v-35h34V0H77" id="cj"/><g id="ag"><use transform="matrix(0.05,0,0,0.05,0,0)" xlink:href="#aG"/><use transform="matrix(0.05,0,0,0.05,12,0)" xlink:href="#aI"/><use transform="matrix(0.05,0,0,0.05,17,0)" xlink:href="#aI"/><use transform="matrix(0.05,0,0,0.05,22,0)" xlink:href="#aK"/><use transform="matrix(0.05,0,0,0.05,32,0)" xlink:href="#ch"/><use transform="matrix(0.05,0,0,0.05,46.95,0)" xlink:href="#ci"/><use transform="matrix(0.05,0,0,0.05,56.95,0)" xlink:href="#aI"/><use transform="matrix(0.05,0,0,0.05,61.95,0)" xlink:href="#aK"/><use transform="matrix(0.05,0,0,0.05,71.95,0)" xlink:href="#aP"/><use transform="matrix(0.05,0,0,0.05,81.95,0)" xlink:href="#cj"/></g><path fill="#fff" d="M128 0H69L1-190h53L99-40l48-150h52" id="ck"/><path fill="#fff" d="M231 0h-52l-39-155L100 0H48L-1-190h46L77-45c9-52 24-97 36-145h53l37 145 32-145h46" id="cl"/><g id="ah"><use transform="matrix(0.05,0,0,0.05,0,0)" xlink:href="#bw"/><use transform="matrix(0.05,0,0,0.05,7,0)" xlink:href="#aF"/><use transform="matrix(0.05,0,0,0.05,17,0)" xlink:href="#ck"/><use transform="matrix(0.05,0,0,0.05,27,0)" xlink:href="#bI"/><use transform="matrix(0.05,0,0,0.05,32,0)" xlink:href="#aF"/><use transform="matrix(0.05,0,0,0.05,42,0)" xlink:href="#cl"/></g><path fill="#333" d="M212-179c-10-28-35-45-73-45-59 0-87 40-87 99 0 60 29 101 89 101 43 0 62-24 78-52l27 14C228-24 195 4 139 4 59 4 22-46 18-125c-6-104 99-153 187-111 19 9 31 26 39 46" id="cm"/><path fill="#333" d="M84 4C-5 8 30-112 23-190h32v120c0 31 7 50 39 49 72-2 45-101 50-169h31l1 190h-30c-1-10 1-25-2-33-11 22-28 36-60 37" id="cn"/><path fill="#333" d="M114-163C36-179 61-72 57 0H25l-1-190h30c1 12-1 29 2 39 6-27 23-49 58-41v29" id="co"/><g id="ai"><use transform="matrix(0.06234567901234567,0,0,0.06234567901234567,0,0)" xlink:href="#cm"/><use transform="matrix(0.06234567901234567,0,0,0.06234567901234567,16.147530864197527,0)" xlink:href="#bV"/><use transform="matrix(0.06234567901234567,0,0,0.06234567901234567,28.61666666666666,0)" xlink:href="#cn"/><use transform="matrix(0.06234567901234567,0,0,0.06234567901234567,41.08580246913579,0)" xlink:href="#co"/><use transform="matrix(0.06234567901234567,0,0,0.06234567901234567,48.50493827160493,0)" xlink:href="#bA"/><use transform="matrix(0.06234567901234567,0,0,0.06234567901234567,59.72716049382715,0)" xlink:href="#bz"/></g><path fill="#333" d="M210-169c-67 3-38 105-44 169h-31v-121c0-29-5-50-35-48C34-165 62-65 56 0H25l-1-190h30c1 10-1 24 2 32 10-44 99-50 107 0 11-21 27-35 58-36 85-2 47 119 55 194h-31v-121c0-29-5-49-35-48" id="cp"/><path fill="#333" d="M85-194c31 0 48 13 60 33l-1-100h32l1 261h-30c-2-10 0-23-3-31C134-8 116 4 85 4 32 4 16-35 15-94c0-66 23-100 70-100zm9 24c-40 0-46 34-46 75 0 40 6 74 45 74 42 0 51-32 51-76 0-42-9-74-50-73" id="cq"/><path fill="#333" d="M24 0v-261h32V0H24" id="cr"/><g id="aj"><use transform="matrix(0.06234567901234567,0,0,0.06234567901234567,0,0)" xlink:href="#cp"/><use transform="matrix(0.06234567901234567,0,0,0.06234567901234567,18.641358024691353,0)" xlink:href="#bV"/><use transform="matrix(0.06234567901234567,0,0,0.06234567901234567,31.110493827160486,0)" xlink:href="#cq"/><use transform="matrix(0.06234567901234567,0,0,0.06234567901234567,43.57962962962962,0)" xlink:href="#cn"/><use transform="matrix(0.06234567901234567,0,0,0.06234567901234567,56.048765432098755,0)" xlink:href="#cr"/><use transform="matrix(0.06234567901234567,0,0,0.06234567901234567,60.97407407407406,0)" xlink:href="#bz"/></g><path fill="#333" d="M96-169c-40 0-48 33-48 73s9 75 48 75c24 0 41-14 43-38l32 2c-6 37-31 61-74 61-59 0-76-41-82-99-10-93 101-131 147-64 4 7 5 14 7 22l-32 3c-4-21-16-35-41-35" id="cs"/><path fill="#333" d="M117-194c89-4 53 116 60 194h-32v-121c0-31-8-49-39-48C34-167 62-67 57 0H25l-1-190h30c1 10-1 24 2 32 11-22 29-35 61-36" id="ct"/><path fill="#333" d="M59-47c-2 24 18 29 38 22v24C64 9 27 4 27-40v-127H5v-23h24l9-43h21v43h35v23H59v120" id="cu"/><g id="ak"><use transform="matrix(0.06234567901234567,0,0,0.06234567901234567,0,0)" xlink:href="#cs"/><use transform="matrix(0.06234567901234567,0,0,0.06234567901234567,11.22222222222222,0)" xlink:href="#bV"/><use transform="matrix(0.06234567901234567,0,0,0.06234567901234567,23.691358024691354,0)" xlink:href="#ct"/><use transform="matrix(0.06234567901234567,0,0,0.06234567901234567,36.16049382716049,0)" xlink:href="#cu"/><use transform="matrix(0.06234567901234567,0,0,0.06234567901234567,42.39506172839505,0)" xlink:href="#bz"/><use transform="matrix(0.06234567901234567,0,0,0.06234567901234567,54.86419753086418,0)" xlink:href="#ct"/><use transform="matrix(0.06234567901234567,0,0,0.06234567901234567,67.33333333333331,0)" xlink:href="#cu"/></g><g id="al"><use transform="matrix(0.05,0,0,0.05,0,0)" xlink:href="#bQ"/><use transform="matrix(0.05,0,0,0.05,12.950000000000001,0)" xlink:href="#bx"/><use transform="matrix(0.05,0,0,0.05,22.950000000000003,0)" xlink:href="#bx"/><use transform="matrix(0.05,0,0,0.05,32.95,0)" xlink:href="#bI"/><use transform="matrix(0.05,0,0,0.05,37.95,0)" xlink:href="#bP"/><use transform="matrix(0.05,0,0,0.05,48.900000000000006,0)" xlink:href="#bO"/><use transform="matrix(0.05,0,0,0.05,59.85,0)" xlink:href="#aE"/><use transform="matrix(0.05,0,0,0.05,75.85000000000001,0)" xlink:href="#aF"/><use transform="matrix(0.05,0,0,0.05,85.85000000000001,0)" xlink:href="#bO"/><use transform="matrix(0.05,0,0,0.05,96.80000000000001,0)" xlink:href="#bJ"/></g><g id="am"><use transform="matrix(0.05,0,0,0.05,0,0)" xlink:href="#bs"/><use transform="matrix(0.05,0,0,0.05,14.950000000000001,0)" xlink:href="#aD"/><use transform="matrix(0.05,0,0,0.05,25.900000000000002,0)" xlink:href="#bK"/><use transform="matrix(0.05,0,0,0.05,36.85,0)" xlink:href="#bv"/><use transform="matrix(0.05,0,0,0.05,47.800000000000004,0)" xlink:href="#bN"/><use transform="matrix(0.05,0,0,0.05,52.800000000000004,0)" xlink:href="#aF"/></g><g id="an"><use transform="matrix(0.05,0,0,0.05,0,0)" xlink:href="#cc"/><use transform="matrix(0.05,0,0,0.05,5.95,0)" xlink:href="#cb"/><use transform="matrix(0.05,0,0,0.05,15.949999999999998,0)" xlink:href="#aD"/><use transform="matrix(0.05,0,0,0.05,26.899999999999995,0)" xlink:href="#bO"/><use transform="matrix(0.05,0,0,0.05,37.85,0)" xlink:href="#bJ"/><use transform="matrix(0.05,0,0,0.05,43.800000000000004,0)" xlink:href="#aF"/><use transform="matrix(0.05,0,0,0.05,53.800000000000004,0)" xlink:href="#bO"/><use transform="matrix(0.05,0,0,0.05,64.75,0)" xlink:href="#bJ"/><use transform="matrix(0.05,0,0,0.05,70.7,0)" xlink:href="#cd"/></g><g id="ao"><use transform="matrix(0.05,0,0,0.05,0,0)" xlink:href="#bu"/><use transform="matrix(0.05,0,0,0.05,12.950000000000001,0)" xlink:href="#aD"/><use transform="matrix(0.05,0,0,0.05,23.900000000000002,0)" xlink:href="#bv"/><use transform="matrix(0.05,0,0,0.05,34.85,0)" xlink:href="#bw"/><use transform="matrix(0.05,0,0,0.05,41.85,0)" xlink:href="#bx"/><use transform="matrix(0.05,0,0,0.05,51.85,0)" xlink:href="#aF"/></g><path fill="#fff" d="M114-157C55-157 80-60 75 0H25v-261h50l-1 109c12-26 28-41 61-42 86-1 58 113 63 194h-50c-7-57 23-157-34-157" id="cv"/><g id="ap"><use transform="matrix(0.05,0,0,0.05,0,0)" xlink:href="#bQ"/><use transform="matrix(0.05,0,0,0.05,12.950000000000001,0)" xlink:href="#bv"/><use transform="matrix(0.05,0,0,0.05,23.900000000000002,0)" xlink:href="#bJ"/><use transform="matrix(0.05,0,0,0.05,29.85,0)" xlink:href="#cv"/><use transform="matrix(0.05,0,0,0.05,40.800000000000004,0)" xlink:href="#aF"/><use transform="matrix(0.05,0,0,0.05,50.800000000000004,0)" xlink:href="#bO"/><use transform="matrix(0.05,0,0,0.05,61.75,0)" xlink:href="#bJ"/><use transform="matrix(0.05,0,0,0.05,67.7,0)" xlink:href="#bI"/><use transform="matrix(0.05,0,0,0.05,72.7,0)" xlink:href="#cb"/><use transform="matrix(0.05,0,0,0.05,82.7,0)" xlink:href="#bL"/><use transform="matrix(0.05,0,0,0.05,92.7,0)" xlink:href="#bJ"/><use transform="matrix(0.05,0,0,0.05,98.65,0)" xlink:href="#bI"/><use transform="matrix(0.05,0,0,0.05,103.65,0)" xlink:href="#aD"/><use transform="matrix(0.05,0,0,0.05,114.60000000000001,0)" xlink:href="#bO"/></g><path fill="#fff" d="M24 0v-248h52V0H24" id="cw"/><g id="aq"><use transform="matrix(0.05,0,0,0.05,0,0)" xlink:href="#cw"/><use transform="matrix(0.05,0,0,0.05,5,0)" xlink:href="#bO"/><use transform="matrix(0.05,0,0,0.05,15.950000000000001,0)" xlink:href="#bx"/><use transform="matrix(0.05,0,0,0.05,25.950000000000003,0)" xlink:href="#bJ"/><use transform="matrix(0.05,0,0,0.05,31.900000000000002,0)" xlink:href="#bw"/><use transform="matrix(0.05,0,0,0.05,38.900000000000006,0)" xlink:href="#bv"/><use transform="matrix(0.05,0,0,0.05,49.85000000000001,0)" xlink:href="#cb"/><use transform="matrix(0.05,0,0,0.05,59.85,0)" xlink:href="#bJ"/><use transform="matrix(0.05,0,0,0.05,65.80000000000001,0)" xlink:href="#aD"/><use transform="matrix(0.05,0,0,0.05,76.75000000000001,0)" xlink:href="#bw"/></g><path fill="#fff" d="M140-251c80 0 125 45 125 126S219 4 139 4C58 4 15-44 15-125s44-126 125-126zm-1 214c52 0 73-35 73-88 0-50-21-86-72-86-52 0-73 35-73 86s22 88 72 88" id="cx"/><g id="ar"><use transform="matrix(0.05,0,0,0.05,0,0)" xlink:href="#cx"/><use transform="matrix(0.05,0,0,0.05,14,0)" xlink:href="#bO"/><use transform="matrix(0.05,0,0,0.05,24.950000000000003,0)" xlink:href="#bN"/><use transform="matrix(0.05,0,0,0.05,29.950000000000003,0)" xlink:href="#bt"/></g><g id="as"><use transform="matrix(0.06234567901234567,0,0,0.06234567901234567,0,0)" xlink:href="#cm"/><use transform="matrix(0.06234567901234567,0,0,0.06234567901234567,16.147530864197527,0)" xlink:href="#bV"/><use transform="matrix(0.06234567901234567,0,0,0.06234567901234567,28.61666666666666,0)" xlink:href="#cn"/><use transform="matrix(0.06234567901234567,0,0,0.06234567901234567,41.08580246913579,0)" xlink:href="#co"/><use transform="matrix(0.06234567901234567,0,0,0.06234567901234567,48.50493827160493,0)" xlink:href="#bA"/><use transform="matrix(0.06234567901234567,0,0,0.06234567901234567,59.72716049382715,0)" xlink:href="#bz"/></g><path fill="#333" d="M205 0l-28-72H64L36 0H1l101-248h38L239 0h-34zm-38-99l-47-123c-12 45-31 82-46 123h93" id="cy"/><path fill="#333" d="M24-231v-30h32v30H24zM24 0v-190h32V0H24" id="cz"/><path fill="#333" d="M177-190C167-65 218 103 67 71c-23-6-38-20-44-43l32-5c15 47 100 32 89-28v-30C133-14 115 1 83 1 29 1 15-40 15-95c0-56 16-97 71-98 29-1 48 16 59 35 1-10 0-23 2-32h30zM94-22c36 0 50-32 50-73 0-42-14-75-50-75-39 0-46 34-46 75s6 73 46 73" id="cA"/><g id="at"><use transform="matrix(0.06234567901234567,0,0,0.06234567901234567,0,0)" xlink:href="#cy"/><use transform="matrix(0.06234567901234567,0,0,0.06234567901234567,14.96296296296296,0)" xlink:href="#bA"/><use transform="matrix(0.06234567901234567,0,0,0.06234567901234567,26.18518518518518,0)" xlink:href="#bA"/><use transform="matrix(0.06234567901234567,0,0,0.06234567901234567,37.4074074074074,0)" xlink:href="#cz"/><use transform="matrix(0.06234567901234567,0,0,0.06234567901234567,42.332716049382704,0)" xlink:href="#cA"/><use transform="matrix(0.06234567901234567,0,0,0.06234567901234567,54.801851851851836,0)" xlink:href="#ct"/><use transform="matrix(0.06234567901234567,0,0,0.06234567901234567,67.27098765432098,0)" xlink:href="#cp"/><use transform="matrix(0.06234567901234567,0,0,0.06234567901234567,85.91234567901233,0)" xlink:href="#bz"/><use transform="matrix(0.06234567901234567,0,0,0.06234567901234567,98.38148148148147,0)" xlink:href="#ct"/><use transform="matrix(0.06234567901234567,0,0,0.06234567901234567,110.85061728395061,0)" xlink:href="#cu"/></g><path fill="#333" d="M30 0v-248h33v221h125V0H30" id="cB"/><g id="au"><use transform="matrix(0.06234567901234567,0,0,0.06234567901234567,0,0)" xlink:href="#cB"/><use transform="matrix(0.06234567901234567,0,0,0.06234567901234567,12.469135802469133,0)" xlink:href="#bV"/><use transform="matrix(0.06234567901234567,0,0,0.06234567901234567,24.938271604938265,0)" xlink:href="#cA"/><use transform="matrix(0.06234567901234567,0,0,0.06234567901234567,37.4074074074074,0)" xlink:href="#cz"/><use transform="matrix(0.06234567901234567,0,0,0.06234567901234567,42.332716049382704,0)" xlink:href="#ct"/></g><path fill="#333" d="M141-36C126-15 110 5 73 4 37 3 15-17 15-53c-1-64 63-63 125-63 3-35-9-54-41-54-24 1-41 7-42 31l-33-3c5-37 33-52 76-52 45 0 72 20 72 64v82c-1 20 7 32 28 27v20c-31 9-61-2-59-35zM48-53c0 20 12 33 32 33 41-3 63-29 60-74-43 2-92-5-92 41" id="cC"/><g id="av"><use transform="matrix(0.06234567901234567,0,0,0.06234567901234567,0,0)" xlink:href="#cC"/><use transform="matrix(0.06234567901234567,0,0,0.06234567901234567,12.469135802469133,0)" xlink:href="#ct"/><use transform="matrix(0.06234567901234567,0,0,0.06234567901234567,24.938271604938265,0)" xlink:href="#cq"/></g><path fill="#333" d="M106-169C34-169 62-67 57 0H25v-261h32l-1 103c12-21 28-36 61-36 89 0 53 116 60 194h-32v-121c2-32-8-49-39-48" id="cD"/><g id="aw"><use transform="matrix(0.06234567901234567,0,0,0.06234567901234567,0,0)" xlink:href="#cy"/><use transform="matrix(0.06234567901234567,0,0,0.06234567901234567,14.96296296296296,0)" xlink:href="#cn"/><use transform="matrix(0.06234567901234567,0,0,0.06234567901234567,27.432098765432094,0)" xlink:href="#cu"/><use transform="matrix(0.06234567901234567,0,0,0.06234567901234567,33.66666666666666,0)" xlink:href="#cD"/><use transform="matrix(0.06234567901234567,0,0,0.06234567901234567,46.13580246913579,0)" xlink:href="#bz"/><use transform="matrix(0.06234567901234567,0,0,0.06234567901234567,58.60493827160492,0)" xlink:href="#ct"/><use transform="matrix(0.06234567901234567,0,0,0.06234567901234567,71.07407407407405,0)" xlink:href="#cu"/><use transform="matrix(0.06234567901234567,0,0,0.06234567901234567,77.30864197530862,0)" xlink:href="#cz"/><use transform="matrix(0.06234567901234567,0,0,0.06234567901234567,82.23395061728392,0)" xlink:href="#cs"/><use transform="matrix(0.06234567901234567,0,0,0.06234567901234567,93.45617283950614,0)" xlink:href="#cC"/><use transform="matrix(0.06234567901234567,0,0,0.06234567901234567,105.92530864197528,0)" xlink:href="#cu"/><use transform="matrix(0.06234567901234567,0,0,0.06234567901234567,112.15987654320985,0)" xlink:href="#cz"/><use transform="matrix(0.06234567901234567,0,0,0.06234567901234567,117.08518518518515,0)" xlink:href="#bV"/><use transform="matrix(0.06234567901234567,0,0,0.06234567901234567,129.55432098765428,0)" xlink:href="#ct"/></g><path fill="#333" d="M33 0v-248h34V0H33" id="cE"/><g id="ax"><use transform="matrix(0.06234567901234567,0,0,0.06234567901234567,0,0)" xlink:href="#cE"/><use transform="matrix(0.06234567901234567,0,0,0.06234567901234567,6.234567901234566,0)" xlink:href="#ct"/><use transform="matrix(0.06234567901234567,0,0,0.06234567901234567,18.7037037037037,0)" xlink:href="#bA"/><use transform="matrix(0.06234567901234567,0,0,0.06234567901234567,29.925925925925917,0)" xlink:href="#cu"/><use transform="matrix(0.06234567901234567,0,0,0.06234567901234567,36.16049382716048,0)" xlink:href="#co"/><use transform="matrix(0.06234567901234567,0,0,0.06234567901234567,43.579629629629615,0)" xlink:href="#cn"/><use transform="matrix(0.06234567901234567,0,0,0.06234567901234567,56.04876543209875,0)" xlink:href="#cs"/><use transform="matrix(0.06234567901234567,0,0,0.06234567901234567,67.27098765432096,0)" xlink:href="#cu"/><use transform="matrix(0.06234567901234567,0,0,0.06234567901234567,73.50555555555553,0)" xlink:href="#bV"/><use transform="matrix(0.06234567901234567,0,0,0.06234567901234567,85.97469135802467,0)" xlink:href="#co"/></g><path fill="#333" d="M209 0H11v-25l151-195H24v-28h176v25L50-27h159V0" id="cF"/><g id="ay"><use transform="matrix(0.06234567901234567,0,0,0.06234567901234567,0,0)" xlink:href="#cF"/><use transform="matrix(0.06234567901234567,0,0,0.06234567901234567,13.653703703703702,0)" xlink:href="#bV"/><use transform="matrix(0.06234567901234567,0,0,0.06234567901234567,26.122839506172834,0)" xlink:href="#ct"/><use transform="matrix(0.06234567901234567,0,0,0.06234567901234567,38.59197530864196,0)" xlink:href="#bz"/></g><path fill="#333" d="M24 0v-248h52v208h133V0H24" id="cG"/><path fill="#333" d="M185-48c-13 30-37 53-82 52C43 2 14-33 14-96s30-98 90-98c62 0 83 45 84 108H66c0 31 8 55 39 56 18 0 30-7 34-22zm-45-69c5-46-57-63-70-21-2 6-4 13-4 21h74" id="cH"/><path fill="#333" d="M195-6C206 82 75 100 31 46c-4-6-6-13-8-21l49-6c3 16 16 24 34 25 40 0 42-37 40-79-11 22-30 35-61 35-53 0-70-43-70-97 0-56 18-96 73-97 30 0 46 14 59 34l2-30h47zm-90-29c32 0 41-27 41-63 0-35-9-62-40-62-32 0-39 29-40 63 0 36 9 62 39 62" id="cI"/><path fill="#333" d="M135-194c87-1 58 113 63 194h-50c-7-57 23-157-34-157-59 0-34 97-39 157H25l-1-190h47c2 12-1 28 3 38 12-26 28-41 61-42" id="cJ"/><path fill="#333" d="M88-194c31-1 46 15 58 34l-1-101h50l1 261h-48c-2-10 0-23-3-31C134-8 116 4 84 4 32 4 16-41 15-95c0-56 19-97 73-99zm17 164c33 0 40-30 41-66 1-37-9-64-41-64s-38 30-39 65c0 43 13 65 39 65" id="cK"/><path fill="#333" d="M137-138c1-29-70-34-71-4 15 46 118 7 119 86 1 83-164 76-172 9l43-7c4 19 20 25 44 25 33 8 57-30 24-41C81-84 22-81 20-136c-2-80 154-74 161-7" id="cL"/><g id="az"><use transform="matrix(0.08086419753086417,0,0,0.08086419753086417,0,0)" xlink:href="#cG"/><use transform="matrix(0.08086419753086417,0,0,0.08086419753086417,17.70925925925925,0)" xlink:href="#cH"/><use transform="matrix(0.08086419753086417,0,0,0.08086419753086417,33.88209876543209,0)" xlink:href="#cI"/><use transform="matrix(0.08086419753086417,0,0,0.08086419753086417,51.59135802469134,0)" xlink:href="#cH"/><use transform="matrix(0.08086419753086417,0,0,0.08086419753086417,67.76419753086418,0)" xlink:href="#cJ"/><use transform="matrix(0.08086419753086417,0,0,0.08086419753086417,85.47345679012344,0)" xlink:href="#cK"/><use transform="matrix(0.08086419753086417,0,0,0.08086419753086417,103.18271604938268,0)" xlink:href="#cL"/></g><g id="aA"><use transform="matrix(0.05,0,0,0.05,0,0)" xlink:href="#bu"/><use transform="matrix(0.05,0,0,0.05,12.950000000000001,0)" xlink:href="#cv"/><use transform="matrix(0.05,0,0,0.05,23.900000000000002,0)" xlink:href="#bL"/><use transform="matrix(0.05,0,0,0.05,33.900000000000006,0)" xlink:href="#bJ"/></g><g id="aB"><use transform="matrix(0.05,0,0,0.05,0,0)" xlink:href="#cg"/><use transform="matrix(0.05,0,0,0.05,12.950000000000001,0)" xlink:href="#aD"/><use transform="matrix(0.05,0,0,0.05,23.900000000000002,0)" xlink:href="#aD"/><use transform="matrix(0.05,0,0,0.05,34.85,0)" xlink:href="#aE"/></g></defs></g></svg>